<svg id="Layer_1" data-name="Layer 1" xmlns="http://www.w3.org/2000/svg" viewBox="0 0 272.22 595.28">
  <defs>
    <style>
      .cls-1 {
        fill: #323a3a;
      }

      .cls-1, .cls-3, .cls-4, .cls-6, .cls-7, .cls-8, .cls-9 {
        stroke: #231f20;
        stroke-miterlimit: 10;
      }

      .cls-2 {
        opacity: 0.6;
      }

      .cls-3 {
        fill: #2c3435;
      }

      .cls-4, .cls-6, .cls-7, .cls-8 {
        fill: none;
      }

      .cls-5, .cls-9 {
        fill: #231f20;
      }

      .cls-6 {
        stroke-width: 0.75px;
      }

      .cls-7 {
        stroke-width: 0.25px;
      }

      .cls-8 {
        stroke-width: 0.5px;
      }
    </style>
  </defs>
  <title>alealitrouserarts</title>
  <g>
    <path class="cls-1" d="M260.16,542.75c-1.47-13.84-7.43-22.72-9.85-25.46a48.41,48.41,0,0,1-5.86-8.75c-.58-1.32-11.69-15-26.37-13.57h-.9s5.34-8.11,6-12.44,5.1-13.16,6.5-19.35,6.34-18.88,0-40.09c0,0,2.16-6.65,3.25-11.3s1.39-6.81-2.94-14.08c0,0,1.39-8.36.93-9.91s-1.55-1.86-3.56-4.64l-1.92-2.65c.21-.28.86-2.33,2.84-12.37,2.94-14.86,11.46-62.22,11.77-66.24s-.31-47.52-.31-47.52,5.72,2.47,7.43,1.39-2.79-9.13-3.25-15.79-1.55-11.61-.47-17.95,4.8-20,4.18-38.39-9.44-56.49-10.06-59.59-.15-9.6-3.87-15.63-4-8.36-4-8.36-1.4-6-1.86-8.67-3.1-12.23-2.32-14.39,4-4,4-7.59,1.24-10.21-1.55-12.85c-1.33-1.26-1.88-1.56-2.1-1.53.18-1.29.54-5-1-6.05-1.86-1.24-2.46.54-5-2.75,0,0-1.16-7.55-1.16-9.87s-.78-9.1-1.75-9.87S204.14,22.43,201,24A19,19,0,0,0,191,21.72s-1.65-.52-3.12,3.29c0,0-5.65,1.1-7,1.84H168.54c-.86,0-3.32-1-4-.65s-4.83,1.41-4.83,1.41-28.61-3.77-31.44-3.89c0,0,.5-2-.24-2.28s-10.47-.35-11,0a1.68,1.68,0,0,0-.48,1.21S89,20.75,89.64,25.56c0,0-1.89,13.87-2.55,16.32,0,0-.81,2.51-1.12,3.81s-3.75,5.44-4.21,5.36-1.22-.46-1.83.69S73,66.81,77.1,71.25c0,0,3.13,2,2.52,2.3a5,5,0,0,1-1.76.31S77,79.37,76.77,80s.41,2.1.41,3-.89,11.25-2.38,12.4-3.92,5.58-4.59,6.44-4.55,12.23-4.64,14.51-.1,4.36-.1,4.36-4.42,4.43-3.17,14.84a72,72,0,0,1-.11,18.52,25.53,25.53,0,0,1-6.56-7.61c-2.3-4.43-35.62-3.28-41-3.11s3.77,13.62,6.56,13.78,27.08.17,31.19-1.15,10.83-2.29,11.16,2.63-4,25.9-2.81,28.22,5,7.72,4,8.11-10,26.08-7.53,37.67c0,0-.49,3.61,1,4.65s2.48,7.72,2.22,11.12.66,31.53,1.31,37,7.85,46.18,11,49.85,5.23,6.8,5.23,8.63-2.75,6.41-1.18,11,2.88,8.9,2,9.16-2.23,1.83-2.49,6.28S75.44,376,73.47,377s-2.09,7.72-2.09,7.72S66.54,394,68,397.55,74.52,424.9,75.57,428s-.26,36.1,1.83,37.81c0,0-9,3.79-16.88,23.28,0,0-6.93,13.87-7.46,17.67a51.68,51.68,0,0,1-3,10.59c-.66,1.44-5.63,5.24,10.46,8.64,0,0,1.57,1.57,2.36-5.1s15.7-31,15.7-31,2.09,4.84,2.22,7.19,2.36,11-3.4,19S61.18,541.6,62.75,552.46s6.15,19.88,12.69,22.24c0,0,3.4-8.64,3.27-10.34s-5.76-5.62-6.15-14.13,1.7-12.17,3-16.22,1.83-6.94,3.27-9.55,7.85-11.91,7.85-15.44.65,2.36,1.31,3.66,3.92,2.23,6.54.27c0,0,5.1,2.09,5,3.66s5.63-.66,6.54,0,2.49,2.61,6.8,1.31,20.41,1.17,20-1.44-1.7-5.63-1.31-6.41,4.32-.92,3-7.46.66-3.27.92-7.85-1.7-9.94-.92-12.3a13.09,13.09,0,0,1,3.87-6.23c2.4-2.29,9.84-9.34,11.1-17.31.51,3,1.18,5.4,2.07,6.62,4.61,6.33,6.34,6.09,7.16,8.88a109.42,109.42,0,0,1,2.3,13.08c-.08.74-1.73,4.85-1.48,9.38s.25,9.29.25,10.11-1.32.91-1,2.23,4.69,4.52,6.33,5.59,1.93,2.21,5,1.41,4.51-.79,6.76.67,6.37,3.71,8,2.92a37.42,37.42,0,0,1,5.83-1.73s3.85,3.72,6.11,3.32,4.38-3.45,5.7-2.65,6.5.39,7.83-1.07,3.72-2.25,4-1.72-6.75,13.88-5.64,19.78,4.61,31.35,14.94,33.75,18.26,5.17,18.63,3.32-5-4.79-6.64-4.79-4.06.18-4.06.18-4.24,3.32-7.56-.74-6.82-7.38-4.24-18.26,5-23.79,5-27.85-2-11.07-2.77-13.46,27.12.37,27.85,12.54,3.51,14.2.19,25.64-7.75,19.36-7.38,20.47,13.65,7,14.2,5.72S261.64,556.58,260.16,542.75Zm-104-157.95s-10.53,17-6.78,25.68c0,0,.47,46,.15,48.44-.27-.84-1.47-46.47-1.88-50.72-.8-8.42-1-12-3.61-16s-3.8-5.61-3.6-10.12,1-3.7,0-10.42-1.61-5.61,2.4-11.82,3.31-6.12,6.32-11.13S154,180.05,154,180.05s-.87,177.45,4.26,187.81C158.26,367.86,153.55,376.12,156.17,384.8Z"/>
    <g class="cls-2">
      <path class="cls-3" d="M84.94,147.31a102.28,102.28,0,0,0-13.73-1.56c-2.81,0-5.06.27-5.48,1.26-1.27,3-3,27.63-3,27.63s8.09-1.2,10.36,0,11.12,5.41,13.65,3.91,12.9-.9,14.16.3,13.4,1.5,15.17.6,13.14-1.5,15.42-.3,16.43-.3,17.95.6,13.4.9,16.18.6,12.39,1.2,16.68.9,12.64-1.5,15.42-.9,11.89.3,15.43-.6,7.58-3.3,11.88-3,10.87-1.81,14.66-1.51,7.08.9,7.84-2.1-3.29-26.13-4.3-27-8.6-.9-12.89,1.2-8.09,1.81-11.89,1.81-12.13-1.21-16.68-1.21-14.16-.3-16.94-.3-4,3.31-5.81,3.31-14.67-2.41-18.71-1.2-24-1.21-24.78-.91-1.77,1.21-7.58.91-15.42.6-20.22-.3-10.88.3-13.15,0S84.94,147.31,84.94,147.31Z"/>
      <line class="cls-3" x1="66.81" y1="174.1" x2="69.98" y2="145.83"/>
      <line class="cls-3" x1="78.92" y1="146.49" x2="74.93" y2="175.4"/>
      <line class="cls-3" x1="87.86" y1="148.12" x2="82.91" y2="177.53"/>
      <line class="cls-3" x1="94.55" y1="149.42" x2="91.61" y2="177.26"/>
      <line class="cls-3" x1="104.08" y1="149.53" x2="100.87" y2="178.85"/>
      <line class="cls-3" x1="111.57" y1="151.1" x2="109.52" y2="180.4"/>
      <line class="cls-3" x1="119.06" y1="150.23" x2="118.32" y2="178.65"/>
      <line class="cls-3" x1="127.92" y1="149.72" x2="126.54" y2="178.48"/>
      <line class="cls-3" x1="138" y1="150.23" x2="136.23" y2="180.05"/>
      <line class="cls-3" x1="147.24" y1="150.05" x2="145.19" y2="180.05"/>
      <line class="cls-3" x1="155.46" y1="150.57" x2="154" y2="180.05"/>
      <line class="cls-3" x1="163.1" y1="150.4" x2="162.66" y2="180.05"/>
      <line class="cls-3" x1="173.08" y1="150.92" x2="171.17" y2="179.52"/>
      <line class="cls-3" x1="181.15" y1="149.53" x2="179.98" y2="180.92"/>
      <line class="cls-3" x1="189.96" y1="147.96" x2="188.2" y2="180.4"/>
      <line class="cls-3" x1="198.92" y1="148.31" x2="196.42" y2="179.7"/>
      <line class="cls-3" x1="207.71" y1="148.76" x2="204.94" y2="179.35"/>
      <line class="cls-3" x1="215.95" y1="149.53" x2="213.12" y2="179.75"/>
      <line class="cls-3" x1="224.75" y1="149.18" x2="223.43" y2="176.91"/>
      <line class="cls-3" x1="232.53" y1="147.09" x2="231.36" y2="175.86"/>
      <line class="cls-3" x1="239.58" y1="146.91" x2="239.66" y2="175.24"/>
      <line class="cls-3" x1="243.4" y1="146.91" x2="243.84" y2="174.29"/>
      <path class="cls-3" d="M244.36,152.47c-1-.9-14.5-1.28-18.8.82s-8.09,1.8-11.88,1.8-12.14-1.2-16.69-1.2-14.15-.3-16.94-.3-4,3.3-5.81,3.3-14.66-2.4-18.71-1.2-24-1.2-24.77-.9-1.77,1.2-7.59.9-15.42.6-20.22-.3-10.87.3-13.15,0-9.6-2.1-9.6-2.1a135,135,0,0,0-14.87-1.54"/>
      <path class="cls-3" d="M61.13,169s8.09-1.2,10.37,0,11.12,5.41,13.65,3.91,12.89-.9,14.15.3,13.4,1.5,15.17.6,13.15-1.5,15.42-.3,16.44-.3,18,.6,13.4.9,16.18.6,12.39,1.2,16.69.9,12.64-1.5,15.42-.9,11.88.3,15.42-.6,7.59-3.3,11.88-3,19.68-1.4,23.47-1.1"/>
    </g>
    <g class="cls-2">
      <path class="cls-3" d="M93.47,76.38a85.86,85.86,0,0,0-11.26-1.24c-2.31,0-4.15.21-4.49,1-1,2.4-2.49,22.08-2.49,22.08s6.63-1,8.5,0,9.11,4.31,11.19,3.11,10.56-.72,11.6.24,11,1.2,12.44.48,10.77-1.2,12.64-.24,13.47-.24,14.71.48,11,.72,13.26.48,10.16,1,13.68.72,10.36-1.2,12.64-.72a45.52,45.52,0,0,0,12.64-.48c2.9-.72,6.22-2.64,9.74-2.4s8.91-1.43,12-1.19,5.81.71,6.43-1.68-2.7-20.88-3.53-21.6-7-.72-10.56,1-6.64,1.44-9.74,1.44-9.95-1-13.68-1-11.61-.24-13.89-.24-3.31,2.64-4.76,2.64-12-1.92-15.34-1-19.69-1-20.31-.72-1.45,1-6.21.72-12.65.48-16.58-.24-8.91.24-10.78,0S93.47,76.38,93.47,76.38Z"/>
      <line class="cls-3" x1="78.61" y1="97.78" x2="81.2" y2="75.2"/>
      <line class="cls-3" x1="88.53" y1="75.72" x2="85.26" y2="98.82"/>
      <line class="cls-3" x1="95.85" y1="77.03" x2="91.8" y2="100.52"/>
      <line class="cls-3" x1="101.34" y1="78.06" x2="98.93" y2="100.3"/>
      <line class="cls-3" x1="109.16" y1="78.15" x2="106.52" y2="101.57"/>
      <line class="cls-3" x1="115.29" y1="79.41" x2="113.61" y2="102.81"/>
      <line class="cls-3" x1="121.43" y1="78.71" x2="120.83" y2="101.42"/>
      <line class="cls-3" x1="128.7" y1="78.3" x2="127.57" y2="101.28"/>
      <line class="cls-3" x1="136.95" y1="78.71" x2="135.51" y2="102.53"/>
      <line class="cls-3" x1="144.54" y1="78.57" x2="142.85" y2="102.53"/>
      <line class="cls-3" x1="151.27" y1="78.99" x2="150.07" y2="102.53"/>
      <line class="cls-3" x1="157.53" y1="78.85" x2="157.17" y2="102.53"/>
      <line class="cls-3" x1="165.72" y1="79.27" x2="164.15" y2="102.11"/>
      <line class="cls-3" x1="172.33" y1="78.15" x2="171.37" y2="103.23"/>
      <line class="cls-3" x1="179.55" y1="76.9" x2="178.11" y2="102.81"/>
      <line class="cls-3" x1="186.89" y1="77.18" x2="184.85" y2="102.25"/>
      <line class="cls-3" x1="194.1" y1="77.54" x2="191.83" y2="101.97"/>
      <line class="cls-3" x1="200.85" y1="78.15" x2="198.53" y2="102.29"/>
      <line class="cls-3" x1="208.07" y1="77.87" x2="206.99" y2="100.02"/>
      <line class="cls-3" x1="214.45" y1="76.2" x2="213.49" y2="99.19"/>
      <line class="cls-3" x1="220.23" y1="76.06" x2="220.29" y2="98.7"/>
      <line class="cls-3" x1="223.36" y1="76.06" x2="223.72" y2="97.93"/>
      <path class="cls-3" d="M224.15,80.5c-.83-.72-11.89-1-15.42.66S202.1,82.6,199,82.6s-9.94-1-13.67-1-11.61-.24-13.89-.24S168.12,84,166.67,84s-12-1.91-15.34-1-19.69-.95-20.31-.71-1.45,1-6.22.71-12.64.48-16.57-.24-8.92.24-10.78,0-7.88-1.67-7.88-1.67a112.17,112.17,0,0,0-12.18-1.23"/>
      <path class="cls-3" d="M74,93.7s6.63-1,8.49,0S91.56,98,93.63,96.82s10.57-.72,11.61.24,11,1.2,12.43.48,10.78-1.2,12.64-.24,13.47-.24,14.72.48,11,.72,13.26.48,10.16,1,13.68.72,10.36-1.2,12.64-.72a45.52,45.52,0,0,0,12.64-.48c2.9-.72,6.22-2.64,9.74-2.4s16.13-1.12,19.24-.88"/>
    </g>
    <g class="cls-2">
      <path class="cls-3" d="M82.39,365.78a21.06,21.06,0,0,0-5-1c-1,0-1.83.17-2,.84-.46,2-1.1,18.4-1.1,18.4s2.93-.8,3.75,0,4,3.6,5,2.6,4.67-.6,5.13.2,4.85,1,5.49.4,4.77-1,5.59-.2,6-.2,6.51.4,4.85.61,5.86.41,4.49.8,6,.6,4.58-1,5.58-.6a10.77,10.77,0,0,0,5.59-.41c1.28-.6,2.75-2.2,4.31-2s3.94-1.2,5.31-1,2.56.6,2.84-1.4-1.19-17.4-1.56-18-3.11-.6-4.67.8-2.93,1.2-4.31,1.2-4.39-.8-6-.8-5.13-.2-6.14-.2-1.46,2.2-2.11,2.2-5.31-1.6-6.77-.8-8.71-.8-9-.6-.64.8-2.75.6-5.59.4-7.33-.2-3.94.2-4.76,0A36.7,36.7,0,0,1,82.39,365.78Z"/>
      <line class="cls-3" x1="75.82" y1="383.62" x2="76.96" y2="364.79"/>
      <line class="cls-3" x1="80.2" y1="365.23" x2="78.76" y2="384.49"/>
      <line class="cls-3" x1="83.44" y1="366.31" x2="81.65" y2="385.91"/>
      <line class="cls-3" x1="85.87" y1="367.18" x2="84.8" y2="385.72"/>
      <line class="cls-3" x1="89.32" y1="367.25" x2="88.16" y2="386.78"/>
      <line class="cls-3" x1="92.04" y1="368.3" x2="91.29" y2="387.82"/>
      <line class="cls-3" x1="94.75" y1="367.72" x2="94.48" y2="386.65"/>
      <line class="cls-3" x1="97.96" y1="367.38" x2="97.46" y2="386.54"/>
      <line class="cls-3" x1="101.61" y1="367.72" x2="100.97" y2="387.58"/>
      <line class="cls-3" x1="104.96" y1="367.6" x2="104.22" y2="387.58"/>
      <line class="cls-3" x1="107.94" y1="367.95" x2="107.41" y2="387.58"/>
      <line class="cls-3" x1="110.71" y1="367.83" x2="110.55" y2="387.58"/>
      <line class="cls-3" x1="114.32" y1="368.18" x2="113.63" y2="387.24"/>
      <line class="cls-3" x1="117.25" y1="367.25" x2="116.82" y2="388.16"/>
      <line class="cls-3" x1="120.44" y1="366.21" x2="119.8" y2="387.82"/>
      <line class="cls-3" x1="123.69" y1="366.44" x2="122.78" y2="387.35"/>
      <line class="cls-3" x1="126.87" y1="366.74" x2="125.87" y2="387.12"/>
      <line class="cls-3" x1="129.86" y1="367.25" x2="128.83" y2="387.38"/>
      <line class="cls-3" x1="133.05" y1="367.02" x2="132.57" y2="385.49"/>
      <line class="cls-3" x1="135.87" y1="365.63" x2="135.44" y2="384.8"/>
      <line class="cls-3" x1="138.42" y1="365.51" x2="138.45" y2="384.38"/>
      <line class="cls-3" x1="139.8" y1="365.51" x2="139.96" y2="383.75"/>
      <path class="cls-3" d="M140.15,369.21c-.36-.6-5.25-.85-6.81.55S130.41,371,129,371s-4.39-.8-6-.8-5.13-.2-6.14-.2-1.46,2.2-2.11,2.2-5.31-1.6-6.77-.8-8.71-.8-9-.6-.64.8-2.75.6-5.59.4-7.33-.2-3.94.2-4.76,0a36.7,36.7,0,0,1-3.48-1.4,28.15,28.15,0,0,0-5.39-1"/>
      <path class="cls-3" d="M73.76,380.22s2.93-.8,3.75,0,4,3.6,4.95,2.6,4.67-.6,5.13.2,4.86,1,5.5.4,4.76-1,5.59-.2,5.95-.2,6.5.4,4.85.6,5.86.4,4.49.8,6,.6,4.58-1,5.59-.6a10.83,10.83,0,0,0,5.58-.4c1.29-.6,2.75-2.2,4.31-2s7.13-.93,8.5-.73"/>
    </g>
    <g class="cls-2">
      <path class="cls-3" d="M165.15,375.16a24.76,24.76,0,0,0-5.36-1c-1.1,0-2,.18-2.14.84-.49,2-1.18,18.34-1.18,18.34s3.16-.8,4,0,4.35,3.58,5.33,2.59,5-.6,5.53.2,5.23,1,5.93.39,5.13-1,6-.19,6.41-.2,7,.39,5.23.6,6.31.4,4.84.8,6.52.6,4.93-1,6-.6a12.56,12.56,0,0,0,6-.4c1.38-.59,3-2.19,4.64-2s4.24-1.2,5.73-1,2.76.6,3.06-1.39S227.34,375,227,374.36s-3.36-.6-5,.8-3.16,1.19-4.64,1.19-4.73-.79-6.51-.79-5.53-.2-6.61-.2-1.58,2.19-2.28,2.19-5.72-1.59-7.3-.8-9.38-.79-9.67-.6-.69.8-3,.6-6,.4-7.89-.2-4.25.2-5.14,0S165.15,375.16,165.15,375.16Z"/>
      <line class="cls-3" x1="158.08" y1="392.93" x2="159.31" y2="374.18"/>
      <line class="cls-3" x1="162.8" y1="374.61" x2="161.24" y2="393.8"/>
      <line class="cls-3" x1="166.29" y1="375.69" x2="164.36" y2="395.21"/>
      <line class="cls-3" x1="168.9" y1="376.55" x2="167.76" y2="395.03"/>
      <line class="cls-3" x1="172.63" y1="376.63" x2="171.37" y2="396.09"/>
      <line class="cls-3" x1="175.55" y1="377.67" x2="174.75" y2="397.11"/>
      <line class="cls-3" x1="178.47" y1="377.09" x2="178.19" y2="395.96"/>
      <line class="cls-3" x1="181.93" y1="376.75" x2="181.4" y2="395.84"/>
      <line class="cls-3" x1="185.87" y1="377.09" x2="185.18" y2="396.88"/>
      <line class="cls-3" x1="189.48" y1="376.97" x2="188.68" y2="396.88"/>
      <line class="cls-3" x1="192.69" y1="377.32" x2="192.12" y2="396.88"/>
      <line class="cls-3" x1="195.67" y1="377.21" x2="195.5" y2="396.88"/>
      <line class="cls-3" x1="199.57" y1="377.55" x2="198.82" y2="396.53"/>
      <line class="cls-3" x1="202.72" y1="376.63" x2="202.26" y2="397.46"/>
      <line class="cls-3" x1="206.16" y1="375.59" x2="205.47" y2="397.11"/>
      <line class="cls-3" x1="209.66" y1="375.82" x2="208.68" y2="396.65"/>
      <line class="cls-3" x1="213.09" y1="376.12" x2="212.01" y2="396.42"/>
      <line class="cls-3" x1="216.31" y1="376.63" x2="215.2" y2="396.68"/>
      <line class="cls-3" x1="219.75" y1="376.4" x2="219.23" y2="394.8"/>
      <line class="cls-3" x1="222.78" y1="375.01" x2="222.32" y2="394.1"/>
      <line class="cls-3" x1="225.53" y1="374.89" x2="225.57" y2="393.69"/>
      <line class="cls-3" x1="227.03" y1="374.89" x2="227.2" y2="393.06"/>
      <path class="cls-3" d="M227.4,378.58c-.39-.6-5.66-.85-7.34.54s-3.16,1.2-4.64,1.2-4.74-.8-6.51-.8-5.53-.2-6.62-.2-1.58,2.19-2.27,2.19-5.72-1.59-7.3-.79-9.38-.8-9.68-.6-.69.8-3,.6-6,.4-7.9-.2-4.24.2-5.13,0-3.75-1.4-3.75-1.4a32.81,32.81,0,0,0-5.8-1"/>
      <path class="cls-3" d="M155.86,389.55s3.15-.8,4,0,4.35,3.58,5.33,2.59,5-.6,5.53.2,5.23,1,5.92.4,5.14-1,6-.2,6.41-.2,7,.39,5.24.6,6.32.4,4.84.8,6.52.6,4.93-1,6-.6a12.57,12.57,0,0,0,6-.4c1.38-.59,3-2.19,4.64-2s7.68-.93,9.16-.73"/>
    </g>
    <g class="cls-2">
      <path class="cls-3" d="M128.65,496a13.91,13.91,0,0,1,4-.49c.79.08,1.39.36,1.42,1,.1,2-1.52,17.91-1.52,17.91s-2.16-1.07-2.9-.38-3.58,3.06-4.16,2-3.53-1.06-4-.33-3.88.47-4.3-.18-3.55-1.46-4.29-.77-4.58-.81-5.08-.28-3.82.08-4.58-.22-3.57.31-4.74,0-3.41-1.44-4.24-1.16a6.84,6.84,0,0,1-4.27-1c-.91-.71-1.84-2.41-3.07-2.38s-2.88-1.56-4-1.51-2.06.31-2-1.65a172.49,172.49,0,0,1,3.52-17.25c.36-.55,2.48-.26,3.51,1.25s2.11,1.46,3.17,1.6,3.5-.32,4.77-.15,4,.34,4.77.44.84,2.28,1.34,2.35,4.31-1,5.34-.08,6.82.12,7,.34.39.84,2,.87,4.26,1,5.68.56,3,.6,3.68.49A26.48,26.48,0,0,0,128.65,496Z"/>
      <line class="cls-3" x1="131.42" y1="513.92" x2="132.97" y2="495.59"/>
      <line class="cls-3" x1="130.41" y1="495.68" x2="129.04" y2="514.46"/>
      <line class="cls-3" x1="127.77" y1="496.39" x2="126.63" y2="515.53"/>
      <line class="cls-3" x1="125.78" y1="496.98" x2="124.21" y2="515.03"/>
      <line class="cls-3" x1="123.1" y1="496.7" x2="121.49" y2="515.71"/>
      <line class="cls-3" x1="120.87" y1="497.43" x2="118.93" y2="516.38"/>
      <line class="cls-3" x1="118.85" y1="496.59" x2="116.62" y2="514.93"/>
      <line class="cls-3" x1="116.42" y1="495.93" x2="114.33" y2="514.51"/>
      <line class="cls-3" x1="113.55" y1="495.88" x2="111.48" y2="515.16"/>
      <line class="cls-3" x1="110.98" y1="495.42" x2="108.98" y2="514.83"/>
      <line class="cls-3" x1="108.63" y1="495.45" x2="106.51" y2="514.5"/>
      <line class="cls-3" x1="106.51" y1="495.06" x2="104.09" y2="514.18"/>
      <line class="cls-3" x1="103.67" y1="495.02" x2="101.75" y2="513.52"/>
      <line class="cls-3" x1="101.53" y1="493.82" x2="99.17" y2="514.09"/>
      <line class="cls-3" x1="99.2" y1="492.48" x2="96.91" y2="513.45"/>
      <line class="cls-3" x1="96.67" y1="492.37" x2="94.67" y2="512.69"/>
      <line class="cls-3" x1="94.17" y1="492.33" x2="92.32" y2="512.15"/>
      <line class="cls-3" x1="91.8" y1="492.52" x2="89.99" y2="512.1"/>
      <line class="cls-3" x1="89.36" y1="491.97" x2="87.35" y2="509.89"/>
      <line class="cls-3" x1="87.36" y1="490.33" x2="85.22" y2="508.92"/>
      <line class="cls-3" x1="85.4" y1="489.96" x2="82.95" y2="508.21"/>
      <line class="cls-3" x1="84.34" y1="489.81" x2="81.86" y2="507.44"/>
      <path class="cls-3" d="M83.59,493.36c.36-.54,4.17-.29,5.19,1.23s2.11,1.46,3.17,1.6,3.5-.32,4.78-.15,4,.33,4.76.44.85,2.28,1.35,2.34,4.31-1,5.33-.07,6.83.12,7,.34.39.84,2,.86,4.27,1,5.69.57,3,.59,3.68.49a26.48,26.48,0,0,0,2.87-1,17.85,17.85,0,0,1,4.29-.44"/>
      <path class="cls-3" d="M133.45,510.84s-2.16-1.08-2.9-.39-3.57,3.07-4.15,2-3.53-1.06-4-.33-3.88.46-4.3-.18-3.55-1.46-4.29-.77-4.57-.81-5.07-.28-3.83.08-4.58-.22-3.57.31-4.75,0-3.41-1.44-4.24-1.16a6.87,6.87,0,0,1-4.26-1c-.92-.71-1.84-2.41-3.07-2.38s-5.39-1.64-6.48-1.58"/>
    </g>
    <g class="cls-2">
      <path class="cls-3" d="M167.8,493.07a14.27,14.27,0,0,0-4.18-1.16c-.86,0-1.54.19-1.67.93-.38,2.24-.92,20.6-.92,20.6s2.46-.9,3.15,0,3.39,4,4.15,2.91,3.92-.67,4.31.22,4.07,1.12,4.61.45,4-1.12,4.69-.22,5-.23,5.46.45,4.07.67,4.92.44,3.76.9,5.07.68,3.84-1.12,4.69-.68a7,7,0,0,0,4.69-.44c1.07-.68,2.3-2.47,3.61-2.24s3.31-1.35,4.46-1.12,2.15.67,2.38-1.57-1-19.48-1.3-20.15-2.62-.67-3.92.9-2.46,1.34-3.62,1.34-3.69-.9-5.07-.9-4.31-.22-5.15-.22-1.23,2.46-1.77,2.46-4.46-1.79-5.69-.89-7.3-.9-7.53-.67-.54.89-2.31.67-4.69.45-6.15-.23-3.3.23-4,0A27.17,27.17,0,0,1,167.8,493.07Z"/>
      <line class="cls-3" x1="162.28" y1="513.03" x2="163.25" y2="491.96"/>
      <line class="cls-3" x1="165.96" y1="492.45" x2="164.75" y2="514.01"/>
      <line class="cls-3" x1="168.68" y1="493.67" x2="167.18" y2="515.59"/>
      <line class="cls-3" x1="170.72" y1="494.63" x2="169.82" y2="515.39"/>
      <line class="cls-3" x1="173.62" y1="494.72" x2="172.64" y2="516.57"/>
      <line class="cls-3" x1="175.89" y1="495.89" x2="175.27" y2="517.73"/>
      <line class="cls-3" x1="178.17" y1="495.24" x2="177.95" y2="516.43"/>
      <line class="cls-3" x1="180.86" y1="494.86" x2="180.45" y2="516.3"/>
      <line class="cls-3" x1="183.93" y1="495.24" x2="183.39" y2="517.47"/>
      <line class="cls-3" x1="186.74" y1="495.11" x2="186.11" y2="517.47"/>
      <line class="cls-3" x1="189.24" y1="495.5" x2="188.79" y2="517.47"/>
      <line class="cls-3" x1="191.56" y1="495.37" x2="191.43" y2="517.47"/>
      <line class="cls-3" x1="194.6" y1="495.76" x2="194.02" y2="517.08"/>
      <line class="cls-3" x1="197.05" y1="494.72" x2="196.69" y2="518.12"/>
      <line class="cls-3" x1="199.73" y1="493.55" x2="199.19" y2="517.73"/>
      <line class="cls-3" x1="202.45" y1="493.81" x2="201.69" y2="517.21"/>
      <line class="cls-3" x1="205.12" y1="494.14" x2="204.28" y2="516.95"/>
      <line class="cls-3" x1="207.63" y1="494.72" x2="206.77" y2="517.25"/>
      <line class="cls-3" x1="210.31" y1="494.46" x2="209.91" y2="515.13"/>
      <line class="cls-3" x1="212.67" y1="492.9" x2="212.32" y2="514.35"/>
      <line class="cls-3" x1="214.82" y1="492.77" x2="214.84" y2="513.89"/>
      <line class="cls-3" x1="215.98" y1="492.77" x2="216.11" y2="513.18"/>
      <path class="cls-3" d="M216.27,496.91c-.31-.67-4.41-1-5.72.61s-2.46,1.34-3.61,1.34-3.69-.89-5.07-.89-4.31-.23-5.15-.23-1.23,2.47-1.77,2.47-4.46-1.79-5.69-.9-7.3-.89-7.53-.67-.54.9-2.31.67-4.69.45-6.15-.22-3.3.22-4,0a28.75,28.75,0,0,1-2.92-1.57,18.31,18.31,0,0,0-4.52-1.15"/>
      <path class="cls-3" d="M160.56,509.23s2.46-.9,3.15,0,3.38,4,4.15,2.91,3.92-.67,4.3.22,4.08,1.12,4.62.45,4-1.12,4.68-.22,5-.23,5.46.44,4.08.68,4.92.45,3.77.9,5.07.67,3.85-1.12,4.69-.67a6.89,6.89,0,0,0,4.69-.45c1.08-.67,2.31-2.46,3.62-2.23s6-1.05,7.13-.82"/>
    </g>
    <path class="cls-4" d="M78,71.54S78.11,87.9,74.66,93s-5.54,8.37-5.54,8.37"/>
    <path class="cls-3" d="M107.38,75.22s-11.48-1.55-12.31-.84.71,24.52,3.58,28.46l.6,1.49h13.28s1.07-6.87-.84-10.93S103.68,77.73,107.38,75.22Z"/>
    <path class="cls-3" d="M205.68,77s5.74-5.5,5,5.86a99.92,99.92,0,0,1-3.94,21.46l12.83,2.46s3.67-13.51,2.47-20.93l-1.19-7.41S206.76,71.51,205.68,77Z"/>
    <path class="cls-3" d="M150.67,150,147.24,29.54h15.42S169.59,146.1,164.93,149,150.67,150,150.67,150Z"/>
    <g>
      <path class="cls-5" d="M216.81,25l2.78,17.7s-20.48-1.39-21.87-1.74-12.49-1.73-14.57-1.73,6.59-3.82,6.59-8.68,2.08-5.2-3.12-5.55-6.94,1-11.11,3.47-7.63,8-7.63,8,0,6.25-4.51,6.25-11.46,1-11.8,5.2-10.07,24-9.37,28.81,4.86,89.53,3.81,91.27-18.39,2.77-18.39,0-1.73-14.58,0-22.56S137,98.18,137,95.06s1-41.3,1.74-43.38c0,0,.2-13.7,4.87-17.17s7.18-6.41,10.55-3.57,4.2,3.89,6.3,3.57,4.41,2.11,4.41,2.11a70.72,70.72,0,0,1,6.38,13.24c2.23,6.71,7,14.62,7.73,24.08s-2.58,31.64-2.58,34.39-1,11,0,19.61,3.1,26,4.13,28.89,7.87,17.31,8.56,19,3.89,3.88,3.89,5.43-14.28,3.25-17.55,2-8.66-4.66-8.31-19.11a312.21,312.21,0,0,1,4.13-40.58c1.2-5.85,3.26-14.45.85-24.94s-11.17-38.17-18.4-46.43-1.2-23.39,1.55-24.25,5.2-.94,8-2.49,3.11,1.6,6.95,1.89,9.42,4.86,10.44,7.1,7.55-10.87,9.76-10.47,12.88-2.21,17.71-1S216.81,25,216.81,25Z"/>
      <path class="cls-5" d="M86.18,40.73c-2.23-.67.47-15.82,2.7-17.12s27.45-2.6,40.29-.88,36,5.44,36,5.44l12.68,1.15,10.79-4.17,3,.23-1.95,12.93s-31.4,4.65-56,2.79S88,41.29,86.18,40.73Z"/>
    </g>
    <path class="cls-3" d="M126.85,20.58H116.33s-3,22,0,25.17l9.2-.94S122.91,23.21,126.85,20.58Z"/>
    <path class="cls-3" d="M187.45,23.75s6.22-8.14,6,3.66c0,0-4.85,13.09-6,14.13s-.18,4.43,7.32,4a60.93,60.93,0,0,0,4.11-9.14c1-3.48,2.47-10.7,1.65-12.71S189.29,18.37,187.45,23.75Z"/>
    <path class="cls-6" d="M221,333.37s-18.93,84.57,2.14,4"/>
    <path class="cls-6" d="M138.71,325.8s-18.93,84.57,2.13,4"/>
    <path class="cls-6" d="M85.12,326.72s18.93,84.57-2.13,4"/>
    <path class="cls-6" d="M165.49,336.07s18.93,84.57-2.14,4"/>
    <g>
      <path class="cls-6" d="M80.56,144.33s6.5-29-.73-1.36"/>
      <path class="cls-6" d="M73.64,143.81s-5.13-48.2-2.41-.84"/>
      <path class="cls-6" d="M83.49,145.27s6-19.8,8.81-22.53"/>
    </g>
    <g>
      <path class="cls-6" d="M113.64,148.24s6.5-29-.73-1.37"/>
      <path class="cls-6" d="M106.73,147.71s-5.14-48.2-2.41-.84"/>
      <path class="cls-6" d="M116.58,149.18s6-19.81,8.8-22.53"/>
    </g>
    <g>
      <path class="cls-6" d="M91.19,73.78s6.5-29-.73-1.36"/>
      <path class="cls-6" d="M84.28,73.25s-5.14-48.2-2.41-.83"/>
      <path class="cls-6" d="M94.13,74.72s6-19.8,8.8-22.53"/>
    </g>
    <g>
      <path class="cls-6" d="M126.28,77.68s6.5-29-.73-1.36"/>
      <path class="cls-6" d="M119.36,77.16S114.23,29,117,76.32"/>
      <path class="cls-6" d="M129.21,78.63s6-19.81,8.81-22.53"/>
    </g>
    <g>
      <path class="cls-6" d="M226.44,145.41s-5.67-29.19.77-1.34"/>
      <path class="cls-6" d="M233.36,145.09s6.51-48,2.44-.77"/>
      <path class="cls-6" d="M223.48,146.27s-5.41-20-8.16-22.77"/>
    </g>
    <g>
      <path class="cls-6" d="M192.3,145.41s-5.67-29.19.77-1.34"/>
      <path class="cls-6" d="M199.22,145.09s6.51-48,2.44-.77"/>
      <path class="cls-6" d="M189.34,146.27s-5.41-20-8.16-22.77"/>
    </g>
    <g>
      <path class="cls-6" d="M215.14,75.65s-4.83-32.76.7-1.51"/>
      <path class="cls-6" d="M221.3,75.24s6.1-54,2.16-.88"/>
      <path class="cls-6" d="M212.51,76.63s-4.67-22.39-7.09-25.52"/>
    </g>
    <g>
      <path class="cls-6" d="M184.82,75.88s-4.83-32.76.7-1.51"/>
      <path class="cls-6" d="M191,75.47s6.1-54,2.16-.88"/>
      <path class="cls-6" d="M182.19,76.86s-4.67-22.39-7.09-25.52"/>
    </g>
    <path class="cls-6" d="M94,184.3s-18.93,84.57,2.14,4"/>
    <path class="cls-6" d="M114.16,185.83s15,140.44,7,2.44"/>
    <path class="cls-6" d="M85.47,181.56s-17.41,57.7-25.65,65.64"/>
    <path class="cls-6" d="M210.33,186.44s18.93,84.57-2.14,4"/>
    <path class="cls-6" d="M190.18,188s-15,140.44-7,2.44"/>
    <path class="cls-6" d="M218.88,183.69s17.4,57.71,25.65,65.64"/>
    <path class="cls-6" d="M128.85,457.3s-37.08,85.12,11.8-8.43"/>
    <path class="cls-6" d="M217.88,453.45s-37.08,85.13,11.8-8.42"/>
    <path class="cls-6" d="M167.49,460.84s37.09,85.12-11.8-8.43"/>
    <path class="cls-6" d="M91.2,453.45s37.08,85.13-11.8-8.42"/>
    <path class="cls-5" d="M26.83,143.58a13.39,13.39,0,0,1-2.61.09l-.6,0c.85.12,1,.14.58.06s-.91-.21-1.36-.34a6,6,0,1,0-3.17,11.48,18.08,18.08,0,0,0,7.16.67A6.52,6.52,0,0,0,31,153.74a5.94,5.94,0,0,0,0-8.42,5.72,5.72,0,0,0-4.21-1.74Z"/>
    <path class="cls-5" d="M19.33,155.84c3.91,2.23,9.55,1.34,13.88,1.36,5.53,0,11.56.32,17-.8,3.31-.68,6.76-3.06,6.44-6.88-.34-4-4.2-5.37-7.59-5.84a122.8,122.8,0,0,0-19.26-1.1c-2.89.07-5.56,1.51-4.77,4.91.83,3.57,4.81,4.81,8,5.33a116.54,116.54,0,0,0,17.71,1.12c3.83,0,3.84-5.92,0-6a107.75,107.75,0,0,1-16-.89c-2.41-.38-3.07-1.39-4.84.24-2.32,2.14,1.18,1.22,2.83,1.27,3,.08,6,.23,8.94.42,1.33.09,2.65.18,4,.3,1,.08,5.27-.21,2.42,1.38-1.74,1-6.47.43-8.37.48-2.8.08-5.6.08-8.39,0-2.54,0-6.77.75-9-.53-3.33-1.89-6.34,3.25-3,5.14Z"/>
    <path class="cls-5" d="M17.29,143.82a1.63,1.63,0,0,1-.31,0l.79.11-.31-.08c.44.2.55.25.35.14s-.1,0,.28.23a1.15,1.15,0,0,1-.21-.23,3,3,0,0,0-3.61-.46,3.11,3.11,0,0,0-1.37,3.36,6.36,6.36,0,0,0,2.84,3.94,3,3,0,0,0,3.31-.24,3.05,3.05,0,0,0,1.06-3.12l0-.13.11.79a.77.77,0,0,1,0-.26l-.11.79c0-.15.16-.5,0,0-.12.25-.14.31-.07.18s0-.09-.27.33c.27-.27-.28.19-.31.21.38-.27-.68.21-.22.12a3,3,0,0,0,2.08-3.67,3,3,0,0,0-3.66-2.07,4.26,4.26,0,0,0-2.69,2,4.59,4.59,0,0,0-.52,3.36l4.37-3.36c-.43-.28.59.48,0,0-.39-.34.35.58.07.1-.07-.13-.14-.28-.22-.41.19.47.23.56.13.26,0-.1-.05-.2-.07-.3l-5,2.89a5,5,0,0,0,3.62,1.6,3,3,0,0,0,3-3,3,3,0,0,0-3-3Z"/>
    <path class="cls-5" d="M54.88,154.41c3.83,0,3.83-5.95,0-5.95s-3.84,5.95,0,5.95Z"/>
    <path class="cls-5" d="M53.62,155.13c3.83,0,3.83-5.95,0-5.95s-3.84,5.95,0,5.95Z"/>
    <path class="cls-5" d="M59.2,152.06c-.19-.16-.37-.31-.55-.48l-.17-.15a.14.14,0,0,1,0,.06,1.32,1.32,0,0,1-.07.65l-1.28.74h.13l-.75-.2a7.63,7.63,0,0,1,1.58,1.53,1.53,1.53,0,0,0,2,.53,1.51,1.51,0,0,0,.54-2,13.26,13.26,0,0,0-1.4-1.6,3.27,3.27,0,0,0-2.13-1.19,1.83,1.83,0,0,0-1.52,2.42,4.27,4.27,0,0,0,1.46,1.85,1.55,1.55,0,0,0,2.11,0,1.51,1.51,0,0,0,0-2.11Z"/>
    <path class="cls-5" d="M56.09,155.24a1.49,1.49,0,0,0,0-3,1.49,1.49,0,0,0,0,3Z"/>
    <path class="cls-5" d="M59.48,155.19a1.49,1.49,0,0,0,0-3,1.49,1.49,0,0,0,0,3Z"/>
    <path class="cls-5" d="M59.62,155.26a1.49,1.49,0,0,0,0-3,1.49,1.49,0,0,0,0,3Z"/>
    <path class="cls-5" d="M59.87,155.34a1.49,1.49,0,0,0,0-3,1.49,1.49,0,0,0,0,3Z"/>
    <path class="cls-5" d="M60.1,155.35a1.49,1.49,0,0,0,0-3,1.49,1.49,0,0,0,0,3Z"/>
    <path class="cls-5" d="M60.37,155.44a1.49,1.49,0,0,0,0-3,1.49,1.49,0,0,0,0,3Z"/>
    <path class="cls-5" d="M60.69,155.55a1.49,1.49,0,0,0,0-3,1.49,1.49,0,0,0,0,3Z"/>
    <path class="cls-5" d="M70.28,474.91c-1.27,1.58-2.49,3.2-3.61,4.89l8.16,3.44a11,11,0,0,0-.15-4.7,4.52,4.52,0,0,0-8.16-1.07,81.41,81.41,0,0,0-5.43,11.15c-.9,2.24,1,4.91,3.12,5.49,2.55.7,4.59-.87,5.49-3.11a66.13,66.13,0,0,1,4.53-9l-8.16-1.07.15,0c-.67,4.85,5.19,7.92,8.16,3.44.7-1.06,1.42-2.09,2.22-3.08,1.51-1.88,1.83-4.48,0-6.32-1.57-1.56-4.79-1.88-6.32,0Z"/>
    <line class="cls-6" x1="77.4" y1="465.85" x2="78.58" y2="489.92"/>
    <path class="cls-5" d="M58.55,495.75c-.13-.68.48-1.21-.39-.51l10.16,4.21v-.68l-.81,3,.31-.6L57,499.76l.15.74v-3.16c-.37,1.76-1.73,3.89-2.59,5.65a6.11,6.11,0,0,0,2.13,8.15c2.62,1.53,6.73.77,8.15-2.14,1.94-4,4.6-7.82,3.64-12.41-1-4.92-8.6-5.89-10.88-1.42a9.15,9.15,0,0,0-1.14,4.28,6,6,0,0,0,3.66,5.44c2.4,1,4.54.33,6.51-1.23,3.36-2.68,4.27-7,3.45-11.07-.63-3.15-4.37-5-7.32-4.16a6.07,6.07,0,0,0-4.16,7.32Z"/>
    <path class="cls-5" d="M62.26,510.17a12.28,12.28,0,0,1-.47-2.06L62,509.3c0-.28-.06-.56-.08-.85a4.74,4.74,0,0,0-1.31-3.15,4.45,4.45,0,0,0-6.31,0,4.39,4.39,0,0,0-1.31,3.15,17.19,17.19,0,0,0,.71,4.09,4.68,4.68,0,0,0,2.05,2.67,4.47,4.47,0,0,0,6.56-5Z"/>
    <path class="cls-5" d="M61.48,512.06a5.59,5.59,0,0,0-2.62-3.36l2.06,5-.21.29-8.32-2.25c0,.55,0,.61,0,.17-.19.51-.2.59,0,.26-.29.81-.72,1.56-1,2.38a9.91,9.91,0,0,0-.47,1.61c-.16.5-.15.51.06,0s.34-.39,0,0c-1.87,1.52-1.58,4.73,0,6.31,1.85,1.86,4.44,1.53,6.31,0,1.57-1.27,2.09-3.24,2.59-5.09.18-.64,0-.12.17-.48.24-.58.51-1.14.74-1.72a9.13,9.13,0,0,0,.61-3.43c-.09-4.19-6.27-6.39-8.32-2.26a6.28,6.28,0,0,0-.69,1.85c-.29,2,.18,4,2,5l-.44-.3-1.14-2,.09.29a4.57,4.57,0,0,0,5.5,3.12,4.5,4.5,0,0,0,3.11-5.49Z"/>
    <path class="cls-5" d="M60.5,522.06a9.17,9.17,0,0,0,2.71-5.43l-8.77-1.19,0,.6c-1,4.7,5.74,8.2,8.16,3.44,2.14-4.19,4.05-8.49,5.8-12.86.9-2.24-1-4.91-3.12-5.5-2.54-.69-4.59.87-5.49,3.12-1.46,3.66-3.11,7.23-4.9,10.74l8.16,3.44a11.09,11.09,0,0,0,.29-3c-.27-4.72-7.86-6.42-8.77-1.18a4.11,4.11,0,0,1-.41,1.48c-4.22,3.92,2.1,10.23,6.31,6.32Z"/>
    <path class="cls-5" d="M68.3,507c.66-1.49,1.36-2.89,2.16-4.31l-8.16-3.44-1.14,2.85c-1.92,4.8,5.65,7.67,8.16,3.44a96.44,96.44,0,0,0,6-12.13l-8.61-2.38-.65,2.21c-1.38,4.75,5.92,8.08,8.17,3.44,1.46-3,3.56-5.07,4-8.51a31.79,31.79,0,0,0-.42-10.74c-1.26-5.6-9.87-3.23-8.61,2.38.43,1.89.67,6,.07,7.94-.45,1.44-2.06,3-2.76,4.42l8.16,3.44.64-2.2c1.66-5.69-6.46-7.5-8.61-2.38a81.38,81.38,0,0,1-5.13,10l8.16,3.44,1.14-2.85c1.89-4.76-5.73-7.77-8.16-3.45-.8,1.42-1.5,2.82-2.16,4.31-2.3,5.21,5.39,9.76,7.71,4.51Z"/>
    <path class="cls-5" d="M72.71,476.67a4.37,4.37,0,0,1,.59-2.74,1.49,1.49,0,0,0-.39-1.92,1.52,1.52,0,0,0-2,.11,18.94,18.94,0,0,0-2.86,2.94,1.53,1.53,0,0,0,0,2.1,1.5,1.5,0,0,0,2.11,0,18,18,0,0,1,2.86-2.93l-2.34-1.8a7.22,7.22,0,0,0-1,4.24,1.53,1.53,0,0,0,1.49,1.48,1.5,1.5,0,0,0,1.49-1.48Z"/>
    <path class="cls-5" d="M70.45,478c.63-1.46,1.82-2.52,2.41-4,.68-1.71,1.16-3,2.86-4a1.49,1.49,0,0,0-1.51-2.57,8.06,8.06,0,0,0-3.57,3.94A12.13,12.13,0,0,1,69.43,474a13,13,0,0,0-1.55,2.45c-.76,1.74,1.81,3.25,2.57,1.5Z"/>
    <path class="cls-5" d="M74.56,467.91l-.24,2.45a1.51,1.51,0,0,0,1.49,1.49,1.53,1.53,0,0,0,1.49-1.49l.24-2.45a1.5,1.5,0,0,0-1.49-1.49,1.52,1.52,0,0,0-1.49,1.49Z"/>
    <path class="cls-5" d="M74.18,470.94a13.17,13.17,0,0,0,.61,4.91c.5,1.52,3.06,1.36,2.93-.39-.09-1.21-.15-2.43-.28-3.64a1.81,1.81,0,0,0-2.16-1.73,3.47,3.47,0,0,0-2.48,1.39c-.62,1-.41,2.45-.43,3.55-.05,1.92,2.93,1.92,3,0l0-1c0-.22.11-.66,0-.83s0-.2-.19,0c.13-.11.8-.09.2-.18l-.65-.38.11.09-.38-.65a24,24,0,0,1,.26,3.41l2.92-.4a10.65,10.65,0,0,1-.5-4.12c.13-1.91-2.85-1.9-3,0Z"/>
    <path class="cls-5" d="M50.18,522.09a1.49,1.49,0,0,0,0-3,1.49,1.49,0,0,0,0,3Z"/>
    <path class="cls-5" d="M54.46,524.25a38.81,38.81,0,0,1,4.85,1.61,1.89,1.89,0,0,0,2.59-1.16,10.67,10.67,0,0,0-.43-9.37,1.49,1.49,0,0,0-2.57,1.5,6.64,6.64,0,0,1,.92,3.71,10.17,10.17,0,0,1-.39,2.05l-.17.6c-.23.69-.25.8-.08.33l1.44-.38c-1.82-.41-3.5-1.37-5.37-1.76s-2.67,2.48-.79,2.87Z"/>
    <path class="cls-5" d="M81.91,511.76l1.94.33L85,509.37a12.85,12.85,0,0,1-2.85-.8,1.52,1.52,0,0,0-1.84,1,69.8,69.8,0,0,1-7,14c-1,1.61,1.52,3.1,2.57,1.5a72.42,72.42,0,0,0,7.33-14.68l-1.83,1a13.09,13.09,0,0,0,2.86.8c1.51.26,2.82-2,1.14-2.72a7.86,7.86,0,0,0-3.44-.74,1.49,1.49,0,0,0,0,3Z"/>
    <path class="cls-5" d="M75.83,519.05c-4.22,6.13-9,12.93-10.36,20.38-1.27,6.77-.09,13.62,1.08,20.31.33,1.88,3.2,1.08,2.87-.79-1.17-6.69-2.41-13.67-.71-20.39,1.63-6.48,5.94-12.56,9.69-18,1.08-1.58-1.49-3.07-2.57-1.5Z"/>
    <path class="cls-5" d="M65,539.05c.12,2.35-1.67,4.69-2.06,7a12.67,12.67,0,0,0,.15,5.31,46.3,46.3,0,0,0,6.35,13.07c1.07,1.57,3.65.09,2.57-1.5a38.69,38.69,0,0,1-5.82-12.23c-1-4.38,2-7.49,1.78-11.68-.09-1.91-3.07-1.92-3,0Z"/>
    <path class="cls-5" d="M63.14,552.43c2.75,4.06,2.32,9.31,5.52,13.09,1.24,1.47,3.34-.65,2.11-2.1-1.64-1.93-1.91-4.48-2.48-6.85a16.63,16.63,0,0,0-2.58-5.64c-1.06-1.58-3.64-.1-2.57,1.5Z"/>
    <path class="cls-5" d="M62.55,552.6c2.18,7.65,4.53,16,10.93,21.26A1.52,1.52,0,0,0,76,573.2c1-2.54,3.17-6.5,2.67-9.28-.29-1.63-2.65-5.84-4.38-6.44-4.43-1.55-6.94,6.65-6.88,9.54a1.5,1.5,0,0,0,2.24,1.29c1.09-.75,4.1-3.85,2.48-4.68-1.95-1-2.71,3.5-2.75,4.72a1.49,1.49,0,0,0,1.48,1.49c1.44-.11,2-.87,2.81-2,.32-.45,2.6-3.83-.49-1.33-.8.64-1.15,2.44-1.32,3.41-.27,1.52,2,2.8,2.72,1.15a6.94,6.94,0,0,0,.83-3.27c.12-1.91-2.86-1.91-3,0L72,569.56l2.72,1.15c.33-1.86,3.74-6.24.84-7.72a2.28,2.28,0,0,0-2.22.14c-.74.45-2,3.69-2.49,3.73l1.49,1.49c.06-1.78,6-7,1.71-8.71-3.49-1.36-4.17,4.9-5.91,6.1L70.36,567c0-1.45.22-4.74,1.77-5.43s3.1,1.15,3.4,2.6c.45,2.23-1.64,6.12-2.43,8.22l2.49-.66c-6-4.93-8.12-12.75-10.17-20a1.49,1.49,0,0,0-2.87.8Z"/>
    <path class="cls-5" d="M73.48,527c-4.07,5.72-7,10.3-7.11,17.47-.09,4.92-1,12.73,2.54,16.77a1.45,1.45,0,0,0,1.44.38c3.35-1,3.69-3.65,3-6.47a30.64,30.64,0,0,1,1.9-20.69c.79-1.73-1.78-3.24-2.57-1.5a34.92,34.92,0,0,0-3.24,11.76,32.41,32.41,0,0,0,.15,6.75c.07.55,1.42,5.27,1.22,5.5-.66.75-1.36-5.36-1.38-6.1-.06-2.39-.1-4.82,0-7.21.21-6.21,3.22-10.29,6.68-15.16,1.12-1.57-1.46-3.05-2.57-1.5Z"/>
    <path class="cls-5" d="M75.33,533c0-.26.51-1.06.64-1.37a4.76,4.76,0,0,0,.31-.87c0-.24.07-.48.1-.72s.05-.31-.06,0c1.73-.81.22-3.38-1.51-2.57a2.35,2.35,0,0,0-1.19,1.36c-.18.52-.13,1.08-.33,1.59-.47,1.25-1,2-.83,3.41a1.49,1.49,0,0,0,1.83,1,1.52,1.52,0,0,0,1-1.83Z"/>
    <path class="cls-5" d="M69.3,536.39c-1,4.23-.66,8.4-.68,12.71,0,3.4-.74,6.66,1.35,9.61,1.09,1.55,3.67.07,2.57-1.5-1.87-2.64-.92-6.53-1-9.57,0-3.55-.21-7,.59-10.46.42-1.87-2.45-2.66-2.87-.79Z"/>
    <path class="cls-5" d="M76.67,527.61a4.41,4.41,0,0,1,.91-1.79l-2.77-.76-.39,1.78,2.92.39c.21-1.59,1.59-3.11,2.32-4.52.48-.92.87-1.88,1.28-2.83.29-.67,2.28-6.47,3.31-6.4L83,511.24a63,63,0,0,1-5.7,9.32c-1.13,1.54,1.45,3,2.58,1.5a64.22,64.22,0,0,0,5.69-9.31,1.51,1.51,0,0,0-1.29-2.24c-3-.22-4.34,4.29-5.27,6.43a48.21,48.21,0,0,1-2.6,5.54,11.42,11.42,0,0,0-2,4.75c-.23,1.71,2.46,1.95,2.92.4a12.43,12.43,0,0,0,.5-2.57c.18-1.61-2-1.81-2.78-.75a8.69,8.69,0,0,0-1.21,2.51c-.58,1.83,2.3,2.62,2.87.79Z"/>
    <path class="cls-7" d="M217.18,495s4.63,22.41-2.84,21"/>
    <path class="cls-5" d="M224.16,528.17a17.78,17.78,0,0,0-.09-3.42,6.63,6.63,0,0,0-1.74-4.21,6,6,0,0,0-8.42,0,5.78,5.78,0,0,0-1.75,4.21,17.78,17.78,0,0,1,.09,3.42,6,6,0,0,0,10.16,4.21,6.57,6.57,0,0,0,1.75-4.21Z"/>
    <path class="cls-5" d="M211.32,523.33c-3.26,7.26-3.51,13.49-.22,20.87.78,1.75,3.35.24,2.57-1.5-2.8-6.29-2.56-11.67.22-17.87.78-1.73-1.79-3.25-2.57-1.5Z"/>
    <path class="cls-5" d="M210,541.58c.81,7.06,1.8,14.06,5.34,20.34a1.49,1.49,0,0,0,2.57-1.51c-3.28-5.81-4.19-12.29-4.93-18.83-.22-1.88-3.2-1.9-3,0Z"/>
    <path class="cls-5" d="M216.78,562.77l3.26,3.84,1.05-2.54a.75.75,0,0,1-.44-.38L218.84,566a3.62,3.62,0,0,1,1.95,1.84,1.53,1.53,0,0,0,1.83,1,1.5,1.5,0,0,0,1-1.83,6.53,6.53,0,0,0-3.31-3.62,1.5,1.5,0,0,0-1.81,2.34,3.74,3.74,0,0,0,2.55,1.25c1.42.18,1.79-1.68,1.06-2.54l-3.26-3.84c-1.25-1.46-3.34.65-2.11,2.1Z"/>
    <path class="cls-5" d="M219.62,560.37a31.69,31.69,0,0,1,.89-16.67l-2.92-.4,0,.7c-.08,1.65,2.61,2.06,2.93.4q1.23-6.48,2.53-12.95l-2.72.35c.68,1.42-1.69,3.09-2.29,4.16a11.32,11.32,0,0,0-1.07,4,88.1,88.1,0,0,0-.92,12.78,1.49,1.49,0,0,0,3,0c0-2.55.09-5.09.31-7.64.35-3.92.72-6.17,2.82-9.47,1.22-1.93,1.78-3.14.74-5.32a1.5,1.5,0,0,0-2.72.35q-1.3,6.48-2.53,13l2.92.39,0-.7c.09-1.73-2.42-1.94-2.92-.39a34.81,34.81,0,0,0-.89,18.25c.39,1.88,3.26,1.08,2.87-.79Z"/>
    <path class="cls-5" d="M215.73,529c-.49,3.6-1.28,8.27.63,11.58a1.49,1.49,0,0,0,2.57-1.51c-1.42-2.46-.7-6.59-.33-9.28.25-1.87-2.62-2.68-2.87-.79Z"/>
    <path class="cls-5" d="M217.13,534.42c-4.21,6.89-3.67,14.49-2.74,22.22h3l-3.24-26.78c-.22-1.84-3-2-3,0,.08,4.28-1.2,8.17.71,12.17a1.5,1.5,0,0,0,2.72-.35l1.67-8.92-2.93-.4a44.38,44.38,0,0,1,.29,7.29c-.08,1.92,2.9,1.91,3,0a44.38,44.38,0,0,0-.29-7.29c-.18-1.5-2.59-2.2-2.92-.4l-1.67,8.93,2.72-.36c-1.56-3.26-.24-7.22-.31-10.67h-3l3.23,26.78c.23,1.88,3.21,1.9,3,0-.86-7.13-1.58-14.32,2.33-20.72,1-1.63-1.57-3.13-2.57-1.5Z"/>
    <path class="cls-5" d="M218.71,565.23a1.49,1.49,0,0,0,0-3,1.49,1.49,0,0,0,0,3Z"/>
    <path class="cls-5" d="M220.76,567.85a1.49,1.49,0,0,0,0-3,1.49,1.49,0,0,0,0,3Z"/>
    <path class="cls-5" d="M231.42,571.47c3.14-1.17,5.93-.09,8.58,1.71v-2.57c-.49.22-2.47-.83-3-1a30.92,30.92,0,0,0-3.69-.75c-1.87-.31-2.68,2.56-.79,2.87a28.1,28.1,0,0,1,5.57,1.42,4,4,0,0,0,3.42,0,1.51,1.51,0,0,0,0-2.57c-3.25-2.21-7.05-3.44-10.87-2-1.78.67-1,3.55.79,2.87Z"/>
    <path class="cls-5" d="M219.68,547.75c0-2,1.44-3.88,0-5.62-1.22-1.48-3.32.64-2.1,2.1-.11-.42-.18-.45-.21-.08l-.08.25c-.1.36-.23.71-.31,1.07a10.94,10.94,0,0,0-.28,2.28c0,1.91,2.94,1.91,3,0Z"/>
    <path class="cls-5" d="M217.23,514.47a6.24,6.24,0,0,1-1.76,1.26,3.88,3.88,0,0,0-1.54,1.78,29,29,0,0,0-2.22,4.84c-.5,1.5,1.45,2.36,2.49,1.44l3-2.65c1.43-1.27-.68-3.37-2.11-2.1l-3,2.65,2.48,1.45a19.4,19.4,0,0,1,2-4.35c.6-.92,1.91-1.35,2.71-2.21,1.31-1.4-.79-3.51-2.1-2.11Z"/>
    <path class="cls-5" d="M216.13,521.21c.41,0,2.63-.28,2.77-.25,1.58.27,2,1.87,2.3,3.17a1.5,1.5,0,0,0,1.83,1c2.08-.66,1.79-3.15,1.54-4.9-.3-2.12-.65-4.23-1-6.33-.29-1.7-.35-4-1.11-5.51a2,2,0,0,0-3.6-.28c-.71,1.21-.34,3.2-.59,4.52-.34,1.75-1.32,3.27-1.53,5a1.45,1.45,0,0,0,.74,1.28,11.46,11.46,0,0,0,2.91.7c1.87.33,2.67-2.53.79-2.87l-2.2-.4.74,1.29c.08-.69,3-7.43,1.19-7.57l-1.29-.74c.49,1,2.33,13,2.63,12.92l1.83,1c-.42-1.75-1-3.55-2.55-4.62s-3.5-.47-5.39-.48a1.49,1.49,0,0,0,0,3Z"/>
    <path class="cls-5" d="M222.49,518.38a6.63,6.63,0,0,0-1.22-4.62,1.53,1.53,0,0,0-2-.53,1.51,1.51,0,0,0-.54,2,4.17,4.17,0,0,1,.82,3.11,1.48,1.48,0,0,0,1.48,1.48,1.51,1.51,0,0,0,1.49-1.48Z"/>
    <path class="cls-5" d="M219.35,515.39a1.49,1.49,0,0,0,0-3,1.49,1.49,0,0,0,0,3Z"/>
    <path class="cls-5" d="M219.49,514.77a1.49,1.49,0,0,0,0-3,1.49,1.49,0,0,0,0,3Z"/>
    <path class="cls-5" d="M219.22,516a1.49,1.49,0,0,0,0-3,1.49,1.49,0,0,0,0,3Z"/>
    <path class="cls-5" d="M217.74,496.32c-.07,2.75.84,5.35,1.32,8,.34,1.88,3.21,1.08,2.87-.79-.43-2.41-1.27-4.78-1.21-7.24,0-1.91-2.94-1.91-3,0Z"/>
    <path class="cls-5" d="M218.2,500.24l.2,8.74c0,1.91,3,1.92,3,0l-.2-8.74c0-1.92-3-1.92-3,0Z"/>
    <path class="cls-5" d="M222.43,507.79a7.33,7.33,0,0,1,.47-2.34,14.08,14.08,0,0,0,.38-2.67c.09-1.91-2.89-1.91-3,0-.08,1.71-1,3.3-.85,5,.11,1.91,3.09,1.92,3,0Z"/>
    <path class="cls-5" d="M219.05,497.94a1.49,1.49,0,0,0,0-3,1.49,1.49,0,0,0,0,3Z"/>
    <path class="cls-5" d="M219.91,497.56c1.93.5,4.15.24,6,.95a9.67,9.67,0,0,1,4.49,3.3c1,1.6,3.62.11,2.57-1.5a12.14,12.14,0,0,0-5-4.07c-2.4-1.23-4.71-.89-7.25-1.55a1.49,1.49,0,0,0-.79,2.87Z"/>
    <path class="cls-5" d="M221.42,499.51a15,15,0,0,1,6.43,1.18c1.92.94,3.4,2.57,5.05,3.88,1.48,1.18,3.6-.91,2.1-2.1-2.08-1.66-3.91-3.61-6.39-4.68a18.74,18.74,0,0,0-7.19-1.26,1.49,1.49,0,0,0,0,3Z"/>
    <path class="cls-5" d="M221.64,501.1c3.57.38,7.07.87,10,3.13,1.51,1.16,3-1.42,1.5-2.57-3.33-2.57-7.44-3.11-11.5-3.54-1.91-.2-1.89,2.77,0,3Z"/>
    <path class="cls-5" d="M221.55,502.65a18.11,18.11,0,0,1,9.57,3.26c1.58,1.08,3.07-1.49,1.5-2.57a21,21,0,0,0-11.07-3.66c-1.91-.09-1.91,2.89,0,3Z"/>
    <path class="cls-5" d="M222.83,507.32c4.26-.32,10.76-.87,14.23,2.1,1.45,1.24,3.56-.85,2.1-2.1-4.23-3.63-11.1-3.36-16.33-3-1.9.14-1.91,3.12,0,3Z"/>
    <path class="cls-5" d="M223.13,504.81c1.46,0,2.91,0,4.36,0,1.25,0,2.87-.2,3.79.82,1.27,1.44,3.37-.67,2.1-2.1-2.31-2.6-7.17-1.71-10.25-1.68a1.49,1.49,0,0,0,0,3Z"/>
    <path class="cls-5" d="M229.33,499.7a60.43,60.43,0,0,1,8.7,6.64c1.4,1.3,3.51-.8,2.1-2.1a64.74,64.74,0,0,0-9.29-7.11c-1.63-1-3.13,1.56-1.51,2.57Z"/>
    <path class="cls-5" d="M231.7,508c1.74-.07,3.15,1.28,5,1.11s1.91-3.16,0-3a5.09,5.09,0,0,1-2.44-.6,6.12,6.12,0,0,0-2.53-.51c-1.91.07-1.92,3,0,3Z"/>
    <path class="cls-5" d="M234.11,506.2c3-.14,5.31,1.73,7.49,3.58,1.45,1.23,3.57-.87,2.1-2.11-2.78-2.36-5.75-4.62-9.59-4.45-1.91.09-1.92,3.06,0,3Z"/>
    <path class="cls-5" d="M238.5,506.36c.85.89,1.68,1.81,2.47,2.76a1.5,1.5,0,0,0,2.1,0,1.53,1.53,0,0,0,0-2.11c-.79-.95-1.61-1.86-2.47-2.76-1.33-1.38-3.43.73-2.1,2.11Z"/>
    <path class="cls-5" d="M238.55,509.2a14.09,14.09,0,0,1,5,3.14c1.3,1.4,3.4-.71,2.1-2.11a15.77,15.77,0,0,0-5.65-3.6,1.54,1.54,0,0,0-2,.54,1.49,1.49,0,0,0,.53,2Z"/>
    <path class="cls-5" d="M249.6,520.62c.26,3.66,2.33,7,3.18,10.56.45,1.86,3.32,1.07,2.87-.79a35.35,35.35,0,0,0-1.61-5.12,15.57,15.57,0,0,1-1.47-4.65c-.13-1.89-3.11-1.91-3,0Z"/>
    <path class="cls-5" d="M250.66,526.92c1.44,5.53,1.07,11.4,1.13,17.07.06,5.89.29,11.75-1.07,17.53-.45,1.86,2.42,2.65,2.87.79,1.43-6,1.24-12.15,1.18-18.32-.07-6,.27-12-1.24-17.86a1.49,1.49,0,0,0-2.87.79Z"/>
    <path class="cls-5" d="M251.54,541.44c-2.34,7.32-4.71,14.61-7.47,21.79-.69,1.79,2.19,2.57,2.87.79,2.76-7.18,5.13-14.47,7.47-21.79.59-1.83-2.29-2.61-2.87-.79Z"/>
    <path class="cls-5" d="M243.91,563.45c-.28,1.08-1.41,1.39-1.11,2.72a2.42,2.42,0,0,0,2.07,1.77c1.87.39,2.67-2.48.79-2.87l-1-.2a1.49,1.49,0,0,0-.79,2.87,109.59,109.59,0,0,1,11,4.62c1.72.83,3.23-1.74,1.5-2.57a113.54,113.54,0,0,0-11.73-4.92l-.79,2.87,1,.2.79-2.87c.51.11-.51,2,.68.36a3.33,3.33,0,0,0,.44-1.19,1.49,1.49,0,0,0-2.87-.79Z"/>
    <path class="cls-5" d="M249.72,551.46c-.42,4.58-3.25,8-4,12.3-.24,1.38-.2,3.31,1.32,3.93s2.59-.63,3.27-1.89c2.09-3.84,2.78-9.27,3.87-13.49h-2.87c.74,3.49-1.58,8.73-2.47,12.11l2.93.4a18.66,18.66,0,0,1,.9-5.19l-2.19.89s.36,4.88.36,5c.16,1.56,2.52,2.15,2.93.4l.4-1.74-2.92-.4-.93,1.39-1.81,2.34c2.27,1.36,4.54,2.72,6.82,4.06a1.51,1.51,0,0,0,2.19-.89c1.13-6.66-1.42-12.81-1.55-19.44,0-2-2.74-1.84-3,0-.47,3.63-1,7.26-1.41,10.89-.22,1.74-.91,4.49.37,6.08s2.78,1.39,3.9-.19c1-1.35.6-3,.33-4.5a53.11,53.11,0,0,1-1-10.25c0-6.86,1.78-13.55.2-20.36l-2.49,1.45a8,8,0,0,1,2,4.63c.35,1.88,3.22,1.09,2.87-.79a12.55,12.55,0,0,0-2.78-5.94c-1-1.25-2.8.13-2.49,1.44,1.9,8.17-.68,17-.16,25.34a13.47,13.47,0,0,0,.66,4.37l.34.9c.85,1.26,1.19,1.14,1-.37.74-1.17.51-4,.7-5.44l.94-7.26h-3c.12,6.26,2.71,12.38,1.65,18.64l2.19-.89c-2.29-1.33-4.56-2.69-6.82-4.05a1.49,1.49,0,0,0-1.81,2.33c3,3,6.42.19,6-3.49-.17-1.55-2.51-2.16-2.92-.4l-.4,1.75,2.92.39c-.19-1.92.45-6.56-1.83-7.52a1.52,1.52,0,0,0-2.19.88,21.42,21.42,0,0,0-1,6,1.49,1.49,0,0,0,2.92.39c1.12-4.27,3.41-9.27,2.47-13.69a1.5,1.5,0,0,0-2.87,0c-.65,2.52-1.32,5-2,7.53s-1.72,5.43.81,2c1.91-2.56,2.33-6.57,2.61-9.63.17-1.91-2.8-1.89-3,0Z"/>
    <path class="cls-5" d="M254.38,539q.87,14,.94,28.07a1.49,1.49,0,0,0,3,0q-.07-14-.94-28.07c-.12-1.9-3.1-1.91-3,0Z"/>
    <path class="cls-5" d="M258.41,564.75c1.13-6.76,2-13.34,1.31-20.2-.18-1.87-3.07-1.94-3,0a33.26,33.26,0,0,0,.6,4.77c.35,1.75,2.8,1.18,2.93-.39a18.63,18.63,0,0,0-1.82-9.83l-2.57,1.51,1.3,2.39a1.49,1.49,0,0,0,2.87-.8,16,16,0,0,0-2.22-6,1.49,1.49,0,0,0-2.57,1.5,14.37,14.37,0,0,1,1.92,5.31l2.87-.8a7.14,7.14,0,0,0-1.6-3.1,1.49,1.49,0,0,0-2.57,1.51,15.63,15.63,0,0,1,1.41,8.32l2.92-.4a17.84,17.84,0,0,1-.49-4h-3c.64,6.59-.11,12.91-1.2,19.41-.32,1.87,2.55,2.68,2.87.79Z"/>
    <path class="cls-5" d="M259.22,538.23c-.65-1.63-.76-3.3-1.49-4.85-.31-.66-.37-1.39-.65-2.07a23.76,23.76,0,0,1-1.27-2.52,1.49,1.49,0,0,0-2.87.79,9.45,9.45,0,0,0,1,2.14,15,15,0,0,1,.86,2.46,10.56,10.56,0,0,1,.76,1.91,16.73,16.73,0,0,0,.8,2.93c.7,1.75,3.58,1,2.87-.79Z"/>
    <path class="cls-5" d="M250.87,523.55c1,1.91,1.57,3.9,2.42,5.87a26.38,26.38,0,0,1,2.11,7c.28,1.89,3.15,1.08,2.87-.79a24,24,0,0,0-2.06-7c-1-2.17-1.6-4.44-2.77-6.58-.92-1.68-3.49-.18-2.57,1.5Z"/>
    <path class="cls-5" d="M253.06,529.17c2.09,2.75,2.35,6.35,3.06,9.66.4,1.87,3.27,1.08,2.87-.8-.77-3.59-1.09-7.37-3.36-10.36-1.14-1.5-3.73,0-2.57,1.5Z"/>
    <path class="cls-7" d="M223.81,568.4a1.35,1.35,0,0,1,1,.59,7.49,7.49,0,0,1-1.92-1.28,14.85,14.85,0,0,1,2.11,2l-.12-.18"/>
    <path class="cls-7" d="M223.66,567.89l.16.48-.44-.87a.81.81,0,0,1,.39.45,1.3,1.3,0,0,0,0,.21l0-.2a2.83,2.83,0,0,1,.13.5l-.42-.12s-.1,0-.13,0a.09.09,0,0,0,0,.08.71.71,0,0,0,0,.29,5.41,5.41,0,0,0,.28-.8,1.08,1.08,0,0,1-.18.49.17.17,0,0,1,.07-.19,2,2,0,0,1-.22.55.48.48,0,0,1,.07-.23.5.5,0,0,1,0,.32,1.51,1.51,0,0,1,.45-.2c.11,0,.25,0,.31.06a.41.41,0,0,1,0,.27c0,.09,0,.21.14.2"/>
    <path class="cls-7" d="M223.06,568.52l.78.5-.83-.3a.57.57,0,0,0,.18.48.81.81,0,0,0-.19-.41.93.93,0,0,0,.36.14.69.69,0,0,0-.29-.34,4.79,4.79,0,0,0,1.33.47.16.16,0,0,0-.13-.13,7.75,7.75,0,0,0,.66.46l-.57-.66a2.36,2.36,0,0,0,.67.44l-.06-.1.37.36s.07.06.11,0"/>
    <path class="cls-8" d="M225.29,569.29a.28.28,0,0,0,.2,0,.67.67,0,0,1,.24.26.91.91,0,0,1-.2-.24.17.17,0,0,0,.22.07.52.52,0,0,0,.18-.18c.07-.09.14-.2.09-.3a.25.25,0,0,0-.2-.12,3.72,3.72,0,0,0-1.53.24c-.11,0-.25,0-.3-.07a.25.25,0,0,1,0-.15,2,2,0,0,0,0-.49c0-.09-.11-.18-.15-.27a5.68,5.68,0,0,0,.18.71,2.57,2.57,0,0,1-.08-.4l-.19.09c0-.08.11-.13.18-.17a2.14,2.14,0,0,0-.51.53.85.85,0,0,0,.31-.09l.05,0s0,0,0-.06.06-.6.23-.52.19.41.15.55a2.55,2.55,0,0,1-.24-.39"/>
    <path class="cls-8" d="M227.48,569.92a3,3,0,0,1,.84,0,2.7,2.7,0,0,1,.54.2l.75.38"/>
    <path class="cls-8" d="M228.15,569.81a3.79,3.79,0,0,0,.58.05,3.62,3.62,0,0,1,.57,0,1.28,1.28,0,0,1,.62.27"/>
    <path class="cls-8" d="M247.39,514.33a5.76,5.76,0,0,1-1.78-2.56c.23.09.09.76.26.94s-.26,0-.15.2"/>
    <path class="cls-8" d="M251.68,520l-1.23-1.66.67,1.59-.84-1.59a2,2,0,0,0,.26,1,8.54,8.54,0,0,0-.41-1.1,2.46,2.46,0,0,0,.32,1.16,1.45,1.45,0,0,0-.11-.8c0,.29-.07,1-.07,1.31a3.67,3.67,0,0,1-.31-1.73,2,2,0,0,0-.52-1.21"/>
    <path class="cls-8" d="M245.29,512.66l.59.73a2.52,2.52,0,0,0-.75-1.3.9.9,0,0,0,.18.43"/>
    <path class="cls-8" d="M217.56,495.25a1.43,1.43,0,0,0,.23.92l-.2-1.32a4.2,4.2,0,0,0,.59,1.64l-.37-.41a2.42,2.42,0,0,0,.44,1.06"/>
    <path class="cls-9" d="M243.4,146.91s9.85,55.63-.37,78.32c0,0,7.9,29.25,6.74,31.56s-9.74.95-10.07-2.41-1.21-40.54,0-48.54,0-26.5,0-39.22S243.4,146.91,243.4,146.91Z"/>
  </g>
</svg>
