@php
  $config = $config ?? new stdClass();
@endphp

<svg id="Layer_1" data-name="Layer 1" xmlns="http://www.w3.org/2000/svg" viewBox="0 0 103.52 284.47" alt="trousers slack">
  <defs>
    <style>
      .cls1-1 {
        fill: {{ $config->trouserColor }};
      }

      .cls1-1, .cls1-2, .cls1-3, .cls1-4, .cls1-5, .cls1-6, .cls1-7 {
        stroke: #231f20;
      }

      .cls1-1, .cls1-4, .cls1-5, .cls1-6, .cls1-7 {
        stroke-miterlimit: 10;
      }

      .cls1-2, .cls1-3, .cls1-5, .cls1-6, .cls1-7 {
        fill: none;
        stroke-width: 0.75px;
      }

      .cls1-3 {
        stroke-dasharray: 2.05 2.05;
      }

      .cls1-4 {
        fill: {{ $config->pocketColor }};
      }

      .cls1-6, .cls1-7 {
        stroke-linecap: square;
      }

      .cls1-7 {
        stroke-dasharray: 1.85 1.85;
      }

      .cls-8 {
        fill: {{ $config->beltColor}};
      }

      .cls-9 {
        fill: {{ $config->logoColor }};
        stroke: #c4798f;
        stroke-width: 0.25px;
      }
    </style>
  </defs>
  <title>Trousers</title>

  <g style="stroke: {{ $config->trouserColor }}">
    <path class="cls-1" d="M22.37,24.66S14.65,39.91,15.79,84.9s1.51,67.66,1.51,67.66a7.49,7.49,0,0,0,.13,5.41c1.22,2.84.1,9.39.49,17.74s1.15,35.34,1.15,41.1,2.31,3.27,1.92,6.34-2.3,4,.77,13.83c0,0-.82,6.26-.82,9.72s-1,2.35-.28,7.47,2.21,11.77,2.08,12.6c0,0,9.41,4.29,22.42-.83,0,0-.83-16.2-.83-18.69s1.24-4.57.83-8.72-.69-7.61.14-10.66-1.11-4.43,1.1-8.72-.27-17.85.56-31.83,1.94-25.47,1.8-27.13-.83-4.85.27-8.17.14-7.61-.27-10.24,1.38-14.26,1.24-20.35.69-33.63.69-33.63l0-60.86L24.65,24.85Z"/>
    <path class="cls-1" d="M24.65,24.85s-5.45,26.9-8,28"/>
    <path class="cls-1" d="M34.23,39.76s-1.8,130.45-2.4,135.86,2.39,22.51,3,30.66c.57,7.54-3.6,8.41-4.2,21.64s3.27,36.34.43,40.68"/>
    
      <path class="cls-1" d="M79.22,24.66S86.94,39.91,85.8,84.9s-1.51,67.66-1.51,67.66a7.46,7.46,0,0,1-.14,5.41c-1.21,2.84-.09,9.39-.48,17.74s-1.16,35.34-1.16,41.1-2.3,3.27-1.92,6.34,2.31,4-.76,13.83c0,0,.82,6.26.82,9.72s1,2.35.28,7.47-2.22,11.77-2.08,12.6c0,0-9.41,4.29-22.42-.83,0,0,.83-16.2.83-18.69s-1.25-4.57-.83-8.72.69-7.61-.14-10.66,1.11-4.43-1.11-8.72.28-17.85-.55-31.83-1.94-25.47-1.8-27.13.83-4.85-.28-8.17-.13-7.61.28-10.24-1.38-14.26-1.25-20.35-.69-33.63-.69-33.63L51,27l25.9-2.1Z"/>
      <path class="cls-1" d="M76.94,24.85s5.45,26.9,8,28"/>
      <path class="cls-1" d="M67.36,39.76s1.8,130.45,2.4,135.86-2.39,22.51-3,30.66c-.56,7.54,3.61,8.41,4.21,21.64s-3.27,36.34-.43,40.68"/>
      <path class="cls-1" d="M80.59,223.15s-4.38,9.38-6.22,10"/>
      <path class="cls-1" d="M79.83,237s-8.13,14.58-1.45,4.73"/>
      <path class="cls-1" d="M57.84,233.86s1.67,4.51,3.5,6.52,2.17,5.51,2.17,5.51"/>
      <path class="cls-1" d="M58.34,248.06s2.34,4,2.17,5.17-1.35-1.86-2.16-2.87"/>
      <path class="cls-1" d="M82.77,163.09s-1.4,5.15-1.18,7.19l1.28-4"/>
    
  </g>
  <path class="cls-2" d="M21,223.15s4.39,9.38,6.23,10"/>
  <path class="cls-2" d="M21.76,237s8.13,14.58,1.45,4.73"/>
  <path class="cls-2" d="M43.75,233.86s-1.67,4.51-3.51,6.52-2.17,5.51-2.17,5.51"/>
  <path class="cls-2" d="M43.25,248.06s-2.34,4-2.17,5.17,1.35-1.86,2.15-2.87"/>
  <path class="cls-2" d="M18.82,163.09s1.4,5.15,1.18,7.19l-1.29-4"/>
  <g>
    <path class="cls-2" d="M55.77,26.54s0,.36,0,1"/>
    <path class="cls-3" d="M55.8,29.58c.09,7.48.27,26.24,0,27A20.22,20.22,0,0,1,52.49,60"/>
    <path class="cls-2" d="M51.73,60.71l-.75.66"/>
  </g>
  <path class="cls-1" d="M22.22,20.52s30.55,4.83,56.85.19l1.16,5.61s-38.29,6.38-58.39,0L22,24.5,22,24Z"/>

  <g style="stroke:{{ $config->pocketColor }}">
  <polygon class="cls-4" points="72.01 110.57 87.08 109.99 86.65 149.84 74.77 149.69 71.29 148.1 72.01 110.57"/>
  <polygon class="cls-4" points="87.08 109.99 88.82 125.5 79.11 126.08 71.43 122.02 72.01 110.57 87.08 109.99"/>
  </g>

  <polyline class="cls-5" points="86.94 147.96 76.36 148.1 76.36 124.63"/>
  <g>
    <line class="cls-6" x1="74.33" y1="123.61" x2="74.35" y2="124.61"/>
    <line class="cls-7" x1="74.38" y1="126.47" x2="74.73" y2="147.77"/>
    <line class="cls-6" x1="74.75" y1="148.7" x2="74.77" y2="149.69"/>
  </g>

  <g style="stroke: {{ $config->beltColor }}">
  <path class="cls-8" d="M48.44,23.08,56,22.61l6.13,9.58s1.1,16.66,0,25.14-3,35.66-3,35.66l-6.44-.47s2.83-32,3.14-34.72c.24-2,.74-17.89.91-26.23,0-.51,0-1,0-1.42,0-.22,0-.8,0-1,0-1.65,0-2.36,0-2.61a24.38,24.38,0,0,1,0,2.61h-8.3Z"/>
  </g>

  <g style="stroke: {{ $config->logoColor }}">
    <path class="cls-9" d="M72.41,175.39a.94.94,0,0,1,.14-.33l8.45.35a9.1,9.1,0,0,0,.69,2.15,2.74,2.74,0,0,1,.1,2.17l-.08.05-.2,0a.34.34,0,0,0-.22.05,2.47,2.47,0,0,0-.1.29l-.13.31-.06,0-2.07-.09a2.09,2.09,0,0,0-.42,0,1.61,1.61,0,0,1-.37,0l0-.09a.65.65,0,0,0,0-.27l-.11-.27a2.07,2.07,0,0,0-.61-.06,4.36,4.36,0,0,1-.62,0l-.07,0a2.49,2.49,0,0,0-.11.29,2,2,0,0,1-.13.31l-.06,0-2.81-.11,0,0a10.4,10.4,0,0,0-.31-1.09,1.25,1.25,0,0,1,.17-1.07l0,0,2.21.09.07,0a.42.42,0,0,0,.1-.2.66.66,0,0,1,.1-.25v-.05c-.52,0-1-.07-1.56-.08l-1.59-.08c-.1-.25-.18-.5-.26-.76s-.13-.51-.18-.78v0A.94.94,0,0,0,72.41,175.39Zm7.51.64a1.59,1.59,0,0,1,.38,0,.77.77,0,0,0,.37,0,.83.83,0,0,0,.08-.22.68.68,0,0,1,.07-.2l0-.06h-.36a1.93,1.93,0,0,0-.34,0,2.44,2.44,0,0,0-.1.24,2.26,2.26,0,0,1-.11.22ZM78.07,176a1.53,1.53,0,0,1,.37,0,.71.71,0,0,0,.38,0,1,1,0,0,1,.06-.22,1,1,0,0,0,.08-.2v0l-.37,0a1.19,1.19,0,0,0-.33,0,1.63,1.63,0,0,0-.11.23l-.1.22Zm-1.86-.07a1.61,1.61,0,0,1,.38,0,.69.69,0,0,0,.37,0,.83.83,0,0,1,.06-.21l.08-.21,0-.05-.36,0a1.28,1.28,0,0,0-.34,0c0,.08-.07.15-.1.23s-.07.15-.1.22ZM79,176a2.14,2.14,0,0,1,.36,0,1,1,0,0,0,.34,0,1,1,0,0,1,.11-.25.46.46,0,0,0,.08-.24l-.7,0a.43.43,0,0,0-.12.22.82.82,0,0,1-.1.24Zm-1.84-.07.64,0,.07-.05.08-.21a1,1,0,0,1,.08-.21l0-.05-.7,0a.41.41,0,0,0-.1.22.82.82,0,0,1-.1.24Zm-1.88-.08a1.42,1.42,0,0,1,.36,0,1,1,0,0,0,.34,0,1.92,1.92,0,0,1,.12-.25.4.4,0,0,0,0-.24l-.7,0a.41.41,0,0,0-.1.22.82.82,0,0,1-.1.24Zm-1,0a1.54,1.54,0,0,1,.37,0,1.54,1.54,0,0,0,.37,0,1,1,0,0,1,.09-.26,1.69,1.69,0,0,0,.08-.24l-.71,0a.74.74,0,0,0-.1.22.9.9,0,0,1-.12.24Zm-.91,0a1.45,1.45,0,0,1,.36,0,1.29,1.29,0,0,0,.34,0l.09-.22a.54.54,0,0,0,.08-.21v-.07l-.71,0a.74.74,0,0,0-.1.22.64.64,0,0,1-.1.24Zm-.92,0a1.42,1.42,0,0,1,.36,0,1,1,0,0,0,.34,0,1.17,1.17,0,0,1,.1-.26.49.49,0,0,0,.08-.24,1.6,1.6,0,0,1-.38,0,1.07,1.07,0,0,0-.36,0l-.09.22a1,1,0,0,1-.1.21Zm8.36.64a1.6,1.6,0,0,0,0,.21l0,0a.76.76,0,0,1,.06-.2,1.8,1.8,0,0,0,.08-.21.58.58,0,0,1-.08-.22.52.52,0,0,0-.06-.2.81.81,0,0,1-.07.22,2,2,0,0,0-.1.21A.67.67,0,0,1,80.87,176.36Zm.21.71a1.08,1.08,0,0,0,0,.21.85.85,0,0,0,0-.82l-.07.18-.1.21A.43.43,0,0,1,81.08,177.07Zm.2.7a1.43,1.43,0,0,0,0,.22.91.91,0,0,0,.08-.18.47.47,0,0,1,.07-.17.85.85,0,0,0-.13-.47,1.24,1.24,0,0,1-.14.39A.39.39,0,0,1,81.28,177.77Zm-3.23,0a.88.88,0,0,0,.07.23l.07.06,1,0c.34,0,.68,0,1,0l0,0a.83.83,0,0,1-.08-.22q0-.12-.06-.21l0-.06-1.07,0-1,0A1.77,1.77,0,0,1,78.05,177.77Zm-.53-.24a.83.83,0,0,1,0,.15,1,1,0,0,1,0,.14.83.83,0,0,0,.07-.13.33.33,0,0,1,0-.12l0-.07h-.1a.08.08,0,0,0-.08,0ZM75.9,178l.32,0a1,1,0,0,0,.3,0l0,0a.7.7,0,0,1-.08-.23,1.6,1.6,0,0,0,0-.21l-.06-.05h-.15a.23.23,0,0,0-.14,0,2.56,2.56,0,0,0-.11.24,2.26,2.26,0,0,1-.11.22Zm1.85.36a.49.49,0,0,0,.06.22.87.87,0,0,0,0-.83,1,1,0,0,0-.08.2.88.88,0,0,1-.09.2A.8.8,0,0,1,77.75,178.32Zm3.73.16c0,.08,0,.15,0,.21a.74.74,0,0,0,0-.81.65.65,0,0,1-.06.21,1.65,1.65,0,0,0-.1.19A.4.4,0,0,1,81.48,178.48Zm-1.65.36.56,0,.08-.05a.77.77,0,0,1-.08-.27.47.47,0,0,0-.1-.24H80a.62.62,0,0,0-.14.25.87.87,0,0,1-.1.24Zm-.94,0a1.42,1.42,0,0,1,.36,0,.78.78,0,0,0,.34,0,2.56,2.56,0,0,0,.11-.24.88.88,0,0,1,.1-.22l0-.05-.67,0a.24.24,0,0,0-.09.08,1.05,1.05,0,0,1-.15.4Zm-.94,0a1.61,1.61,0,0,1,.38,0,.69.69,0,0,0,.37,0,.92.92,0,0,1,.08-.27.79.79,0,0,0,.07-.22l-.67,0-.07,0a.85.85,0,0,0-.09.22,1,1,0,0,1-.1.21Zm-2.78-.12h.31a1.63,1.63,0,0,0,.31,0l0-.06a1.27,1.27,0,0,1-.08-.23,1.08,1.08,0,0,0,0-.21l-.07-.06h-.24s-.07.06-.07.08a.7.7,0,0,1-.06.17l-.1.23Zm-.94,0a1.62,1.62,0,0,1,.38,0,.74.74,0,0,0,.36,0,1.48,1.48,0,0,1,.1-.27.56.56,0,0,0,.06-.23l-.67,0-.07,0a1,1,0,0,0-.09.22.58.58,0,0,1-.1.21Zm-.94,0a1.62,1.62,0,0,1,.38,0,.78.78,0,0,0,.37,0,1.47,1.47,0,0,1,.08-.25.55.55,0,0,0,.07-.25l-.67,0-.07.05a1,1,0,0,0-.09.22,2,2,0,0,1-.08.22Zm8.39.62a.54.54,0,0,0,0,.21.71.71,0,0,0,0-.81.77.77,0,0,1,0,.19,2,2,0,0,1-.1.21A.32.32,0,0,1,81.68,179.18Zm-.71.74a.38.38,0,0,0,0,.17.21.21,0,0,0,0-.14.31.31,0,0,1,.06-.13v-.07H81a.1.1,0,0,0-.09,0A.29.29,0,0,1,81,179.92Zm-4.72-.35s0,.08,0,.13a1.62,1.62,0,0,1,.06.17.33.33,0,0,0,0-.13.24.24,0,0,1,.06-.11v-.08h-.1a.11.11,0,0,0-.1,0Z"/>
    <path class="cls-9" d="M72.59,182.09a1.11,1.11,0,0,1,.16-.33c.53,0,1.07,0,1.61.07a14.86,14.86,0,0,0,1.64,0,2.15,2.15,0,0,0,.13-.32,2.15,2.15,0,0,1,.13-.32.55.55,0,0,1,.18,0l.21,0,.06,0a.83.83,0,0,0,.13-.3.79.79,0,0,1,.13-.33c.63,0,1.26,0,1.88.06l1.92.08,0,0,.15.54c.05.18.11.36.17.55a1.13,1.13,0,0,1-.18,1.07l0,0-3.09-.13-.07.07a.83.83,0,0,0,.06.21,1.55,1.55,0,0,0,.08.23l.09.08,1.28.05,2.34.1c.05.17.1.35.16.53l.18.55a1.23,1.23,0,0,1-.16,1.11l-.06,0-3.78-.16a2.81,2.81,0,0,0-.1-.31,2.45,2.45,0,0,1-.08-.29.26.26,0,0,0-.07-.1l-.84,0-.06,0a1.71,1.71,0,0,1-.09-.3,1.09,1.09,0,0,0-.08-.31l-.1-.08L72.9,184a.05.05,0,0,0,0,0,.1.1,0,0,1-.05-.06,4.74,4.74,0,0,0-.18-.72,3.89,3.89,0,0,1-.18-.71v0A.91.91,0,0,0,72.59,182.09Zm6.2-.81.67,0,.07-.05a.58.58,0,0,1,.08-.22.58.58,0,0,0,.07-.21v-.05a2.23,2.23,0,0,1-.37,0,1.2,1.2,0,0,0-.33,0,.8.8,0,0,0-.11.23.91.91,0,0,1-.11.22Zm.92,0a1.53,1.53,0,0,1,.37,0,.67.67,0,0,0,.37,0,1,1,0,0,0,.09-.21.54.54,0,0,1,.08-.21l0-.05-.67,0a.48.48,0,0,0-.12.22,2.56,2.56,0,0,1-.11.24Zm-1.86-.08a2.38,2.38,0,0,1,.38,0,.74.74,0,0,0,.36,0c0-.06,0-.12.08-.19l.08-.24,0,0-.67,0a.59.59,0,0,0-.12.22q0,.13-.09.24Zm-.91,0,.64,0,.07,0,.09-.22a1,1,0,0,0,.08-.2v-.06l-.67,0-.09.07A.79.79,0,0,1,77,181a1.08,1.08,0,0,0-.08.19Zm3.7.44a1.19,1.19,0,0,0,.08.2c0-.07.06-.14.08-.2l.06-.21a.33.33,0,0,0,0-.14.35.35,0,0,1,0-.13.19.19,0,0,1,0-.07s0-.05,0-.06l-.09.2c0,.06,0,.12-.07.19A1.42,1.42,0,0,0,80.64,181.64Zm-4.44.24.6,0,0,0a3.63,3.63,0,0,1-.13-.48l-.06,0h-.23a.15.15,0,0,0-.09.08,1.19,1.19,0,0,1-.08.2,1.21,1.21,0,0,0-.09.2Zm4.64.48a1.54,1.54,0,0,0,.08.19,1.19,1.19,0,0,0,.08-.22c0-.07,0-.13.07-.2a1.43,1.43,0,0,1-.08-.22.58.58,0,0,0,0-.17.68.68,0,0,1-.07.2,1,1,0,0,0-.08.19A1.55,1.55,0,0,0,80.84,182.36Zm-6.29.15a1.36,1.36,0,0,1,.35,0,.83.83,0,0,0,.35,0,2.44,2.44,0,0,0,.1-.24c0-.08.07-.15.1-.22l0-.06a1.36,1.36,0,0,1-.35,0,1.28,1.28,0,0,0-.34,0,1.58,1.58,0,0,0-.11.23,1.09,1.09,0,0,1-.09.23Zm.94,0a1,1,0,0,1,.3,0h.31l0,0a.75.75,0,0,1-.08-.24c0-.07,0-.14-.05-.21l-.06,0h-.24l-.08.05a1.72,1.72,0,0,0-.07.21.85.85,0,0,1-.09.22Zm-1.88-.08a1.17,1.17,0,0,1,.37,0,.69.69,0,0,0,.37,0,.73.73,0,0,1,.08-.25.73.73,0,0,0,.07-.24l-.67,0-.06,0a2,2,0,0,0-.1.21,1.43,1.43,0,0,1-.08.22Zm-.92,0a1.09,1.09,0,0,1,.36,0,.74.74,0,0,0,.33,0,2.56,2.56,0,0,0,.11-.24,1.51,1.51,0,0,1,.11-.22l0-.05-.68,0-.06.05a3.2,3.2,0,0,1-.17.43Zm4.62.37a.42.42,0,0,1,0,.15.83.83,0,0,0,0,.15l.06-.14a.67.67,0,0,1,.06-.12l0-.06h-.18Zm.22.81a.34.34,0,0,0,.08.2,2.73,2.73,0,0,0,.1-.41.49.49,0,0,0-.1-.4,2.4,2.4,0,0,1-.15.4A.33.33,0,0,1,77.53,183.62Zm.22.42a1.4,1.4,0,0,1,.36,0,.78.78,0,0,0,.34,0,.86.86,0,0,0,.11-.24,1.43,1.43,0,0,1,.08-.22l0-.06a1.43,1.43,0,0,1-.36,0,.78.78,0,0,0-.34,0,1.74,1.74,0,0,0-.11.25,2,2,0,0,1-.09.22Zm2.79.12.63,0,.09-.05a.79.79,0,0,1,.1-.27.6.6,0,0,0,.06-.23l-.66,0-.08,0a1.42,1.42,0,0,0-.07.22,2,2,0,0,1-.1.21Zm-.94,0a1.45,1.45,0,0,1,.36,0,.92.92,0,0,0,.37,0l.11-.26a.6.6,0,0,0,0-.24l-.67,0a.24.24,0,0,0-.09.08.48.48,0,0,1-.07.2.56.56,0,0,0-.08.2Zm-.95,0a1.59,1.59,0,0,1,.38,0,.86.86,0,0,0,.36,0,1.35,1.35,0,0,1,.08-.24,1.09,1.09,0,0,0,.09-.23l0-.05-.63,0-.06.05a2.14,2.14,0,0,0-.1.22,1.07,1.07,0,0,1-.1.22Zm2.82.42c0,.07,0,.14,0,.19a.85.85,0,0,0,0-.82,1.27,1.27,0,0,1-.06.18l-.1.22C81.42,184.35,81.45,184.43,81.47,184.5Zm.2.68a1.55,1.55,0,0,0,0,.23,1,1,0,0,0,.08-.2,1.54,1.54,0,0,1,.08-.19.86.86,0,0,0-.06-.23,1,1,0,0,1-.06-.23.81.81,0,0,0-.07.22.62.62,0,0,1-.1.2A.4.4,0,0,1,81.67,185.18Z"/>
    <path class="cls-9" d="M72,185.92a1.48,1.48,0,0,1,.15-.35l8.65.37c.25.72.47,1.44.66,2.17s.4,1.46.63,2.2a.94.94,0,0,1-.1.39,2,2,0,0,0-.16.4l-.06,0-1,0a.05.05,0,0,0,0-.05.1.1,0,0,1,0-.07c-.07-.23-.14-.47-.2-.72s-.14-.5-.23-.75-.12-.47-.18-.68a4.39,4.39,0,0,0-.18-.58l-.07-.06-2.08-.09-.06,0c.09.36.18.71.28,1a1.19,1.19,0,0,1-.18,1.05l0,0-1-.05a7.82,7.82,0,0,1-.33-1c-.09-.37-.19-.72-.29-1.07v0s0,0-.09-.08l-1.07,0a7.63,7.63,0,0,0-1.07,0,4.5,4.5,0,0,0,.39,1.37,1.47,1.47,0,0,1,0,1.37c0,.05,0,.09-.07.1a2.77,2.77,0,0,1-.5,0l-.51,0-.05,0c-.12-.4-.23-.8-.34-1.2s-.22-.81-.34-1.22-.2-.7-.31-1a6.78,6.78,0,0,1-.25-1v0A1.56,1.56,0,0,0,72,185.92Zm7.72.69a1.53,1.53,0,0,1,.37,0,1,1,0,0,0,.35,0,1.06,1.06,0,0,0,.1-.26.54.54,0,0,1,.1-.22l0,0-.68,0a.55.55,0,0,0-.13.25,1,1,0,0,1-.12.25Zm-1,0a1.22,1.22,0,0,1,.38,0,.78.78,0,0,0,.37,0c0-.08.07-.16.1-.23s.05-.14.07-.21V186L79,186a.22.22,0,0,0-.1.08,1.48,1.48,0,0,1-.15.41Zm-.93,0a1.45,1.45,0,0,1,.36,0,1.09,1.09,0,0,0,.36,0,1.61,1.61,0,0,0,.09-.26.72.72,0,0,1,.1-.22l0-.05L78,186a.48.48,0,0,0-.14.25,1,1,0,0,1-.11.25Zm-1,0,.65,0,.08-.05c0-.08.06-.16.08-.23l.09-.2V186l-.69,0c-.05,0-.07,0-.08.08a1.79,1.79,0,0,1-.17.41Zm-1,0,.66,0,.09,0a1.57,1.57,0,0,1,.1-.28.65.65,0,0,0,.07-.23l-.69,0s-.08.05-.08.08a1.19,1.19,0,0,1-.08.2,1,1,0,0,0-.09.21Zm-1,0a1.16,1.16,0,0,1,.37,0,.82.82,0,0,0,.38,0,1.36,1.36,0,0,0,.09-.23.72.72,0,0,1,.09-.2l0-.08-.69,0s-.08.05-.08.08a.82.82,0,0,1-.06.19l-.1.22Zm-1,0a1.21,1.21,0,0,1,.38,0,1.27,1.27,0,0,0,.39,0c0-.09.05-.18.08-.26a.57.57,0,0,1,.11-.22l-.05,0-.67,0-.06.05a.85.85,0,0,0-.09.22,1.07,1.07,0,0,1-.1.22Zm-1,0a1.28,1.28,0,0,1,.39,0,.82.82,0,0,0,.38,0,2.8,2.8,0,0,0,.15-.51l-.69,0a.3.3,0,0,0-.08.08.68.68,0,0,1-.07.2,1,1,0,0,0-.09.21Zm-1,0a1.28,1.28,0,0,1,.39,0,1.15,1.15,0,0,0,.37,0,1.14,1.14,0,0,1,.09-.26.65.65,0,0,0,.08-.22l0-.05-.65,0-.06.05a1.47,1.47,0,0,0-.1.22,2,2,0,0,1-.09.22Zm8.6.63a.58.58,0,0,0,.08.22,1.19,1.19,0,0,0,.07-.23.84.84,0,0,1,.08-.2.83.83,0,0,1-.08-.22.93.93,0,0,0-.06-.18,2.66,2.66,0,0,1-.17.4A.9.9,0,0,1,80.63,186.92Zm.14.53a.63.63,0,0,1,.08.23.52.52,0,0,0,.06.2.86.86,0,0,0,0-.85l-.08.2-.09.2Zm.29.94a1.57,1.57,0,0,0,0,.23,1,1,0,0,0,.08-.19.65.65,0,0,1,.08-.17,1,1,0,0,0-.14-.49,1.8,1.8,0,0,1-.05.19c0,.07-.07.14-.1.23A.34.34,0,0,1,81.06,188.39Zm-3.86-.24a.3.3,0,0,1,0,.15.37.37,0,0,0,0,.14,1.22,1.22,0,0,0,.11-.29l0-.05h-.08a.1.1,0,0,0-.09,0Zm-3.73.13a.31.31,0,0,0,.06-.13.69.69,0,0,1,.07-.15l0-.06h-.12s-.07,0-.08,0A1.13,1.13,0,0,1,73.47,188.28Zm7.79.84c0,.08,0,.15,0,.21a.92.92,0,0,0,0-.84,2.22,2.22,0,0,1-.17.4C81.21,189,81.24,189.05,81.26,189.12ZM77.45,189a.83.83,0,0,0,.06.21,4.18,4.18,0,0,0,.15-.43,1.66,1.66,0,0,0-.06-.21c0-.08,0-.14,0-.2a.67.67,0,0,0-.09.21.56.56,0,0,1-.09.19A.79.79,0,0,1,77.45,189Zm-3.83-.16a.9.9,0,0,0,.08.21,1,1,0,0,0,0-.84l-.09.2c0,.06,0,.13-.09.2S73.6,188.73,73.62,188.8Zm7.85,1a.9.9,0,0,0,.06.22,1.67,1.67,0,0,0,.08-.2c0-.06,0-.12.07-.19a1.05,1.05,0,0,0-.06-.24.66.66,0,0,0-.08-.21,1.67,1.67,0,0,1-.05.18l-.1.23A.66.66,0,0,1,81.47,189.84Zm-3.82-.16a.44.44,0,0,0,.07.2.76.76,0,0,0,0-.82.52.52,0,0,1-.07.21,1.19,1.19,0,0,0-.08.2A.74.74,0,0,1,77.65,189.68Zm-3.82-.15a.42.42,0,0,0,.09.19.86.86,0,0,1,.07-.21.56.56,0,0,0,.07-.19.63.63,0,0,1-.08-.23.56.56,0,0,0,0-.19,1.31,1.31,0,0,1-.08.21.72.72,0,0,0-.09.2A.52.52,0,0,1,73.83,189.53Zm7.85,1.05a.25.25,0,0,0,.08.2,2.36,2.36,0,0,0,.09-.43.71.71,0,0,0-.08-.42.46.46,0,0,0-.08.21.47.47,0,0,1-.09.22A.36.36,0,0,1,81.68,190.58ZM74,190.25a1.55,1.55,0,0,1,.08.23.88.88,0,0,1,.07-.23l.08-.21a2,2,0,0,1-.07-.23,1.94,1.94,0,0,1,0-.2L74,190A2,2,0,0,0,74,190.25Z"/>
    <path class="cls-9" d="M71.74,191.34a.94.94,0,0,1,.14-.33l8.45.35a9.1,9.1,0,0,0,.69,2.15,2.74,2.74,0,0,1,.1,2.17l-.08,0-.2,0a.34.34,0,0,0-.22,0,2.47,2.47,0,0,0-.1.29l-.13.31-.06,0-2.07-.09a2.09,2.09,0,0,0-.42,0,1.61,1.61,0,0,1-.37,0l0-.09a.65.65,0,0,0-.05-.27l-.11-.27a2.07,2.07,0,0,0-.61-.06,4.36,4.36,0,0,1-.62,0l-.07,0a2.49,2.49,0,0,0-.11.29,1.69,1.69,0,0,1-.13.31l-.06,0-2.81-.11,0,0A10.4,10.4,0,0,0,72.5,195a1.25,1.25,0,0,1,.17-1.07l0,0,2.21.09.07,0a.42.42,0,0,0,.1-.2.73.73,0,0,1,.1-.25v0c-.52,0-1-.07-1.56-.08L72,193.24c-.1-.25-.18-.5-.26-.76s-.13-.51-.18-.78v0A.94.94,0,0,0,71.74,191.34Zm7.51.64a1.59,1.59,0,0,1,.38,0,.77.77,0,0,0,.37,0,.83.83,0,0,0,.08-.22.68.68,0,0,1,.07-.2l0-.06a2.17,2.17,0,0,1-.36,0,1.29,1.29,0,0,0-.34,0,1.6,1.6,0,0,0-.1.23,2.26,2.26,0,0,1-.11.22Zm-1.86-.08a2.36,2.36,0,0,1,.38,0,.71.71,0,0,0,.38,0,.83.83,0,0,1,.06-.21,1.45,1.45,0,0,0,.08-.21v-.05l-.37,0a1.19,1.19,0,0,0-.33,0,1.63,1.63,0,0,0-.11.23l-.1.22Zm-1.85-.07a1.63,1.63,0,0,1,.38,0,.69.69,0,0,0,.37,0,.83.83,0,0,1,.06-.21l.08-.21,0,0-.36,0a1.26,1.26,0,0,0-.34,0c0,.08-.07.15-.1.23s-.07.15-.1.22Zm2.8.11a2.14,2.14,0,0,1,.36,0,1,1,0,0,0,.34,0,1.12,1.12,0,0,1,.11-.25.46.46,0,0,0,.08-.24l-.7,0a.43.43,0,0,0-.12.22.82.82,0,0,1-.1.24Zm-1.84-.07.64,0,.06,0a1.89,1.89,0,0,0,.09-.21,1,1,0,0,1,.08-.21l0,0-.7,0a.41.41,0,0,0-.1.22.82.82,0,0,1-.1.24Zm-1.88-.08a1.42,1.42,0,0,1,.36,0,1,1,0,0,0,.34,0,1.92,1.92,0,0,1,.12-.25.4.4,0,0,0,0-.24l-.7,0a.41.41,0,0,0-.1.22.72.72,0,0,1-.1.24Zm-1,0a1.54,1.54,0,0,1,.37,0,1.45,1.45,0,0,0,.36,0,1.57,1.57,0,0,1,.1-.26,1.69,1.69,0,0,0,.08-.24l-.71,0a.76.76,0,0,0-.11.22.66.66,0,0,1-.11.24Zm-.91,0a1.45,1.45,0,0,1,.36,0,1.29,1.29,0,0,0,.34,0l.09-.22a.84.84,0,0,0,.08-.2v-.08l-.71,0a.55.55,0,0,0-.1.22.87.87,0,0,1-.1.24Zm-.92,0a1.42,1.42,0,0,1,.36,0,1,1,0,0,0,.34,0,.93.93,0,0,1,.1-.25.57.57,0,0,0,.08-.25,1.6,1.6,0,0,1-.38,0,1.42,1.42,0,0,0-.36,0l-.09.22a1,1,0,0,1-.1.21Zm8.36.64a1.6,1.6,0,0,0,0,.21l0,0a.76.76,0,0,1,.06-.2c0-.07.06-.14.08-.2a.7.7,0,0,1-.08-.23.52.52,0,0,0-.06-.2.58.58,0,0,1-.08.22l-.09.21A.67.67,0,0,1,80.2,192.31Zm.21.71a1.08,1.08,0,0,0,0,.21.85.85,0,0,0,0-.82,1.34,1.34,0,0,1-.07.18l-.1.21A.43.43,0,0,1,80.41,193Zm.2.7a1.43,1.43,0,0,0,0,.22.91.91,0,0,0,.08-.18.47.47,0,0,1,.07-.17.85.85,0,0,0-.13-.47,1.24,1.24,0,0,1-.14.39A.49.49,0,0,1,80.61,193.72Zm-3.23,0a.94.94,0,0,0,.07.22l.07.06,1,0c.34,0,.68,0,1,0l0,0a.83.83,0,0,1-.08-.22q0-.12-.06-.21l0-.06c-.36,0-.72,0-1.07,0s-.69,0-1,0A1.21,1.21,0,0,1,77.38,193.73Zm-.53-.25a.83.83,0,0,1,0,.15,1,1,0,0,1,0,.14.54.54,0,0,0,.07-.13.33.33,0,0,1,0-.12l0-.07a.17.17,0,0,1-.1,0,.08.08,0,0,0-.08,0Zm-1.62.43.32,0a1,1,0,0,0,.3,0l0,0a.7.7,0,0,1-.08-.23,1.6,1.6,0,0,0,0-.21l-.06,0h-.15a.23.23,0,0,0-.14,0,2.56,2.56,0,0,0-.11.24,2.26,2.26,0,0,1-.11.22Zm1.85.37a.48.48,0,0,0,.06.21.87.87,0,0,0,0-.83.64.64,0,0,0-.08.2.88.88,0,0,1-.09.2A.74.74,0,0,1,77.08,194.28Zm3.73.15c0,.08,0,.15,0,.21a.74.74,0,0,0,0-.81.65.65,0,0,1-.06.21,1.14,1.14,0,0,0-.1.19A.4.4,0,0,1,80.81,194.43Zm-1.65.36.56,0,.08-.05a.77.77,0,0,1-.08-.27.47.47,0,0,0-.1-.24h-.27a.62.62,0,0,0-.14.25.87.87,0,0,1-.1.24Zm-.94,0a1.42,1.42,0,0,1,.36,0,.78.78,0,0,0,.34,0,1.22,1.22,0,0,0,.1-.24,1.51,1.51,0,0,1,.11-.22l0-.05-.67,0a.24.24,0,0,0-.09.08,1.05,1.05,0,0,1-.15.4Zm-.94,0a1.61,1.61,0,0,1,.38,0,.69.69,0,0,0,.37,0,.79.79,0,0,1,.08-.26,1,1,0,0,0,.07-.23l-.67,0-.07.05a.85.85,0,0,0-.09.22,1,1,0,0,1-.1.21Zm-2.78-.12h.31a1.63,1.63,0,0,0,.31,0l0-.06a1.27,1.27,0,0,1-.08-.23,1.08,1.08,0,0,0,0-.21l-.07-.06H74.7s-.07.06-.07.08a.7.7,0,0,1-.06.17l-.1.23Zm-.94,0a1.62,1.62,0,0,1,.38,0,.74.74,0,0,0,.36,0,1.48,1.48,0,0,1,.1-.27.78.78,0,0,0,.06-.23l-.67,0-.07.05a1,1,0,0,0-.09.22.72.72,0,0,1-.1.22Zm-.94,0a1.62,1.62,0,0,1,.38,0,.78.78,0,0,0,.37,0,1.47,1.47,0,0,1,.08-.25.72.72,0,0,0,.07-.25l-.67,0-.07,0a1,1,0,0,0-.09.22,2,2,0,0,1-.08.22Zm8.39.62a.54.54,0,0,0,0,.21.71.71,0,0,0,0-.81.77.77,0,0,1,0,.19l-.1.22A.27.27,0,0,1,81,195.13Zm-.71.74a.38.38,0,0,0,0,.17.21.21,0,0,0,0-.14.31.31,0,0,1,.06-.13v-.07h-.11a.1.1,0,0,0-.09,0A.29.29,0,0,1,80.3,195.87Zm-4.72-.34a.73.73,0,0,1,0,.12,1.62,1.62,0,0,1,.06.17.33.33,0,0,0,0-.13.24.24,0,0,1,.06-.11v-.08h-.1a.11.11,0,0,0-.1,0Z"/>
    <path class="cls-9" d="M71.76,197.34a2.92,2.92,0,0,1,.13-.34.89.89,0,0,1,.23,0,.55.55,0,0,0,.25,0,1.74,1.74,0,0,0,.11-.32,1,1,0,0,1,.15-.32,2.57,2.57,0,0,1,.48,0,2.9,2.9,0,0,0,.51,0l0,0a9.05,9.05,0,0,0,.31,1.1,1.15,1.15,0,0,1-.18,1.09.33.33,0,0,1-.17,0,.37.37,0,0,0-.18,0l0,.05a.49.49,0,0,0,0,.23l.09.25.07.05,1.18,0,.06,0c0-.1.07-.2.11-.31a1.33,1.33,0,0,1,.15-.32.54.54,0,0,1,.22,0,.37.37,0,0,0,.23,0,1.37,1.37,0,0,0,.13-.31,1.12,1.12,0,0,1,.14-.32.35.35,0,0,1,.18,0h.2l.07,0a1,1,0,0,0,.13-.3.83.83,0,0,1,.13-.32l0,0H77l.07,0c0-.1.07-.21.11-.32a1.53,1.53,0,0,1,.16-.31c.32,0,.64,0,.95,0s.64,0,1,0a1.33,1.33,0,0,1,.12.32,2,2,0,0,0,.11.35l.06,0,.83,0,.06.05c.08.32.17.65.27,1s.18.65.28,1a2.34,2.34,0,0,1,.2.83,1.3,1.3,0,0,1-.22.79l-.07,0h-.19a.53.53,0,0,0-.21,0,1,1,0,0,0-.12.31,1.56,1.56,0,0,1-.14.33h-.5a4.41,4.41,0,0,0-.52,0c0-.18-.1-.36-.16-.54s-.13-.36-.19-.55a1.21,1.21,0,0,1,.18-1.09l.06,0h.3l0,0a.4.4,0,0,0,0-.23.74.74,0,0,1,0-.25l-.11-.07L78,198.79l0,.05a2.24,2.24,0,0,0-.12.29c0,.1-.08.2-.13.3l0,0h-.37l-.06.05a2.71,2.71,0,0,0-.13.3,2.26,2.26,0,0,1-.13.33.45.45,0,0,1-.23,0,.37.37,0,0,0-.23,0,1.2,1.2,0,0,0-.13.31,1.3,1.3,0,0,1-.14.32l0,0h-.38l-.06,0c-.08.22-.15.42-.23.59l-.06,0-1.9-.08a.75.75,0,0,0-.07-.12,1.73,1.73,0,0,0-.16-.54,1.61,1.61,0,0,0-.44,0,3.46,3.46,0,0,1-.46,0,2.16,2.16,0,0,1-.16-.49,2.8,2.8,0,0,0-.16-.52,9.73,9.73,0,0,0-.28-1,7.51,7.51,0,0,1-.25-1v0A1.87,1.87,0,0,0,71.76,197.34Zm5.45-.13a1.5,1.5,0,0,1,.37,0,1,1,0,0,0,.34,0A.89.89,0,0,1,78,197a.44.44,0,0,0,.07-.24,1.7,1.7,0,0,1-.39,0,.82.82,0,0,0-.35,0,.65.65,0,0,0-.08.22.62.62,0,0,1-.1.22Zm.93,0a1.14,1.14,0,0,1,.37,0,.77.77,0,0,0,.37,0A1.55,1.55,0,0,1,79,197l.07-.2v-.06h-.37a1.23,1.23,0,0,0-.33,0c0,.09-.08.17-.11.25s-.06.15-.1.23ZM72.57,197l.66,0,.08,0a.75.75,0,0,1,.07-.23.6.6,0,0,0,.07-.2l0,0-.35,0h-.34a1.28,1.28,0,0,0-.11.24.94.94,0,0,1-.1.23Zm6.5.53a1.05,1.05,0,0,0,.05.19l0,0a.91.91,0,0,0,0-.82,1.41,1.41,0,0,1-.06.22l-.1.21A.36.36,0,0,1,79.07,197.55Zm-5.57-.2a.33.33,0,0,0,.07.19,1.11,1.11,0,0,1,.07-.22.56.56,0,0,0,.06-.2.74.74,0,0,1-.07-.21c0-.07,0-.13,0-.18s-.06.14-.09.2a1,1,0,0,1-.09.21A.41.41,0,0,1,73.5,197.35Zm3,.54h.33a1.82,1.82,0,0,0,.33,0v0a.58.58,0,0,1-.06-.17.44.44,0,0,0-.06-.16v-.07l-.06-.11a.75.75,0,0,1-.15,0,.26.26,0,0,0-.15,0,1.15,1.15,0,0,0-.1.23,1.47,1.47,0,0,1-.1.22Zm2.8.12a.92.92,0,0,1,.37,0,.69.69,0,0,0,.37,0,1.8,1.8,0,0,0,.08-.21.85.85,0,0,1,.09-.22v-.06l-.68,0a.2.2,0,0,0-.08.08,1.31,1.31,0,0,1-.15.39Zm-7.44-.32.6,0,.06,0a2.25,2.25,0,0,1-.08-.24.68.68,0,0,1,0-.23l-.08-.06h-.23l-.06.06a1,1,0,0,0-.09.21.58.58,0,0,1-.1.21Zm8.38.63c0,.07,0,.14.05.21a.86.86,0,0,0,0-.81c0,.07,0,.13-.08.19s0,.13-.08.2A1.72,1.72,0,0,1,80.21,198.32ZM73.7,198a.66.66,0,0,0,.06.22c0-.07,0-.14.07-.2a.75.75,0,0,1,.07-.18,1.22,1.22,0,0,0-.13-.44,1.39,1.39,0,0,1-.15.39A.43.43,0,0,1,73.7,198Zm2.33.52a1.76,1.76,0,0,1,.33,0l0,0a2.76,2.76,0,0,1-.08-.27.67.67,0,0,0-.1-.24H76a.7.7,0,0,0-.13.24c0,.09-.07.17-.1.25A.85.85,0,0,0,76,198.56Zm4.38.47a.39.39,0,0,0,.08.21.79.79,0,0,1,.06-.22c0-.06,0-.12.07-.19a2.13,2.13,0,0,1-.11-.42,1.89,1.89,0,0,0-.09.21c0,.06,0,.13-.07.2A.42.42,0,0,1,80.41,199Zm-2.82-.21a.48.48,0,0,1,0,.15.44.44,0,0,0,.05.15l.06-.14.05-.12,0-.06a.14.14,0,0,1-.09,0,.1.1,0,0,0-.09,0Zm-4.66-.19a.47.47,0,0,1,.06.15.39.39,0,0,0,0,.14.84.84,0,0,0,.06-.14.37.37,0,0,1,0-.11l0-.07a.12.12,0,0,1-.1,0,.08.08,0,0,0-.08,0Zm2.11.59h.31a1,1,0,0,0,.3,0l0-.05c0-.07-.05-.14-.08-.22l-.06-.22-.05-.05a.29.29,0,0,1-.16,0,.14.14,0,0,0-.14,0,1,1,0,0,0-.09.22.51.51,0,0,1-.09.22Zm5.57.52a.42.42,0,0,0,.09.19.83.83,0,0,1,.06-.21.56.56,0,0,0,.07-.19.33.33,0,0,0,0-.14.35.35,0,0,1,0-.13.41.41,0,0,1,0-.08.08.08,0,0,0,0-.06l-.08.21c0,.06,0,.12-.08.19S80.59,199.66,80.61,199.74Zm-7.44-.34c0,.07,0,.14,0,.19l0,0c0-.14.07-.27.1-.42a.51.51,0,0,0-.11-.4.65.65,0,0,1-.06.21l-.1.19A.51.51,0,0,1,73.17,199.4Zm3.68.08a.22.22,0,0,1,.05.14.61.61,0,0,0,0,.13l0,.05a.48.48,0,0,1,.06-.18.31.31,0,0,0,0-.16h-.11a.1.1,0,0,0-.09,0Zm-2.56.42a1.22,1.22,0,0,1,.33,0,1.16,1.16,0,0,0,.32,0l0,0a.77.77,0,0,1-.07-.17c0-.06,0-.12,0-.17v-.07l-.06-.1a.38.38,0,0,1-.15,0,.26.26,0,0,0-.15,0,1.28,1.28,0,0,0-.11.24,1,1,0,0,1-.09.22Zm4.68.19.59,0,.06,0a.9.9,0,0,1-.08-.25,1.55,1.55,0,0,0-.07-.23l-.06-.06h-.24a.2.2,0,0,0-.09.09,1.12,1.12,0,0,1-.15.4Zm-5.6-.23a1.15,1.15,0,0,1,.37,0,.77.77,0,0,0,.37,0l.1-.26a.65.65,0,0,0,.06-.24l-.68,0s-.08.05-.08.08a.68.68,0,0,1-.07.2.88.88,0,0,0-.09.2Zm7.44.57a.57.57,0,0,0,.07.22,1.28,1.28,0,0,0,.09-.22,1.59,1.59,0,0,1,.07-.2A.83.83,0,0,1,81,200a1.89,1.89,0,0,0-.06-.18,2.08,2.08,0,0,1-.16.4A.48.48,0,0,1,80.81,200.43Zm-4.68-.27a2.47,2.47,0,0,0,.1.29.7.7,0,0,0,.1-.25l0-.07h-.18Zm3.92.87a.34.34,0,0,1,0,.1,1.3,1.3,0,0,0,.06.19.4.4,0,0,1,.07-.13.27.27,0,0,0,0-.12l0-.07h-.1a.08.08,0,0,0-.08,0Zm-4.65-.2a.44.44,0,0,1,.06.16.37.37,0,0,0,0,.14l.06-.14a.33.33,0,0,1,0-.12l0-.06H75.4Z"/>
    <path class="cls-9" d="M71.65,202.29h.23a.53.53,0,0,0,.24,0,1,1,0,0,0,.12-.32,1.41,1.41,0,0,1,.14-.31c1.1,0,2.2.06,3.28.12s2.2.1,3.32.14a2.18,2.18,0,0,1,.19.6l0,.07.07,0,.83,0,0,0a6,6,0,0,0,.55,1.79,2,2,0,0,1,0,1.79.5.5,0,0,1-.21,0h-.2l-.07,0a1.69,1.69,0,0,0-.13.31A3.05,3.05,0,0,1,80,207a8.3,8.3,0,0,1-1,0,8.22,8.22,0,0,0-1,0c-.79-.06-1.57-.09-2.34-.11s-1.52-.07-2.29-.15c0-.14-.1-.35-.2-.63l-.06,0-.84,0a0,0,0,0,0,0-.06s0,0,0-.06a12,12,0,0,0-.38-1.39c-.15-.47-.27-.94-.38-1.4V203C71.48,202.71,71.58,202.49,71.65,202.29Zm6.27.26a1,1,0,0,1,.35,0,.87.87,0,0,0,.36,0,1.17,1.17,0,0,0,.09-.24.47.47,0,0,1,.09-.22l0-.05-.67,0a.56.56,0,0,0-.13.24,1,1,0,0,1-.11.26Zm-1,0a1,1,0,0,1,.38,0,.74.74,0,0,0,.36,0,.92.92,0,0,0,.09-.23,2.07,2.07,0,0,1,.08-.2V202l-.67,0a.15.15,0,0,0-.09.08,1,1,0,0,1-.15.4Zm-.9,0a1.09,1.09,0,0,1,.36,0,1,1,0,0,0,.34,0,1.52,1.52,0,0,0,.09-.25A.62.62,0,0,1,77,202l0-.05-.66,0a.48.48,0,0,0-.14.25,1,1,0,0,1-.11.25Zm-.92,0,.63,0,.07,0a2.44,2.44,0,0,0,.1-.24A1.19,1.19,0,0,1,76,202l0-.07-.67,0a.24.24,0,0,0-.09.08,1.49,1.49,0,0,1-.15.4Zm-1,0a1.2,1.2,0,0,1,.38,0,.73.73,0,0,0,.36,0,1.15,1.15,0,0,1,.09-.28.6.6,0,0,0,.06-.23l-.66,0a.24.24,0,0,0-.09.08.7.7,0,0,1-.08.2l-.09.2Zm-.94,0a1.2,1.2,0,0,1,.38,0,.72.72,0,0,0,.36,0,1.36,1.36,0,0,0,.09-.23.4.4,0,0,1,.08-.2v-.08l-.67,0s-.08.06-.08.08a1.45,1.45,0,0,1-.17.4Zm-.94,0a1.2,1.2,0,0,1,.38,0,1.07,1.07,0,0,0,.36,0,1.44,1.44,0,0,0,.09-.24.88.88,0,0,1,.1-.22l0-.06-.65,0-.06.05a1,1,0,0,0-.09.22.72.72,0,0,1-.1.22Zm6.53.54a.49.49,0,0,0,.08.21c0-.08,0-.15.07-.22a.77.77,0,0,1,.08-.19.94.94,0,0,1-.07-.22.54.54,0,0,0-.07-.17l-.07.18-.1.21A.4.4,0,0,1,78.83,202.85Zm.22.45a1.34,1.34,0,0,1,.35,0,1,1,0,0,0,.35,0c0-.08.07-.16.1-.23s.07-.15.1-.22l0-.06-.67,0a.24.24,0,0,0-.09.08.73.73,0,0,1-.06.21,1.42,1.42,0,0,0-.08.18ZM71.61,203a1.6,1.6,0,0,1,.31,0h.31a.77.77,0,0,0,0-.29,2,2,0,0,0-.12-.25h-.27a.53.53,0,0,0-.12.25,1.33,1.33,0,0,1-.11.24Zm8.36.61a.37.37,0,0,0,.06.21.71.71,0,0,0,0-.8,1.24,1.24,0,0,1-.14.39A.31.31,0,0,1,80,203.6Zm.2.73a.42.42,0,0,0,.08.2l.06-.21a.84.84,0,0,1,.08-.19c0-.06,0-.11,0-.14a.5.5,0,0,1-.1-.28.88.88,0,0,0-.09.2l-.08.21A.73.73,0,0,1,80.17,204.33Zm-7.48-.41a.58.58,0,0,1,0,.16.28.28,0,0,0,0,.15h0a.35.35,0,0,1,0-.18.31.31,0,0,0,0-.16h-.1a.08.08,0,0,0-.08,0Zm.46,0a.9.9,0,0,1,.08.25,1.27,1.27,0,0,0,.08.23c1,.07,2,.12,2.93.16l2.92.11v0a.57.57,0,0,1-.08-.24,2.1,2.1,0,0,0-.06-.24c-1-.06-2-.12-3-.16l-2.92-.1ZM80.36,205a.53.53,0,0,0,.09.2.52.52,0,0,1,.07-.21.89.89,0,0,0,.07-.19.74.74,0,0,0,0-.14.28.28,0,0,1,0-.13.13.13,0,0,1,0-.07s0,0,0-.06l-.08.18a2.2,2.2,0,0,0-.09.21A.8.8,0,0,1,80.36,205Zm-7.43-.31a.6.6,0,0,0,.08.2.93.93,0,0,0,0-.8,1.34,1.34,0,0,1-.07.18,2,2,0,0,1-.1.21A.54.54,0,0,1,72.93,204.71Zm5.79.68.57,0,.09,0a1.61,1.61,0,0,1-.09-.26l-.1-.25a.32.32,0,0,1-.14,0,.31.31,0,0,0-.16,0,1.22,1.22,0,0,0-.1.24.72.72,0,0,1-.1.22Zm-4.63-.2.63,0,.06-.05a.92.92,0,0,0,.09-.23.68.68,0,0,1,.1-.21l0-.06h-.37a1.22,1.22,0,0,0-.33,0,1.12,1.12,0,0,0-.1.24c0,.07-.06.15-.1.23Zm3.71.16a1.09,1.09,0,0,1,.36,0,1,1,0,0,0,.35,0,.69.69,0,0,0,.09-.25.51.51,0,0,1,.09-.22l0,0-.67,0a.55.55,0,0,0-.13.25.88.88,0,0,1-.11.24Zm-.94,0a1.44,1.44,0,0,1,.36,0,1,1,0,0,0,.35,0,1.86,1.86,0,0,1,.1-.25,2.14,2.14,0,0,1,.1-.22l0-.05-.67,0a.24.24,0,0,0-.09.08.66.66,0,0,1-.06.2l-.09.2Zm-.94,0a1.2,1.2,0,0,1,.38,0,.72.72,0,0,0,.36,0,1.43,1.43,0,0,1,.09-.27.46.46,0,0,0,.07-.23l-.67,0-.07.05A2,2,0,0,0,76,205a.58.58,0,0,1-.1.21Zm-.92,0a1.43,1.43,0,0,1,.36,0,1.38,1.38,0,0,0,.35,0c0-.09.07-.17.1-.24a1.28,1.28,0,0,0,.09-.22l0-.06-.67,0s-.08.06-.09.09a1.92,1.92,0,0,1-.14.4Zm-1.88-.08a1.6,1.6,0,0,1,.38,0,.55.55,0,0,0,.36,0,1.45,1.45,0,0,1,.1-.25.54.54,0,0,0,.06-.25l-.67,0-.07.06a1.8,1.8,0,0,0-.08.21.85.85,0,0,1-.09.22Zm7.46.59c0,.08,0,.15.07.22a1,1,0,0,1,.07-.23c0-.07.06-.14.08-.2a1.87,1.87,0,0,1-.07-.22c0-.07,0-.14,0-.19l-.09.2c0,.06,0,.13-.07.2A1,1,0,0,0,80.58,205.74Zm-.69.88a.35.35,0,0,0,.08-.13.46.46,0,0,1,0-.14v-.07h-.12s-.07,0-.08,0A1.33,1.33,0,0,1,79.89,206.62Z"/>
    <path class="cls-9" d="M71.09,207.19c0-.1.09-.22.13-.34l8.69.37.15.56c0,.19.12.38.19.57a1.16,1.16,0,0,1-.19,1.11l0,0-1.31-.05a.18.18,0,0,0-.12.1,1.61,1.61,0,0,1-.09.29c0,.1-.09.2-.13.3l0,0-.38,0-.07.05a.73.73,0,0,1-.09.26.92.92,0,0,0-.08.27q.59,0,1.17.06l1.2,0,.87,0c0,.13.1.27.15.43a1.53,1.53,0,0,1,.08.45,1,1,0,0,0-.13.3,1.25,1.25,0,0,1-.13.35l-.05,0-8.63-.36c0-.09-.07-.18-.11-.28a1.4,1.4,0,0,1-.09-.29,1,1,0,0,1,0-.29.63.63,0,0,1,.1-.29.64.64,0,0,0,.06-.18.7.7,0,0,1,.1-.19l0,0c.39,0,.77,0,1.16.05a11.42,11.42,0,0,0,1.17,0,1.27,1.27,0,0,0,.13-.32,1.3,1.3,0,0,1,.15-.32.27.27,0,0,1,.18,0,.74.74,0,0,0,.21,0,.21.21,0,0,0,.12-.1c0-.15.1-.3.16-.45l0,0a.36.36,0,0,0-.21,0h-.24l-3.71-.16-.06,0c-.06-.25-.14-.5-.22-.75s-.14-.5-.2-.75v-.07Zm6.76.66.65,0a.35.35,0,0,0,.11-.11v-.06a1.51,1.51,0,0,0,.09-.18.77.77,0,0,1,.07-.16l0-.05-.38,0a1.28,1.28,0,0,0-.34,0,2.4,2.4,0,0,0-.11.23,2.44,2.44,0,0,1-.1.24Zm-1.91-.08a1,1,0,0,1,.35,0,1.09,1.09,0,0,0,.36,0l.11-.26.11-.22,0,0-.38,0a1.36,1.36,0,0,0-.35,0,.77.77,0,0,0-.1.23,1.22,1.22,0,0,1-.1.24Zm2.84.12a1,1,0,0,1,.38,0,.81.81,0,0,0,.38,0,1.55,1.55,0,0,1,.08-.23,2.14,2.14,0,0,0,.1-.22l0-.06-.68,0-.08,0a.81.81,0,0,0-.07.22.72.72,0,0,1-.1.22Zm-1.9-.08.69,0,.08-.09a1.19,1.19,0,0,1,.08-.22l.08-.19v-.06l-.69,0-.07.05a.58.58,0,0,0-.08.22,1,1,0,0,1-.09.22ZM75,207.73a1,1,0,0,1,.38,0,.86.86,0,0,0,.39,0,.84.84,0,0,1,.08-.27.73.73,0,0,0,.07-.24l-.69,0-.06.05a.85.85,0,0,0-.09.22,2,2,0,0,1-.09.22Zm-.94,0a1.09,1.09,0,0,1,.36,0,1.09,1.09,0,0,0,.36,0c0-.1.07-.18.1-.26l.11-.22,0-.05-.69,0-.07.05a3.38,3.38,0,0,1-.18.44Zm-1,0a1.15,1.15,0,0,1,.37,0,1.09,1.09,0,0,0,.36,0,1.61,1.61,0,0,0,.09-.26.49.49,0,0,1,.1-.22l0,0-.68,0a.58.58,0,0,0-.14.24.89.89,0,0,1-.11.26Zm-1,0a1.15,1.15,0,0,1,.37,0,1,1,0,0,0,.35,0c0-.1.07-.18.11-.26a2.14,2.14,0,0,1,.1-.22l0,0-.68,0s-.08,0-.09.08a1.13,1.13,0,0,1-.16.41Zm-1,0,.68,0a.36.36,0,0,0,.09-.09.79.79,0,0,1,.08-.26.48.48,0,0,0,.06-.21l-.67,0-.08.05a.85.85,0,0,0-.09.22l-.1.22Zm8.59.64a.6.6,0,0,0,.07.2.76.76,0,0,0,0-.82.7.7,0,0,1-.08.2c0,.07-.06.14-.08.2A.74.74,0,0,1,79.75,208.21Zm.2.73c0,.08,0,.15.07.22a1.11,1.11,0,0,0,.07-.22.72.72,0,0,1,.09-.2c0-.08-.05-.16-.07-.23a.84.84,0,0,1,0-.2,2,2,0,0,0-.1.21l-.07.21Zm-1.73.56a1,1,0,0,1,0,.16.17.17,0,0,0,0,.12,1,1,0,0,0,.09-.32h-.1s-.07,0-.09,0Zm-2.62.41.62,0,0,0a4,4,0,0,1-.12-.48l-.08-.06h-.23l-.08.05a.85.85,0,0,0-.09.22.67.67,0,0,1-.1.21Zm1.87.26.06.16a.58.58,0,0,0,0,.14.75.75,0,0,0,.09-.25v-.08a.21.21,0,0,1-.11,0,.08.08,0,0,0-.08,0Zm-2.62.44.62,0,0,0c0-.09,0-.19-.08-.28a.93.93,0,0,0-.1-.25h-.27a.65.65,0,0,0-.13.23l-.1.24Zm1.89.26a.42.42,0,0,1,0,.15.57.57,0,0,0,0,.14l.06-.13.06-.12,0-.07h-.1a.08.08,0,0,0-.08,0Zm-3.58.37a1.22,1.22,0,0,1,.38,0,.79.79,0,0,0,.37,0A2.25,2.25,0,0,1,74,211a1,1,0,0,0,.07-.2v-.06h-.38a1.38,1.38,0,0,0-.35,0l-.11.24-.09.25Zm6.65.28a1.28,1.28,0,0,1,.39,0,.92.92,0,0,0,.37,0,2,2,0,0,1,.1-.26,1.17,1.17,0,0,0,.09-.24L80,211a.82.82,0,0,0-.11.23.8.8,0,0,1-.11.25Zm-.93,0a1.5,1.5,0,0,1,.37,0,.88.88,0,0,0,.36,0,2,2,0,0,1,.11-.26.37.37,0,0,0,.07-.24l-.72,0a.4.4,0,0,0-.1.23.64.64,0,0,1-.12.25Zm-1,0a1.7,1.7,0,0,1,.39,0,.87.87,0,0,0,.36,0,1.19,1.19,0,0,1,.11-.26.55.55,0,0,0,.07-.24l-.71,0a.61.61,0,0,0-.11.23,1.15,1.15,0,0,1-.12.25Zm-.92,0a1.43,1.43,0,0,1,.36,0,.83.83,0,0,0,.35,0l.12-.26a.53.53,0,0,0,.06-.24l-.71,0a.63.63,0,0,0-.12.23.77.77,0,0,1-.1.25Zm-2.87-.12.62,0,.05,0a1.69,1.69,0,0,1-.1-.27,1.54,1.54,0,0,0-.09-.24l-.31,0a.54.54,0,0,0-.1.23.6.6,0,0,1-.1.25Zm-1.89-.08.65,0,.08,0A2.25,2.25,0,0,0,73,211c0-.07,0-.14.08-.2v-.06l-.72,0a.55.55,0,0,0-.11.23.6.6,0,0,1-.1.25Zm8.56.64a.52.52,0,0,0,.07.2,1.87,1.87,0,0,0,.11-.42.63.63,0,0,0-.09-.41,1.59,1.59,0,0,1-.07.2l-.1.2A.7.7,0,0,1,80.79,211.84Z"/>
  </g>

</svg>
