@php
    $config = $config ?? new stdClass();
@endphp


<svg id="Layer_1" data-name="Layer 1" xmlns="http://www.w3.org/2000/svg" viewBox="0 0 112.3 277.89" alt="overall">
  <defs>
    <style>
      .cls-1 {
        fill: {{ $config->trouserColor }};
      }

      .cls-1, .cls-2, .cls-3, .cls-4 {
        stroke: #231f20;
        stroke-miterlimit: 10;
      }

      .cls-2 {
        fill: none;
        stroke-width: 0.75px;
      }

      .cls-3, .cls-4 {
        fill: {{ $config->pocketColor }};
      }

      .cls-4 {
        stroke-width: 0.5px;
      }

      .cls-5 {
        fill: {{ $config->logoColor }};
        stroke: #c4798f;
        stroke-width: 0.2px;
      }
    </style>
  </defs>
  <title>Overall</title>

  <g style="stroke: {{ $config->overallColor }}">
    <path class="cls1-1" d="M66.81,13.47c-13.08,6.33-21.75-.85-21.75-.85A6.74,6.74,0,0,1,40.56,17c-3.65,1.11-14.11-.34-25.74,56,0,0-1.45,27-2,53.18,0,0,11-.58,11.62,1.45s6.46-39.94,6.06-53.27.8-30-2.39-41,6.47,23.31,5.55,26.51-5,10-4.44,12.64,3.16,9.6,2.55,11.14,1.84,6.23,1.84,6.23S22.44,128.5,24.2,151.8s1.32,106.86,1.32,106.86l1.79-13.49V267l10.9,4.62,8.91-3.3s-3-69.36-.66-73.32S51.75,136.51,56,134.2l.66-37.65h3.63L59.13,16"/>
    <path class="cls1-1" d="M42.75,16.1s7,3.79,8.12,4.33"/>
    <path class="cls1-1" d="M46.28,13.47c13.09,6.33,21.66-.85,21.66-.85A6.71,6.71,0,0,0,72.44,17c3.65,1.11,14.11-.34,25.73,56,0,0,1.45,27,2,53.18,0,0-11-.58-11.63,1.45s-6.45-39.94-6.06-53.27-.79-30,2.39-41-6.47,23.31-5.54,26.51,4.95,10,4.44,12.64-3.17,9.6-2.56,11.14-1.84,6.23-1.84,6.23,11.14,38.63,9.38,61.93-1.32,106.86-1.32,106.86l-1.78-13.49V267l-10.9,4.62-8.92-3.3s3-69.36.66-73.32S61.25,136.51,57,134.2l-.66-37.65H52.66L54,16"/>
    <path class="cls1-1" d="M70.25,16.1s-7,3.79-8.13,4.33"/>
  </g>
  <line class="cls1-2" x1="12.88" y1="115.98" x2="26.39" y2="116.54"/>
  <path class="cls1-2" d="M27.06,79.36s-17.2,21.55,1.11,2.12"/>
  <path class="cls1-2" d="M31.19,77.79s33.72,6.82,7.48,4"/>
  <path class="cls1-2" d="M39.23,98s-6.93,30.93.78,1.46"/>
  <path class="cls1-2" d="M46.6,98.56s5.47,51.37,2.56.9"/>
  <path class="cls1-2" d="M36.1,97s-6.36,21.1-9.38,24"/>
  <path class="cls1-2" d="M27.35,185.38s4,13.87,5.24,15.42-5.86-8-5.86-8"/>
  <path class="cls1-2" d="M40,200.8s-13.56,31.13,4.32-3.09"/>
  <path class="cls1-2" d="M38.72,85.08s2.52,4.53,3.55,4.94"/>
  <line class="cls1-2" x1="100.12" y1="115.98" x2="86.61" y2="116.54"/>
  <path class="cls1-2" d="M85.94,79.36s17.19,21.55-1.12,2.12"/>
  <path class="cls1-2" d="M81.81,77.79s-33.72,6.82-7.48,4"/>
  <path class="cls1-2" d="M73.77,98s6.92,30.93-.78,1.46"/>
  <path class="cls1-2" d="M66.4,98.56s-5.47,51.37-2.57.9"/>
  <path class="cls1-2" d="M76.89,97s6.37,21.1,9.38,24"/>
  <path class="cls1-2" d="M85.65,185.38s-4,13.87-5.24,15.42,5.86-8,5.86-8"/>
  <path class="cls1-2" d="M73,200.8s13.56,31.13-4.31-3.09"/>
  <path class="cls1-2" d="M74.28,85.08S71.75,89.61,70.73,90"/>

  <g style="stroke: {{ $config->pockerColor }}">
  <polygon class="cls1-3" points="29.51 49.51 29.16 64.01 32.68 68.42 47.65 68.42 52 64.48 51.76 47.1 29.22 47.22 29.51 49.51"/>
  <polygon class="cls1-3" points="52.34 43.35 28.58 43.35 28.58 49.52 38.55 54.51 52.2 48.34 52.34 43.35"/>
  <polygon class="cls1-3" points="83.48 49.51 83.84 64.01 80.31 68.42 65.34 68.42 61 64.48 61.23 47.1 83.78 47.22 83.48 49.51"/>
  </g>

  <g>
    <path class="cls1-4" d="M37.75,89.7a32,32,0,0,0-3.68-.36c-.76,0-1.37.06-1.48.29a52.66,52.66,0,0,0-.81,6.25,9,9,0,0,1,2.78,0c.61.27,3,1.22,3.67.88a7.78,7.78,0,0,1,3.8.07A11.51,11.51,0,0,0,46.1,97a12.25,12.25,0,0,1,4.15-.07c.61.28,4.41-.06,4.82.14a23.18,23.18,0,0,0,4.34.14c.75-.07,3.33.27,4.48.2a30.14,30.14,0,0,1,4.15-.2A17.76,17.76,0,0,0,72.18,97a11.64,11.64,0,0,1,3.19-.68c1.15.07,2.92-.41,3.94-.34s1.9.2,2.1-.47a23.2,23.2,0,0,0-1.15-6.12,6.47,6.47,0,0,0-3.46.28,7.79,7.79,0,0,1-3.2.4c-1,0-3.25-.27-4.48-.27s-3.8-.07-4.55-.07-1.08.75-1.56.75-3.94-.54-5-.27S51.54,90,51.33,90a4.08,4.08,0,0,1-2,.2c-1.57-.07-4.15.14-5.44-.07a31.31,31.31,0,0,0-3.53,0C39.72,90.1,37.75,89.7,37.75,89.7Z"/>
    <g>
      <line class="cls1-4" x1="32.88" y1="95.75" x2="33.73" y2="89.36"/>
      <line class="cls1-4" x1="34.92" y1="89.4" x2="33.99" y2="95.75"/>
      <line class="cls1-4" x1="36.13" y1="89.51" x2="35.06" y2="96.05"/>
      <line class="cls1-4" x1="37.21" y1="89.66" x2="36.1" y2="96.42"/>
      <line class="cls1-4" x1="38.54" y1="89.88" x2="37.21" y2="96.53"/>
      <line class="cls1-4" x1="39.38" y1="90.12" x2="38.23" y2="96.76"/>
      <line class="cls1-4" x1="40.33" y1="90.17" x2="39.54" y2="96.47"/>
      <line class="cls1-4" x1="41.59" y1="90.24" x2="41" y2="96.7"/>
      <line class="cls1-4" x1="42.89" y1="90.2" x2="42.03" y2="96.83"/>
      <line class="cls1-4" x1="43.86" y1="90.17" x2="43.29" y2="96.94"/>
      <line class="cls1-4" x1="44.9" y1="90.55" x2="44.35" y2="97.18"/>
      <line class="cls1-4" x1="46.05" y1="90.39" x2="45.57" y2="97.02"/>
      <line class="cls1-4" x1="46.92" y1="90.35" x2="46.72" y2="96.78"/>
      <line class="cls1-4" x1="48.1" y1="90.39" x2="47.82" y2="96.94"/>
      <line class="cls1-4" x1="49.3" y1="90.24" x2="48.93" y2="96.74"/>
      <line class="cls1-4" x1="50.42" y1="90.43" x2="50.25" y2="96.89"/>
      <line class="cls1-4" x1="52" y1="90.35" x2="51.53" y2="97.1"/>
      <line class="cls1-4" x1="53.18" y1="90.51" x2="52.87" y2="96.82"/>
      <line class="cls1-4" x1="54.49" y1="90.31" x2="53.93" y2="97.1"/>
      <line class="cls1-4" x1="55.43" y1="90.39" x2="55.07" y2="97.03"/>
      <line class="cls1-4" x1="56.69" y1="90.43" x2="56.3" y2="97.1"/>
      <line class="cls1-4" x1="57.6" y1="90.43" x2="57.48" y2="97.06"/>
      <line class="cls1-4" x1="58.74" y1="90.39" x2="58.63" y2="97.1"/>
      <line class="cls1-4" x1="59.93" y1="90.39" x2="59.77" y2="97.22"/>
      <line class="cls1-4" x1="61.43" y1="90.51" x2="60.91" y2="96.98"/>
      <line class="cls1-4" x1="62.37" y1="90.59" x2="62.17" y2="97.02"/>
      <line class="cls1-4" x1="63.59" y1="90.2" x2="63.28" y2="97.29"/>
      <line class="cls1-4" x1="64.74" y1="90.08" x2="64.34" y2="97.29"/>
      <line class="cls1-4" x1="65.96" y1="89.84" x2="65.49" y2="97.18"/>
      <line class="cls1-4" x1="67.1" y1="90" x2="66.59" y2="96.98"/>
      <line class="cls1-4" x1="68.37" y1="89.92" x2="67.7" y2="97.02"/>
      <line class="cls1-4" x1="69.59" y1="89.92" x2="68.84" y2="97.1"/>
      <line class="cls1-4" x1="70.73" y1="90.02" x2="69.98" y2="96.94"/>
      <line class="cls1-4" x1="71.84" y1="90" x2="71.05" y2="97.22"/>
      <line class="cls1-4" x1="72.94" y1="90.2" x2="72.18" y2="97.03"/>
      <line class="cls1-4" x1="74.08" y1="90.28" x2="73.45" y2="96.7"/>
      <line class="cls1-4" x1="75.3" y1="90.12" x2="74.95" y2="96.39"/>
      <line class="cls1-4" x1="76.33" y1="90.12" x2="75.94" y2="96.51"/>
      <line class="cls1-4" x1="77.39" y1="89.64" x2="77.08" y2="96.15"/>
      <line class="cls1-4" x1="78.38" y1="89.45" x2="78.34" y2="96.07"/>
      <line class="cls1-4" x1="79.29" y1="89.61" x2="79.31" y2="96.01"/>
      <line class="cls1-4" x1="80.31" y1="89.61" x2="80.43" y2="95.8"/>
      <ellipse class="cls2-4" cx="52.49" cy="93.63" rx="1.29" ry="1.22"/>
      <circle class="cls2-4" cx="60.13" cy="93.67" r="1.26"/>
    </g>
  </g>
  <g style="stroke: {{ $config->logoColor }}">
    <path class="cls-5" d="M62.5,64.58a.45.45,0,0,1-.18-.07l0-4.62a5.13,5.13,0,0,0,1.16-.43,1.49,1.49,0,0,1,1.18-.11l0,0a.45.45,0,0,1,0,.11.27.27,0,0,0,0,.12l.17.05.17.06,0,0v1.13a1,1,0,0,0,0,.24.69.69,0,0,1,0,.2l0,0a.28.28,0,0,0-.15,0l-.14.06a1.22,1.22,0,0,0,0,.33,1.93,1.93,0,0,1,0,.34l0,0,.16.06a.58.58,0,0,1,.17.06l0,0v1.54l0,0a5.8,5.8,0,0,0-.59.19.69.69,0,0,1-.59-.06V62.77l0,0a.17.17,0,0,0-.12-.05l-.14,0h0c0,.29,0,.57,0,.86v.87l-.41.16a4.21,4.21,0,0,1-.42.12h0A.56.56,0,0,0,62.5,64.58Zm.16-4.12a.74.74,0,0,1,0-.21.75.75,0,0,0,0-.2l-.12,0-.12,0,0,0a.61.61,0,0,1,0,.19.58.58,0,0,0,0,.19l.13,0,.12,0Zm0,1a1.47,1.47,0,0,1,0-.21.35.35,0,0,0,0-.2.27.27,0,0,1-.12,0l-.11,0h0v.2a1,1,0,0,0,0,.18l.13.06.12,0Zm0,1a.74.74,0,0,1,0-.21.64.64,0,0,0,0-.2l-.12,0-.12,0h0a.67.67,0,0,1,0,.2,1.11,1.11,0,0,0,0,.19l.13,0,.12,0Zm0-1.54a.6.6,0,0,1,0-.19.58.58,0,0,0,0-.19.35.35,0,0,1-.14-.06.31.31,0,0,0-.13,0v.38a.23.23,0,0,0,.12.06l.14,0Zm0,1v-.35l0,0-.12,0-.11,0,0,0v.38a.29.29,0,0,0,.13.05.35.35,0,0,1,.13,0Zm0,1a.67.67,0,0,1,0-.2.65.65,0,0,0,0-.19l-.14,0a.31.31,0,0,0-.13,0v.39a.22.22,0,0,0,.12,0,.27.27,0,0,1,.14.05Zm0,.52a1.34,1.34,0,0,1,0-.2.44.44,0,0,0,0-.2l-.14,0a.5.5,0,0,0-.13,0v.38l.12,0a.35.35,0,0,1,.14.06Zm0,.5a1.41,1.41,0,0,1,0-.2.61.61,0,0,0,0-.19l-.12,0-.12,0h0v.39a.28.28,0,0,0,.13,0l.13.05Zm0,.5a1.41,1.41,0,0,1,0-.2.37.37,0,0,0,0-.18l-.14,0a.23.23,0,0,0-.14,0,1.48,1.48,0,0,1,0,.21.67.67,0,0,0,0,.2l.12,0a.31.31,0,0,1,.12,0Zm.13-4.58.11,0v0l-.11,0a.23.23,0,0,0-.11,0l-.12,0-.11,0,.13,0,.11,0Zm.39-.14a.2.2,0,0,0,.11,0,.46.46,0,0,0-.45,0l.1,0,.12,0A.23.23,0,0,1,63.2,59.8Zm.37-.12.12,0-.1,0-.09,0a.46.46,0,0,0-.25.08.63.63,0,0,1,.21.07A.16.16,0,0,1,63.57,59.68Zm.09,1.76.12,0,0,0a5.42,5.42,0,0,1,0-.57,5.33,5.33,0,0,0,0-.56h0l-.11.05-.12,0,0,0a5.61,5.61,0,0,1,0,.58c0,.19,0,.38,0,.57Zm-.12.3.08,0,.07,0-.07,0-.07,0h0v.1Zm.28.87a.54.54,0,0,1,0-.18.88.88,0,0,0,0-.16h0a.28.28,0,0,1-.12,0l-.12,0,0,0a.11.11,0,0,1,0,.08.19.19,0,0,0,0,.08l.13,0,.13.06Zm.15-1a.3.3,0,0,0,.11,0,.48.48,0,0,0-.45,0l.11,0a.25.25,0,0,1,.11,0A.31.31,0,0,1,64,61.59Zm0-2,.11,0a.42.42,0,0,0-.45,0,.21.21,0,0,1,.12,0l.11,0A.28.28,0,0,1,64,59.55Zm.23.89v-.31l0,0a.34.34,0,0,1-.14,0,.23.23,0,0,0-.13.06v.15a.27.27,0,0,0,.14.07l.13,0Zm0,.52v-.2a.41.41,0,0,0,0-.19l-.13,0-.12-.05,0,0v.36s0,0,0,0a.67.67,0,0,1,.22.07Zm0,.51a.74.74,0,0,1,0-.21.75.75,0,0,0,0-.2A.33.33,0,0,1,64,61a.24.24,0,0,0-.13,0v.37l0,0,.12,0,.12.05Zm0,1.52v-.17a1,1,0,0,0,0-.17h0l-.13,0-.11,0,0,0v.13s0,0,.05,0L64,63l.13,0Zm0,.52a.74.74,0,0,1,0-.21.64.64,0,0,0,0-.2l-.15,0-.13,0v.37l0,0,.12,0,.12.05Zm0,.51a.74.74,0,0,1,0-.21.35.35,0,0,0,0-.2l-.14,0a.35.35,0,0,0-.14,0v.37l0,0,.12,0,.12,0Zm.12-4.6a.2.2,0,0,0,.11,0,.37.37,0,0,0-.44,0l.11,0,.12,0A.14.14,0,0,1,64.33,59.42Zm.43.37.08,0a.09.09,0,0,0-.07,0l-.07,0h0v.06s0,0,0,0A.12.12,0,0,1,64.76,59.79Zm-.07,2.58.06,0,.09,0-.07,0-.06,0h0v.06a.06.06,0,0,0,0,0Z"/>
    <path class="cls-5" d="M66.16,64.31a.52.52,0,0,1-.19-.08c0-.29,0-.58,0-.88a6.68,6.68,0,0,0,0-.89l-.17-.07a.64.64,0,0,1-.18-.06.31.31,0,0,1,0-.1s0-.07,0-.11l0,0a.49.49,0,0,0-.17-.06.55.55,0,0,1-.18-.06c0-.35,0-.69,0-1s0-.69,0-1l0,0,.29-.1.3-.1a.63.63,0,0,1,.59.06v1.72l0,0,.12,0,.12,0,0,0v-2l.28-.1.3-.11a.66.66,0,0,1,.61.06l0,0V61.3l-.17.06-.16,0,0,0v.47l0,0-.16,0a.52.52,0,0,0-.16.06l0,0v2l0,0s0,0,0,0a2.91,2.91,0,0,0-.39.12,1.82,1.82,0,0,1-.38.11h0A.64.64,0,0,0,66.16,64.31Zm-.61-3.37v-.36l0,0a.27.27,0,0,1-.12,0l-.11,0h0v.2a.53.53,0,0,0,0,.18.75.75,0,0,0,.13.06.31.31,0,0,1,.12,0Zm0-.5a.67.67,0,0,1,0-.2.34.34,0,0,0,0-.2l-.12,0-.12,0,0,0v.36a.23.23,0,0,0,.12.06l.13.05Zm0,1v-.21a.32.32,0,0,0,0-.19l-.1,0-.13,0h0v.37a.34.34,0,0,0,.12.06l.14,0Zm0,.5v-.35l0,0-.12,0-.12,0h0v.36l0,0a.21.21,0,0,1,.12,0l.11,0Zm.14-2,.11,0-.11,0-.12,0a.09.09,0,0,0-.07,0l-.08,0h-.07l.12,0,.1,0ZM66,62.35V62l-.26.08,0,0v.13a.1.1,0,0,0,0,0l.11,0,.11,0Zm.14-2.55.1,0-.12,0-.11,0-.12,0-.09,0,.11,0,.11,0Zm.25,3.43a.41.41,0,0,1,0-.19.61.61,0,0,0,0-.19l-.14-.05-.12,0,0,0a.67.67,0,0,1,0,.2,1.09,1.09,0,0,0,0,.18l.13.05.13,0Zm0-.51a1,1,0,0,1,0-.17,1,1,0,0,0,0-.17h0a.43.43,0,0,1-.13.05l-.11,0,0,0v.13l0,0a.27.27,0,0,0,.12,0l.12.05Zm0,1a1.48,1.48,0,0,1,0-.21.47.47,0,0,0,0-.2.33.33,0,0,1-.14,0,.35.35,0,0,0-.14,0v.37l0,0,.12,0,.12,0Zm0,.5a1.41,1.41,0,0,1,0-.2.37.37,0,0,0,0-.18l-.13,0-.13-.06,0,0v.37l0,0a.75.75,0,0,1,.24.08Zm.09-2.53a.11.11,0,0,1,.08,0l.08,0-.08,0-.07,0h0v.05a.07.07,0,0,0,0,0Zm.43-.15a.16.16,0,0,0,.11,0,.86.86,0,0,0-.23-.05.24.24,0,0,0-.21.07.75.75,0,0,1,.22.07A.19.19,0,0,1,66.86,61.57Zm.23-.12a.67.67,0,0,1,0-.2.58.58,0,0,0,0-.19L66.93,61l-.12,0h0a.67.67,0,0,1,0,.2.4.4,0,0,0,0,.19l.14.05.12,0Zm0-1.53v-.35l0,0-.15,0-.13,0v.36l0,0,.12,0a.22.22,0,0,1,.12,0Zm0,.51a.67.67,0,0,1,0-.2.35.35,0,0,0,0-.2L66.91,60a.3.3,0,0,0-.13,0v.36s0,0,0,0a.28.28,0,0,1,.12,0l.11,0Zm0,.52a1.48,1.48,0,0,1,0-.21.4.4,0,0,0,0-.19l-.14,0-.12,0,0,0v.35l0,0,.12,0,.12.05Zm.15-1.55.11,0a.45.45,0,0,0-.45,0l.1,0,.12.05Zm.37-.13.12,0-.11,0-.11,0-.12,0-.12,0,.12,0a.25.25,0,0,1,.11,0Z"/>
    <path class="cls-5" d="M68.26,64.55a.89.89,0,0,1-.19-.07l0-4.73q.58-.24,1.17-.42c.4-.12.79-.26,1.19-.4a.41.41,0,0,1,.21,0l.23.07v.58h0s0,0,0,0l-.39.13A3.25,3.25,0,0,0,70,60l-.37.11-.31.11,0,0v1.14l0,0a4.59,4.59,0,0,0,.56-.18.62.62,0,0,1,.57.08l0,0v.55a4.75,4.75,0,0,1-.54.2l-.57.19h0s0,0,0,0v.58a3.92,3.92,0,0,0,0,.59,2.7,2.7,0,0,0,.74-.25.8.8,0,0,1,.75,0l.06,0a2.61,2.61,0,0,1,0,.28v.31l-.64.21-.66.22-.55.19a3.5,3.5,0,0,1-.55.17h0A.67.67,0,0,0,68.26,64.55Zm.18-4.23a1.41,1.41,0,0,1,0-.2.46.46,0,0,0,0-.2l-.14,0-.12-.05,0,0v.37a.23.23,0,0,0,.14.07.35.35,0,0,1,.14.06Zm0,.53a.74.74,0,0,1,0-.21.35.35,0,0,0,0-.2l-.13,0-.11,0h0v.38s0,0,.05,0a1,1,0,0,1,.23.07Zm0,.51a.67.67,0,0,1,0-.2.69.69,0,0,0,0-.2l-.15,0a.31.31,0,0,1-.12-.05l0,0v.37a.27.27,0,0,0,.14.07.94.94,0,0,1,.15.06Zm0,.52v-.36l0,0-.13,0-.11,0h-.05v.38a.11.11,0,0,0,0,0,.7.7,0,0,1,.23.08Zm0,.53v-.36l0,0-.15,0-.13,0v.38a.12.12,0,0,0,0,.05.45.45,0,0,1,.11,0l.12,0Zm0,.52a.67.67,0,0,1,0-.2.34.34,0,0,0,0-.2l-.12-.05-.12,0h0v.37s0,0,0,0l.1,0,.13.05Zm0,.54a.5.5,0,0,1,0-.21.74.74,0,0,0,0-.21l-.14,0a.31.31,0,0,1-.13-.06l0,0v.37l0,0,.12,0,.13,0Zm0,.51a.74.74,0,0,1,0-.21.44.44,0,0,0,0-.2,1,1,0,0,0-.28-.07v.37s0,0,0,0l.12,0,.11,0Zm0,.53a1.48,1.48,0,0,1,0-.21.5.5,0,0,0,0-.21l-.14,0-.12,0,0,0v.36l0,0,.12,0,.13,0Zm.13-4.71.11,0-.12,0a.35.35,0,0,1-.11,0l-.12,0-.1,0,.22.09A.31.31,0,0,1,68.59,59.8Zm.28-.09a.29.29,0,0,1,.13-.05.23.23,0,0,0,.1,0,.46.46,0,0,0-.47,0l.12,0,.11.05Zm.51-.18.12,0-.11,0-.09,0a.6.6,0,0,0-.26.09l.1,0,.13,0A.14.14,0,0,1,69.38,59.53Zm0,2.11.08,0,.08,0a.47.47,0,0,0-.16,0h0a0,0,0,0,1,0,.05s0,0,0,0Zm.17,2-.07,0-.08,0h0a.06.06,0,0,1,0,.06s0,0,0,0A.49.49,0,0,1,69.51,63.67Zm.26-4.28.11,0a.53.53,0,0,0-.46,0l.23.08Zm0,2.09a.21.21,0,0,0,.11,0l-.23-.07-.12,0a.23.23,0,0,1-.11,0l.12.05.11,0A.31.31,0,0,1,69.78,61.48Zm0,2.1.11,0a.53.53,0,0,0-.46,0l.12,0,.11,0Zm.36-4.32.13,0-.11,0-.11,0-.13,0a.28.28,0,0,0-.11.05l.1,0,.12,0Zm0,2.09a.19.19,0,0,0,.11,0,.41.41,0,0,0-.45,0,.2.2,0,0,1,.11,0l.11,0Zm0,2.09.11,0-.12,0-.11,0a.26.26,0,0,1-.12,0,.19.19,0,0,0-.1,0,.35.35,0,0,1,.11,0l.12.05A.22.22,0,0,1,70.18,63.44Zm.38-4.31a.12.12,0,0,0,.1-.05l-.23,0a.38.38,0,0,0-.23.06l.12,0a.19.19,0,0,1,.12,0A.17.17,0,0,1,70.56,59.13Zm0,4.18.13-.05-.13,0-.12,0-.12,0-.11,0,.23.09Z"/>
    <path class="cls-5" d="M71.23,64.54a.73.73,0,0,1-.19-.07l0-4.62a4.94,4.94,0,0,0,1.15-.44,1.56,1.56,0,0,1,1.19-.11l0,0s0,.08,0,.12a.27.27,0,0,0,0,.12l.16,0,.17.07,0,0v1.13a.88.88,0,0,0,0,.23.68.68,0,0,1,0,.2l0,0a.4.4,0,0,0-.15,0l-.15.07a1.22,1.22,0,0,0,0,.33,1.93,1.93,0,0,1,0,.34l0,0,.16.05.18.07,0,0v1.57a5.84,5.84,0,0,0-.59.2.69.69,0,0,1-.59-.06l0,0V62.73l0,0a.22.22,0,0,0-.11,0,.27.27,0,0,1-.14,0h0c0,.28,0,.57,0,.86v.86a3.47,3.47,0,0,1-.41.16,3.31,3.31,0,0,1-.42.12h0A.64.64,0,0,0,71.23,64.54Zm.15-4.12v-.21a.35.35,0,0,0,0-.2l-.12,0a.2.2,0,0,1-.11,0h0v.2a1.21,1.21,0,0,0,0,.19l.13,0,.12.06Zm0,1a.67.67,0,0,1,0-.2.34.34,0,0,0,0-.2l-.12,0-.12,0h0a.74.74,0,0,1,0,.21,1.1,1.1,0,0,0,0,.18l.13,0,.12.05Zm0,1v-.21a.36.36,0,0,0,0-.2.27.27,0,0,1-.12,0l-.11,0,0,0v.19a1.15,1.15,0,0,0,0,.19l.13.05.12,0Zm0-1.53a1.41,1.41,0,0,1,0-.2.62.62,0,0,0,0-.19.34.34,0,0,1-.14-.05.37.37,0,0,0-.14,0v.39a.31.31,0,0,0,.13.06.24.24,0,0,1,.13,0Zm0,1v-.35l0,0-.12,0-.11,0h0v.39a.33.33,0,0,0,.12,0,.27.27,0,0,1,.14.05Zm0,1a1.28,1.28,0,0,1,0-.19.59.59,0,0,0,0-.19.59.59,0,0,1-.14-.06.23.23,0,0,0-.14,0v.38a.21.21,0,0,0,.13.05l.13,0Zm0,.52a.67.67,0,0,1,0-.2.68.68,0,0,0,0-.2l-.14,0-.14,0v.39a.33.33,0,0,0,.12,0,.31.31,0,0,1,.13.06Zm0,.5a.61.61,0,0,1,0-.19.58.58,0,0,0,0-.19l-.12-.05a.45.45,0,0,0-.11,0h0v.38l.12,0,.14.05Zm0,.5a1.2,1.2,0,0,1,0-.19.43.43,0,0,0,0-.19.39.39,0,0,1-.14,0,.28.28,0,0,0-.13,0,.74.74,0,0,1,0,.21.62.62,0,0,0,0,.19l.12,0,.12,0Zm.14-4.58.11,0v0l-.11,0-.11,0-.13,0-.1,0,.12,0,.12.05A.24.24,0,0,1,71.54,59.89Zm.38-.13.12,0a.52.52,0,0,0-.45,0l.09,0,.12.05Zm.38-.13.12,0a.26.26,0,0,0-.1,0l-.1,0a.53.53,0,0,0-.25.08.9.9,0,0,1,.22.07Zm.08,1.77.13,0,0,0c0-.19,0-.38,0-.56a5.23,5.23,0,0,0,0-.56h0l-.12,0-.11,0,0,0v.59c0,.19,0,.38,0,.57A.43.43,0,0,1,72.38,61.4Zm-.12.29.08,0,.08,0a.11.11,0,0,0-.07,0l-.07,0h0a.06.06,0,0,1,0,.06s0,0,0,0Zm.28.87v-.17a1,1,0,0,0,0-.17h0a.31.31,0,0,1-.12,0l-.11,0,0,0v.09s0,.05,0,.08l.14,0,.12.05Zm.15-1,.12,0a.47.47,0,0,0-.46,0l.12,0,.11,0A.25.25,0,0,1,72.69,61.55Zm0-2,.12,0a.42.42,0,0,0-.45,0l.11,0,.11.05A.16.16,0,0,1,72.68,59.51Zm.24.89v-.31l0,0a.66.66,0,0,1-.15.05.31.31,0,0,0-.13.06v.15l.14.07a.34.34,0,0,1,.14,0Zm0,.51a.67.67,0,0,1,0-.2.37.37,0,0,0,0-.18l-.13-.05-.13,0,0,0v.36a.23.23,0,0,0,0,0,.46.46,0,0,1,.22.07Zm0,.52a.74.74,0,0,1,0-.21.34.34,0,0,0,0-.2l-.15,0-.12,0v.36l0,0,.12,0,.12,0Zm0,1.52v-.18a.86.86,0,0,0,0-.16h0l-.12,0-.12,0,0,0v.13s0,0,0,0l.1,0,.12,0Zm0,.51a.74.74,0,0,1,0-.21.32.32,0,0,0,0-.19L72.75,63l-.12,0v.37l0,0,.12,0,.12,0Zm0,.52a1.48,1.48,0,0,1,0-.21.34.34,0,0,0,0-.2l-.14,0a.28.28,0,0,0-.13,0v.37l0,0,.12,0,.12,0Zm.12-4.6a.45.45,0,0,0,.11,0,.39.39,0,0,0-.44,0l.1,0,.12,0A.16.16,0,0,1,73.06,59.38Zm.42.37a.16.16,0,0,0,.09,0l-.08,0a.11.11,0,0,1-.07,0h0a.06.06,0,0,1,0,.06.06.06,0,0,0,0,0A.16.16,0,0,1,73.48,59.75Zm-.07,2.58.07,0,.09,0a.1.1,0,0,0-.07,0l-.06,0h0a0,0,0,0,1,0,.05s0,0,0,0Z"/>
    <path class="cls-5" d="M74.5,64.37l-.19-.06v-.13a.21.21,0,0,0,0-.13.7.7,0,0,0-.18,0,.51.51,0,0,1-.17-.08.75.75,0,0,1,0-.26,2.62,2.62,0,0,0,0-.28l0,0a5.84,5.84,0,0,0,.59-.2.65.65,0,0,1,.6.07.14.14,0,0,1,0,.09v.1l0,0,.13,0,.13,0,0,0v-.64l0,0-.18,0a.38.38,0,0,1-.17-.08.14.14,0,0,1,0-.11.3.3,0,0,0,0-.13.64.64,0,0,0-.18-.06.77.77,0,0,1-.17-.07.16.16,0,0,1,0-.1v-.11l0,0-.17-.07-.18-.06,0,0v-.2l0,0-.17,0-.18-.07c0-.18,0-.35,0-.53s0-.35,0-.53l.17-.07.19-.07,0,0v-.46l0,0,.52-.17.53-.18a1.29,1.29,0,0,1,.44-.13.7.7,0,0,1,.44.1l0,0v.11a.23.23,0,0,0,0,.11.49.49,0,0,0,.17.06.67.67,0,0,1,.18.07,2.44,2.44,0,0,1,0,.27,2.8,2.8,0,0,0,0,.29l-.29.1-.3.12a.66.66,0,0,1-.6-.08l0,0v-.19a.28.28,0,0,0-.13,0,.37.37,0,0,1-.14,0s0,0,0,.06v.64l0,0,.16.06a.58.58,0,0,1,.17.06l0,0v.2l0,0,.17.06.18.07a.49.49,0,0,1,0,.12.17.17,0,0,0,0,.12.67.67,0,0,0,.18.07.45.45,0,0,1,.18.07v.22l0,0a1.82,1.82,0,0,1,.33.11l0,0v1l-.07,0a.91.91,0,0,0-.29.1.65.65,0,0,0,0,.24,2.26,2.26,0,0,1,0,.26A1,1,0,0,1,76,64a2,2,0,0,0-.28.11c-.19,0-.36.11-.53.17a5.25,5.25,0,0,1-.52.17h0A.71.71,0,0,0,74.5,64.37Zm-.21-3a1.41,1.41,0,0,1,0-.2.41.41,0,0,0,0-.19.35.35,0,0,1-.14-.06l-.13,0v.21a.39.39,0,0,0,0,.19.31.31,0,0,0,.12,0,.28.28,0,0,1,.12,0Zm0-.51a1.41,1.41,0,0,1,0-.2.34.34,0,0,0,0-.2l-.13,0-.11,0h0a.67.67,0,0,1,0,.2,1.15,1.15,0,0,0,0,.19l.14,0,.13,0Zm0,3v-.36l0,0-.13,0-.11,0h0v.19a1.15,1.15,0,0,0,0,.19l.13,0,.13.05Zm.13-3.57a.17.17,0,0,0,.1,0h0a.51.51,0,0,0-.45,0l.13,0,.11.05Zm0,3.05a.13.13,0,0,0,.1,0l-.12,0a.23.23,0,0,0-.11,0l-.11,0-.1,0,.11,0,.12,0A.2.2,0,0,1,74.46,63.42Zm.22-1.63a1.21,1.21,0,0,1,0-.18,1.2,1.2,0,0,0,0-.19h0l-.09,0a.19.19,0,0,0-.09,0h0l-.06,0a.11.11,0,0,1,0,.08.11.11,0,0,0,0,.08.52.52,0,0,0,.13.06l.12,0Zm0-1.53a.74.74,0,0,1,0-.21.35.35,0,0,0,0-.2l-.12,0a.28.28,0,0,1-.12,0h0v.37a.08.08,0,0,0,0,0,.9.9,0,0,1,.22.07Zm0,4.06V64l0,0-.13,0a.53.53,0,0,1-.12,0l0,0v.13l0,0,.12,0,.11,0Zm.13-4.59.11,0a.49.49,0,0,0-.44,0l.11,0,.1,0Zm0,3.56.11,0-.11,0a.29.29,0,0,1-.1,0,.59.59,0,0,0-.23.08.85.85,0,0,1,.21.07A.31.31,0,0,1,74.84,63.29ZM75.06,62a1.09,1.09,0,0,1,0-.18v0l-.15.05-.13.06v.15a.61.61,0,0,0,.14.07l.14,0A.88.88,0,0,0,75.06,62Zm.14-2.41a.18.18,0,0,0,.11,0l-.12,0-.1,0a.78.78,0,0,1-.23.07l.12,0,.11,0A.27.27,0,0,1,75.2,59.6Zm0,1.55.08,0a.13.13,0,0,0,.08,0l-.08,0-.06,0h0a0,0,0,0,1,0,.05.07.07,0,0,0,0,0Zm0,2.55a.11.11,0,0,1,.07,0l.08,0-.07,0-.07,0h0a.09.09,0,0,1,0,0,.07.07,0,0,0,0,.05Zm.26-1.17v-.17a.86.86,0,0,0,0-.16h0l-.12,0-.12,0,0,0a.14.14,0,0,1,0,.09.06.06,0,0,0,0,.07.31.31,0,0,0,.12,0,.28.28,0,0,1,.12,0Zm.14-3.05a.28.28,0,0,0,.11,0l-.12,0-.11,0-.07,0-.07,0,0,0h0l.12,0,.1,0Zm0,4.07.11,0,0,0-.23,0a.27.27,0,0,0-.22.07l.12,0,.11.05Zm0-2,.07,0h.07l0,0-.1,0a.14.14,0,0,0-.09,0v.06a.11.11,0,0,0,0,0Zm.29,1.39a.6.6,0,0,1,0-.19,1,1,0,0,0,0-.17h0l-.09,0-.09,0h0l0,0v.08a.11.11,0,0,0,0,.08l.13.06.13,0Zm0-2.56V60l0,0-.13.05-.13,0,0,0v.13s0,0,0,0a.66.66,0,0,1,.22.08Zm0,3.06a.5.5,0,0,1,0-.21.31.31,0,0,0,0-.19L75.66,63l-.13,0v.37a.12.12,0,0,0,0,0,.23.23,0,0,1,.11,0l.11,0ZM76,59.35a.21.21,0,0,0,.11,0L76,59.26l-.11,0-.12.05a.19.19,0,0,0-.09,0,.85.85,0,0,1,.22.08A.22.22,0,0,1,76,59.35Zm0,2.56.15-.06a.47.47,0,0,0-.14-.05l0,0v0s0,0,0,0Zm.37-2.16.06,0,.1,0-.08,0a.07.07,0,0,0-.06,0h0a.06.06,0,0,1,0,.06.06.06,0,0,0,0,0Zm0,2.54.08,0s0,0,.07,0l-.07,0-.07,0h0v.05s0,0,0,0Z"/>
    <path class="cls-5" d="M77.21,64.3a.24.24,0,0,1,0-.12.31.31,0,0,0,0-.13A.49.49,0,0,0,77,64a.45.45,0,0,1-.18-.07c0-.6,0-1.2,0-1.79s0-1.2,0-1.82a.82.82,0,0,1,.32-.11l0,0,0,0v-.45l0,0a3.18,3.18,0,0,0,1-.35,1.09,1.09,0,0,1,1,0,.37.37,0,0,1,0,.11.2.2,0,0,0,0,.11l0,0,.17.07.18.06a5.09,5.09,0,0,1,0,.55,4.87,4.87,0,0,0,0,.54c0,.44,0,.87,0,1.28s0,.84,0,1.26l-.33.13,0,0v.46h0a0,0,0,0,1,0,0,7.32,7.32,0,0,0-.75.25q-.37.14-.75.24h0Zm0-3.43a.41.41,0,0,1,0-.19.61.61,0,0,0,0-.19.48.48,0,0,0-.14-.05.28.28,0,0,1-.12,0l0,0v.37a.35.35,0,0,0,.14.06l.14,0Zm0,.53a1.48,1.48,0,0,1,0-.21.31.31,0,0,0,0-.19L77,61l-.11,0h0v.37s0,0,.05.05a.47.47,0,0,1,.22.07Zm0,.49a1.34,1.34,0,0,1,0-.2.37.37,0,0,0,0-.18l-.13,0-.13,0,0,0v.36a.33.33,0,0,0,.13.07l.15.05Zm0,.5v-.34l0,0L77,62l-.11,0h0v.37s0,0,0,0a1.11,1.11,0,0,1,.22.07Zm0,.53a.5.5,0,0,1,0-.21.41.41,0,0,0,0-.19l-.15,0-.13,0v.36l0,0a.45.45,0,0,1,.11,0l.11,0Zm0,.51a1.41,1.41,0,0,1,0-.2.34.34,0,0,0,0-.2L77,63l-.11,0h0v.36s0,0,0,0a.93.93,0,0,1,.22.09Zm0,.52a1.48,1.48,0,0,1,0-.21.45.45,0,0,0,0-.2l-.13,0a.29.29,0,0,1-.13,0l0,0v.35l0,0a.25.25,0,0,0,.12,0l.12.05Zm.13-3.58a.22.22,0,0,0,.11,0l-.12,0-.11,0-.11,0a.23.23,0,0,0-.1,0l.1,0,.12.05A.22.22,0,0,1,77.33,60.37Zm.24-.13a.67.67,0,0,1,0-.2.43.43,0,0,0,0-.19l-.13,0-.12-.05h0v.37a.12.12,0,0,0,0,0,.2.2,0,0,1,.11,0l.11,0Zm0,4.07a1,1,0,0,1,0-.17,1,1,0,0,0,0-.17.32.32,0,0,0-.16,0,.46.46,0,0,0-.14.07v.14a.61.61,0,0,0,.14.07.29.29,0,0,1,.14,0Zm.12-4.58a.21.21,0,0,0,.11,0,.39.39,0,0,0-.44,0,.9.9,0,0,1,.22.07A.21.21,0,0,1,77.71,59.73Zm.39-.13a.23.23,0,0,0,.11-.05l-.12,0-.1,0a.07.07,0,0,1-.08,0,.24.24,0,0,1-.15.06l.11,0,.12,0Zm0,4.09.09,0,.08,0v0l-.1,0a.14.14,0,0,0-.09,0,.06.06,0,0,1,0,.06s0,0,0,0Zm0-.25.13,0,.13,0c0-.55,0-1.08,0-1.61s0-1.06,0-1.6h0l-.13,0-.13,0c0,.54,0,1.08,0,1.61s0,1.06,0,1.6Zm.4-4a.2.2,0,0,0,.11-.06l-.12,0a.19.19,0,0,0-.1,0l-.08,0a.08.08,0,0,1-.07,0l0,0h0l.1,0,.12,0A.45.45,0,0,1,78.47,59.48Zm0,4.06.1,0a.51.51,0,0,0-.44,0l.11,0,.11.05A.43.43,0,0,1,78.5,63.54Zm.22-3.18v-.31l0,0-.14.05-.14.06a.22.22,0,0,1,0,.08.19.19,0,0,0,0,.08.39.39,0,0,0,.14,0l.12.05Zm0,2.54v-.35l0,0-.13,0-.12,0,0,0a.67.67,0,0,1,0,.2.55.55,0,0,0,0,.18l.13.05.12,0Zm0-2a.67.67,0,0,1,0-.2.41.41,0,0,0,0-.19.37.37,0,0,0-.14,0,.31.31,0,0,1-.12,0l0,0v.37a.35.35,0,0,0,.14.06.35.35,0,0,1,.14.06Zm0,.51a1.41,1.41,0,0,1,0-.2.41.41,0,0,0,0-.19l-.13,0-.13-.05h0v.37a.07.07,0,0,0,0,0,.27.27,0,0,1,.12,0l.11,0Zm0,.51a.67.67,0,0,1,0-.2.34.34,0,0,0,0-.2l-.15,0-.12,0v.36l0,0,.12,0,.12,0Zm0,.51a.45.45,0,0,1,0-.2.62.62,0,0,0,0-.19l-.14,0-.12,0h0v.37a.23.23,0,0,0,0,.05.66.66,0,0,1,.22.06Zm0,1a.74.74,0,0,1,0-.21.34.34,0,0,0,0-.2l-.14,0a.31.31,0,0,0-.13,0v.37l0,0,.12,0a.31.31,0,0,1,.12,0Zm.13-4.09.12,0-.13,0-.11,0-.12.05-.1,0,.11,0,.11,0Zm.5.35a.11.11,0,0,0-.08,0l-.07,0h0a.06.06,0,0,1,0,.06s0,0,0,0Z"/>
    <path class="cls-5" d="M79.9,64.49l-.19-.07,0-4.75.31-.1.3-.11a.63.63,0,0,1,.62.07v.74a.09.09,0,0,0,.06.06l.16.05.16.06,0,0v.2l0,0,.14,0a.29.29,0,0,0,.16,0v-.64c0-.21,0-.43,0-.66V59l.23-.1a.74.74,0,0,1,.24-.05.49.49,0,0,0,.17.06.7.7,0,0,1,.19.06l0,0,0,4.72-.15.07-.15.06-.16,0a.43.43,0,0,1-.16,0l-.1,0-.11-.05,0,0c0-.21,0-.42,0-.63s0-.43,0-.64a.64.64,0,0,0-.18-.06l-.18-.07a.41.41,0,0,1,0-.11.2.2,0,0,0,0-.11s0-.06-.06-.06L81,62h0a.25.25,0,0,0,0,.12v2.16l0,0-.4.14-.41.13h0Zm.18-3.71v-.36L80,60.36h0l-.1,0-.09,0,0,0v.2a1.15,1.15,0,0,0,0,.19l.13,0,.14,0Zm0,1a.61.61,0,0,1,0-.19.67.67,0,0,0,0-.2l-.14,0-.13-.05,0,0a1.41,1.41,0,0,1,0,.2.59.59,0,0,0,0,.19.29.29,0,0,0,.13,0l.13.05Zm0-1.55a.74.74,0,0,1,0-.21.51.51,0,0,0,0-.21l-.13,0-.12,0h0v.37l0,0,.12,0,.12,0Zm0,1v-.38l0,0-.13,0-.1,0h0v.37l0,0a.28.28,0,0,0,.12,0l.13,0Zm0,1a.74.74,0,0,1,0-.21.39.39,0,0,0,0-.21.42.42,0,0,1-.15,0l-.13,0v.37l0,0,.12,0,.13,0Zm0,.51a.61.61,0,0,1,0-.19.68.68,0,0,0,0-.2l-.14,0-.12-.06,0,0v.38l0,0a1.06,1.06,0,0,1,.25.09Zm0,.52a.41.41,0,0,1,0-.19.67.67,0,0,0,0-.2.43.43,0,0,0-.14,0,.31.31,0,0,1-.13-.06l0,0v.37a.27.27,0,0,0,.14.07.66.66,0,0,1,.15,0Zm0,.53a.69.69,0,0,1,0-.2.61.61,0,0,0,0-.19l-.14-.05-.13-.06,0,0v.38s0,0,0,0a.57.57,0,0,1,.23.08Zm0,.53v-.38l0,0-.14,0-.12,0v.37l0,0,.12,0,.13,0Zm.13-4.71.11,0a.41.41,0,0,0-.45,0l.11,0,.11,0Zm.4-.13.11,0-.12,0a.21.21,0,0,1-.11,0l-.12.05-.11,0,.11,0,.12,0Zm.35.93.08,0a.06.06,0,0,0,.06,0c-.1,0-.16,0-.17,0a.13.13,0,0,1,0,.06s0,0,0,0ZM81.26,62v-.37l-.27.09,0,0v.13l0,0,.12,0,.12,0Zm.1-1,.09,0,.07,0a.47.47,0,0,0-.14,0h0v.06s0,0,0,0Zm.3,1.42V62l-.16.05a.31.31,0,0,0-.13.06v.15a.31.31,0,0,0,.13.06l.13.05Zm.1-1a.13.13,0,0,1,.08,0l.08,0-.08,0-.06,0h0v0a.09.09,0,0,0,0,.05Zm.3,1.94a.5.5,0,0,1,0-.21.28.28,0,0,0,0-.2l-.13,0-.12,0h0a1.48,1.48,0,0,1,0,.21.61.61,0,0,0,0,.19l.14,0,.13.05Zm0-3.64a.5.5,0,0,1,0-.21.44.44,0,0,0,0-.2l-.14-.05-.13,0v.4l.12.05a.35.35,0,0,1,.14.06Zm0,.51a1.41,1.41,0,0,1,0-.2.46.46,0,0,0,0-.2l-.14,0a.22.22,0,0,0-.13,0V60a.21.21,0,0,0,.13,0,.31.31,0,0,1,.13.06Zm0,.53a.74.74,0,0,1,0-.21.65.65,0,0,0,0-.2l-.15-.05a.33.33,0,0,0-.13,0v.4l.13.05a.42.42,0,0,1,.14.06Zm0,.5A.61.61,0,0,1,82,61a.4.4,0,0,0,0-.19l-.14-.06a.35.35,0,0,0-.14,0v.39a.23.23,0,0,0,.12.06.34.34,0,0,1,.14,0Zm0,1.58v-.34l0,0-.15.06-.13.06v.16a.21.21,0,0,0,.13,0l.14.05Zm0,1V63.4l0,0-.13,0-.11,0h0v.4l.13.05a.24.24,0,0,1,.13,0Zm.13-4.69a.31.31,0,0,0,.1,0,1,1,0,0,0-.23,0,.31.31,0,0,0-.22.06l.11,0,.11,0Z"/>
  
    <path class="cls-5" d="M30.75,64.49a.64.64,0,0,1-.18-.06l-.09-4.62a5.69,5.69,0,0,0,1.15-.45,1.49,1.49,0,0,1,1.18-.13l0,0s0,.07,0,.11a.27.27,0,0,0,0,.12l.17,0,.17.07,0,0,0,1.14a.88.88,0,0,0,0,.23.69.69,0,0,1,0,.2l0,0-.14,0-.15.07a1.82,1.82,0,0,0,0,.33c0,.12,0,.23,0,.34l0,0,.17.05.17.06,0,0,0,1.54,0,0-.59.2a.63.63,0,0,1-.58-.05l0,0,0-1.21,0,0a.16.16,0,0,0-.11-.05.34.34,0,0,1-.14,0h0c0,.28,0,.57,0,.86s0,.57,0,.86l-.41.17a2.58,2.58,0,0,1-.42.12h0Zm.1-4.12a.74.74,0,0,1,0-.21.51.51,0,0,0,0-.2l-.12,0-.11,0h0v.19a.58.58,0,0,0,0,.19l.13.05.12,0Zm0,1a.74.74,0,0,1,0-.21.45.45,0,0,0,0-.2l-.12,0-.11,0h0v.2a.58.58,0,0,0,0,.19l.13,0,.12,0Zm0,1a.67.67,0,0,1,0-.2.45.45,0,0,0,0-.2l-.12,0-.11,0h0v.2a.58.58,0,0,0,0,.19l.13,0,.12.05Zm0-1.53a1.34,1.34,0,0,1,0-.2.37.37,0,0,0,0-.18l-.14-.05a.22.22,0,0,0-.13,0v.39a.29.29,0,0,0,.13.05l.13,0Zm0,1v-.35l0,0-.12,0-.11,0h0v.38a.21.21,0,0,0,.13,0,.29.29,0,0,1,.13,0Zm0,1a1.41,1.41,0,0,1,0-.2.41.41,0,0,0,0-.19l-.14-.05a.2.2,0,0,0-.13,0v.38a.29.29,0,0,0,.13.05.21.21,0,0,1,.13,0Zm0,.52a1.41,1.41,0,0,1,0-.2.5.5,0,0,0,0-.21l-.14,0-.13,0v.38a.29.29,0,0,0,.13.05.31.31,0,0,1,.13.06Zm0,.49a1.21,1.21,0,0,1,0-.19.4.4,0,0,0,0-.19l-.12,0-.11,0h0v.39a.28.28,0,0,0,.13,0l.13,0Zm0,.51a1.41,1.41,0,0,1,0-.2.37.37,0,0,0,0-.18l-.14,0a.22.22,0,0,0-.13,0,.74.74,0,0,1,0,.21,1.23,1.23,0,0,0,0,.2l.12,0a.31.31,0,0,1,.12,0ZM31,59.84l.12,0v0l-.12,0-.11,0a.31.31,0,0,1-.12.05.23.23,0,0,0-.1,0l.12,0,.12,0A.33.33,0,0,1,31,59.84Zm.39-.13.11,0a.49.49,0,0,0-.45,0l.1,0,.12,0A.17.17,0,0,1,31.38,59.71Zm.37-.14a.24.24,0,0,0,.12,0l-.1,0-.1,0a.52.52,0,0,0-.25.09.56.56,0,0,1,.22.06Zm.11,1.77.13-.05,0,0c0-.19,0-.38,0-.57a5.06,5.06,0,0,0,0-.55h0l-.12,0-.11,0,0,0c0,.2,0,.39,0,.59s0,.38,0,.57A.43.43,0,0,1,31.86,61.34Zm-.11.29.08,0,.07,0a.11.11,0,0,0-.07,0l-.07,0h0v.06s0,0,0,0Zm.29.87a1,1,0,0,1,0-.17.47.47,0,0,0,0-.17h0l-.12.05-.11,0,0,0a.14.14,0,0,1,0,.09.22.22,0,0,0,0,.08l.14,0,.12.05Zm.13-1a.28.28,0,0,0,.12,0,.48.48,0,0,0-.45,0l.11,0,.11,0A.34.34,0,0,1,32.17,61.48Zm0-2,.12,0a.42.42,0,0,0-.45,0,.42.42,0,0,1,.12,0l.11,0Zm.25.89V60l0,0a.66.66,0,0,1-.15.05.24.24,0,0,0-.13.07v.14a.27.27,0,0,0,.14.07l.13,0Zm0,.51a.67.67,0,0,1,0-.2.55.55,0,0,0,0-.18l-.14-.05-.12,0,0,0v.36s0,0,0,0a.65.65,0,0,1,.23.07Zm0,.52a.74.74,0,0,1,0-.21.64.64,0,0,0,0-.2.33.33,0,0,1-.15,0l-.13,0v.37l0,0,.12,0a.31.31,0,0,1,.12.05Zm0,1.52V62.7a.86.86,0,0,0,0-.16h0l-.12,0-.12,0,0,0v.13s0,0,0,0l.1,0,.13,0Zm0,.51a.74.74,0,0,1,0-.21.43.43,0,0,0,0-.19l-.15-.05-.12,0v.37l0,0a.42.42,0,0,0,.12,0l.12,0Zm0,.52a.74.74,0,0,1,0-.21.45.45,0,0,0,0-.2l-.14,0a.28.28,0,0,0-.13,0v.37l0,0,.12.05.12,0Zm.06-4.6.11,0a.39.39,0,0,0-.44,0l.1,0,.12,0A.16.16,0,0,1,32.51,59.31Zm.43.36.08,0-.07,0a.09.09,0,0,1-.07,0h0v.06s0,0,0,.05A.12.12,0,0,1,32.94,59.67Zm0,2.58a.11.11,0,0,0,.06,0l.09,0-.07,0a.09.09,0,0,1-.06,0h0v.05a0,0,0,0,0,0,0Z"/>
    <path class="cls-5" d="M34.4,64.17a.71.71,0,0,1-.18-.08,8.55,8.55,0,0,1,0-.88,6.73,6.73,0,0,0-.05-.89.58.58,0,0,0-.17-.06l-.18-.06a.18.18,0,0,1,0-.1V62l0,0a.43.43,0,0,0-.17-.06.64.64,0,0,1-.18-.06c0-.34,0-.69,0-1s0-.69,0-1v0l.29-.1.29-.11a.65.65,0,0,1,.6.06v0l0,1.69,0,0,.11,0,.12,0,0-.05v-.71l0-1.28.29-.1.29-.12a.66.66,0,0,1,.61.06l0,0,0,2.07-.16.06-.16.06-.06,0v.49a.52.52,0,0,1-.16.06.58.58,0,0,0-.17.06l0,.05,0,2,0,0,0,0a1.9,1.9,0,0,0-.38.13,2.91,2.91,0,0,1-.39.12h0A.64.64,0,0,0,34.4,64.17Zm-.65-3.36v-.36l0,0-.12,0-.11,0h0v.2a.5.5,0,0,0,0,.18.29.29,0,0,0,.13.05l.12,0Zm0-.5a.67.67,0,0,1,0-.2.45.45,0,0,0,0-.2.28.28,0,0,0-.12,0l-.11,0,0,0v.36a.23.23,0,0,0,.12.06l.13,0Zm0,1a.74.74,0,0,1,0-.21.48.48,0,0,0,0-.2l-.1,0-.13,0h0v.37a.23.23,0,0,0,.12.06l.13,0Zm0,.5v-.35l0,0-.12,0-.11,0h0v.36s0,.05.05.05a.2.2,0,0,1,.11,0l.11,0Zm.11-2,.11,0-.11,0-.12,0-.07,0-.07,0h-.07l.11,0,.11,0Zm.28,2.42v-.33l0,0-.26.09,0,0v.13a.1.1,0,0,0,0,0l.12,0,.11,0Zm.11-2.55.1,0-.12,0-.11,0-.12.05a.19.19,0,0,0-.09,0,.2.2,0,0,1,.11,0,.45.45,0,0,0,.11,0Zm.3,3.43a.45.45,0,0,1,0-.2.65.65,0,0,0,0-.19l-.13,0-.13,0,0,0a1.34,1.34,0,0,1,0,.2,1.09,1.09,0,0,0,0,.18l.14.05.12,0Zm0-.52a.43.43,0,0,1,0-.16.91.91,0,0,0,0-.17h0l-.12.05-.11,0,0,0v.13l0,0,.12,0a.31.31,0,0,1,.12.05Zm0,1a.45.45,0,0,1,0-.2.34.34,0,0,0,0-.2l-.14,0a.32.32,0,0,0-.14,0v.37l0,0,.12,0,.12,0Zm0,.5a.41.41,0,0,1,0-.19.65.65,0,0,0,0-.19l-.13,0-.13-.05,0,0V64l0,0,.24.08Zm0-2.53a.11.11,0,0,1,.08,0l.07,0a.09.09,0,0,0-.07,0l-.07,0h0v.06s0,0,0,0Zm.43-.15a.19.19,0,0,0,.11-.05l-.23,0a.27.27,0,0,0-.22.07l.23.07A.16.16,0,0,1,35.07,61.42Zm.22-.13a.67.67,0,0,1,0-.2.43.43,0,0,0,0-.19l-.14,0-.12,0h0a.67.67,0,0,1,0,.2.62.62,0,0,0,0,.19l.14.05.12,0Zm0-1.53v-.34l0-.05-.15,0-.13,0v.36l0,0,.12,0,.12.05Zm0,.52a.67.67,0,0,1,0-.2.44.44,0,0,0,0-.2l-.15-.05a.19.19,0,0,0-.13,0v.36s0,0,0,0a.27.27,0,0,1,.12,0l.11,0Zm0,.51a.67.67,0,0,1,0-.2.44.44,0,0,0,0-.2l-.14,0-.12,0,0,0v.35l0,0,.12,0,.12,0Zm.14-1.55.1,0a.45.45,0,0,0-.45,0l.1,0,.12,0Zm.36-.13a.34.34,0,0,0,.12,0l-.11,0-.1,0-.13,0-.12,0,.12,0a.21.21,0,0,1,.11,0Z"/>
    <path class="cls-5" d="M36.51,64.38a.73.73,0,0,1-.19-.07l-.1-4.73c.39-.16.78-.31,1.17-.44s.78-.26,1.18-.42a.54.54,0,0,1,.21.05.88.88,0,0,0,.23.07v.58h0s0,0,0,0l-.39.14a3.25,3.25,0,0,0-.4.15l-.36.12a2.39,2.39,0,0,0-.32.11l0,0,0,1.14,0,0,.55-.18a.59.59,0,0,1,.57.06l0,0v.55a5.29,5.29,0,0,1-.53.22l-.58.19h0s0,0,0,0c0,.2,0,.39,0,.59a3.86,3.86,0,0,0,0,.58,2.47,2.47,0,0,0,.73-.26A.8.8,0,0,1,39,63l.06,0a2.72,2.72,0,0,1,0,.28v.31l-.64.22-.65.23-.55.2a3.5,3.5,0,0,1-.55.17h0A.64.64,0,0,0,36.51,64.38Zm.12-4.24a.46.46,0,0,1,0-.2.65.65,0,0,0,0-.19.43.43,0,0,0-.14,0l-.12-.05,0,0v.37a.33.33,0,0,0,.13.07l.15.05Zm0,.53a.66.66,0,0,1,0-.2.39.39,0,0,0,0-.21l-.13,0-.11,0h0v.38s0,0,0,0l.23.06Zm0,.51a.62.62,0,0,1,0-.19.46.46,0,0,0,0-.2l-.14,0-.12,0,0,0v.37a.23.23,0,0,0,.14.07l.14.05Zm0,.52v-.36l0,0-.13,0-.11,0h0v.38s0,0,0,0a1.06,1.06,0,0,1,.23.08Zm0,.54v-.36l0-.05-.15,0-.13,0v.38s0,0,0,0l.12,0,.11,0Zm0,.52a.74.74,0,0,1,0-.21.35.35,0,0,0,0-.2l-.12,0-.12,0h0v.37s0,.05,0,.05l.11,0,.12.05Zm0,.53a.74.74,0,0,1,0-.21.5.5,0,0,0,0-.21l-.14,0a.21.21,0,0,1-.12,0l0,0v.36l0,0,.12,0a.31.31,0,0,1,.12,0Zm0,.51a.74.74,0,0,1,0-.21.35.35,0,0,0,0-.2.86.86,0,0,0-.28-.06v.37a.1.1,0,0,0,0,0l.11,0,.11,0Zm0,.53a.74.74,0,0,1,0-.21.44.44,0,0,0,0-.2l-.14,0-.12,0,0,0v.35l0,0,.12,0,.13,0Zm.06-4.71.11,0a.27.27,0,0,0-.12,0l-.12,0-.11,0-.1,0,.22.08Zm.28-.1a.28.28,0,0,1,.12,0,.28.28,0,0,0,.11,0,.48.48,0,0,0-.47,0l.12,0,.11,0Zm.5-.18.13,0-.11,0-.09,0a.6.6,0,0,0-.27.09l.11,0,.12,0A.18.18,0,0,1,37.55,59.34Zm0,2.11a.13.13,0,0,1,.08,0l.08,0-.16,0,0,0v0s0,0,0,.05Zm.2,2a.11.11,0,0,0-.08,0l-.08,0h0v.07s0,0,0,0A.49.49,0,0,1,37.75,63.48ZM38,59.2l.1,0a.48.48,0,0,0-.45,0l.22.08Zm0,2.09.11,0-.24-.07-.12,0-.1,0,.11,0,.11,0A.27.27,0,0,1,38,61.29Zm0,2.09.11-.05a.56.56,0,0,0-.46,0l.11,0,.11,0Zm.3-4.32.12,0-.11,0-.11,0-.13,0L38,59l.1,0,.13,0A.24.24,0,0,1,38.33,59.06Zm0,2.09a.3.3,0,0,0,.11,0,.41.41,0,0,0-.45,0l.12,0,.11,0A.34.34,0,0,1,38.37,61.15Zm.05,2.09a.21.21,0,0,0,.1-.06.27.27,0,0,1-.12,0l-.1,0a.29.29,0,0,1-.13.05.23.23,0,0,0-.1,0l.12,0,.11,0A.22.22,0,0,1,38.42,63.24Zm.31-4.32a.15.15,0,0,0,.1,0,.66.66,0,0,0-.23,0,.32.32,0,0,0-.23.06l.12,0,.12,0A.33.33,0,0,1,38.73,58.92Zm.07,4.18.13-.05a.28.28,0,0,1-.13,0l-.12,0-.12.05-.11,0,.23.09Z"/>
    <path class="cls-5" d="M39.48,64.32a.6.6,0,0,1-.19-.06l-.09-4.63a5.11,5.11,0,0,0,1.15-.44,1.49,1.49,0,0,1,1.18-.13l0,0v.11a.14.14,0,0,0,0,.12l.16,0,.17.06,0,0,0,1.14a1.62,1.62,0,0,0,0,.23.71.71,0,0,1,0,.2l0,0-.15,0-.14.07a1.22,1.22,0,0,0,0,.33,1.93,1.93,0,0,1,0,.34l0,0,.16.05L42,62l0,0,0,1.54,0,0c-.19.06-.39.12-.58.2a.65.65,0,0,1-.59-.05l0,0,0-1.21,0,0a.16.16,0,0,0-.11-.05.39.39,0,0,1-.14,0h0c0,.28,0,.57,0,.85s0,.58,0,.87l-.4.17a3.31,3.31,0,0,1-.42.12h0A.64.64,0,0,0,39.48,64.32Zm.09-4.12a.74.74,0,0,1,0-.21.46.46,0,0,0,0-.2l-.12,0-.12,0h0a1.21,1.21,0,0,1,0,.19.59.59,0,0,0,0,.19l.13.05.12,0Zm0,1a.74.74,0,0,1,0-.21.44.44,0,0,0,0-.2l-.12,0-.12,0h0a1.41,1.41,0,0,1,0,.2.51.51,0,0,0,0,.18l.13.06.12,0Zm0,1a.67.67,0,0,1,0-.2.51.51,0,0,0,0-.21l-.12,0-.12,0h0a1.34,1.34,0,0,1,0,.2.59.59,0,0,0,0,.19l.13,0,.12,0Zm0-1.53a.67.67,0,0,1,0-.2,1.1,1.1,0,0,0,0-.18.35.35,0,0,1-.14-.06.35.35,0,0,0-.14,0v.38a.2.2,0,0,0,.12.06.39.39,0,0,1,.14,0Zm0,1v-.35l0,0-.12,0-.12,0h0v.38a.18.18,0,0,0,.12,0,.39.39,0,0,1,.14.05Zm0,1a.67.67,0,0,1,0-.2,1.23,1.23,0,0,0,0-.19l-.14-.05a.35.35,0,0,0-.14,0v.39a.26.26,0,0,0,.12.05.37.37,0,0,1,.14,0Zm0,.52a.74.74,0,0,1,0-.21,1.5,1.5,0,0,0,0-.2l-.14,0a.7.7,0,0,0-.14,0v.38a.26.26,0,0,0,.12.05.42.42,0,0,1,.14.06Zm0,.49a.61.61,0,0,1,0-.19,1.11,1.11,0,0,0,0-.19l-.12,0-.12,0h0v.39a.25.25,0,0,0,.12,0l.14.05Zm0,.51a.67.67,0,0,1,0-.2,1.1,1.1,0,0,0,0-.18l-.14-.05a.25.25,0,0,0-.14,0,1.48,1.48,0,0,1,0,.21.46.46,0,0,0,0,.2l.12,0a.67.67,0,0,1,.12.06Zm.07-4.59.11,0v0l-.11,0-.11,0a.29.29,0,0,1-.13,0l-.1,0,.12,0,.12,0A.24.24,0,0,1,39.72,59.67Zm.38-.14a.42.42,0,0,0,.12,0,.51.51,0,0,0-.46,0l.1,0,.12.05Zm.38-.13a.2.2,0,0,0,.11,0l-.09,0-.1,0a.41.41,0,0,0-.25.09.61.61,0,0,1,.22.06A.28.28,0,0,1,40.48,59.4Zm.11,1.77.12-.05,0,0c0-.19,0-.38,0-.57a5.07,5.07,0,0,0,0-.55v0l-.12.05-.12,0,0,0c0,.2,0,.39,0,.58s0,.39,0,.58A.39.39,0,0,1,40.59,61.17Zm-.12.29.08,0,.08,0a.13.13,0,0,0-.08,0l-.06,0h0a.06.06,0,0,1,0,.06s0,0,0,0Zm.29.87v-.17a.47.47,0,0,0,0-.17h0l-.12.05-.12,0,0,0v.09s0,0,0,.08l.14.05.12,0Zm.14-1,.11,0a.48.48,0,0,0-.45,0l.11,0,.11,0A.31.31,0,0,1,40.9,61.31Zm0-2,.11,0a.4.4,0,0,0-.44,0,.2.2,0,0,1,.11,0l.11,0Zm.25.89v-.31l0,0-.14,0a.26.26,0,0,0-.13.06v.15a.37.37,0,0,0,.14.07l.14,0Zm0,.51a1.34,1.34,0,0,1,0-.2.37.37,0,0,0,0-.18l-.13,0-.13-.05,0,0v.36s0,0,0,0a.61.61,0,0,1,.22.07Zm0,.52a1.48,1.48,0,0,1,0-.21.34.34,0,0,0,0-.2.42.42,0,0,1-.15,0l-.13,0v.37l0,0,.12,0,.12,0Zm0,1.52a1.09,1.09,0,0,1,0-.18.43.43,0,0,0,0-.16h0l-.12,0-.11,0,0,0v.13s0,0,0,0a.47.47,0,0,1,.09,0l.13,0Zm0,.51a1.48,1.48,0,0,1,0-.21.31.31,0,0,0,0-.19l-.15,0-.13,0v.37l0,0,.12,0,.12.05Zm0,.51a1.34,1.34,0,0,1,0-.2.34.34,0,0,0,0-.2l-.14,0a.35.35,0,0,0-.14,0v.37l0,0,.12.05.12,0Zm0-4.59.11,0a.37.37,0,0,0-.44,0l.11,0,.12,0A.14.14,0,0,1,41.23,59.14Zm.43.36a.16.16,0,0,0,.09,0l-.08,0a.09.09,0,0,1-.07,0h0v.06a.11.11,0,0,0,0,0A.12.12,0,0,1,41.66,59.5Zm0,2.58.07,0,.09,0a.11.11,0,0,0-.07,0s0,0-.07,0h0V62a.07.07,0,0,0,0,0Z"/>
    <path class="cls-5" d="M42.75,64.11l-.19-.06a.28.28,0,0,1,0-.13.35.35,0,0,0,0-.13.64.64,0,0,0-.17,0,.45.45,0,0,1-.18-.07,1.23,1.23,0,0,1,0-.27,1.34,1.34,0,0,0,0-.28l0,0a4.1,4.1,0,0,0,.59-.2.62.62,0,0,1,.6.06.14.14,0,0,1,0,.09.34.34,0,0,0,0,.1l0,0a.27.27,0,0,0,.12,0l.13-.06,0,0V62.4l0,0-.17,0a.49.49,0,0,1-.18-.08.2.2,0,0,1,0-.11.28.28,0,0,0,0-.13l-.18-.06-.18-.06a.34.34,0,0,1,0-.1v-.11l0,0a.43.43,0,0,0-.17-.06.64.64,0,0,1-.18-.06l0,0v-.2l0,0-.18-.05-.17-.07a3,3,0,0,1,0-.52c0-.18,0-.35,0-.53l.17-.08.19-.07,0,0v-.46l0,0,.52-.18.52-.18a1.33,1.33,0,0,1,.45-.15.76.76,0,0,1,.43.1l0,0a.45.45,0,0,1,0,.11.15.15,0,0,0,0,.11.49.49,0,0,0,.17.06.45.45,0,0,1,.18.07,2.44,2.44,0,0,1,0,.27,2.72,2.72,0,0,0,0,.28l-.29.11-.3.12a.63.63,0,0,1-.6-.07l0,0v-.17l0,0a.38.38,0,0,0-.13,0l-.13,0,0,.06v.64l0,0a.52.52,0,0,0,.16.06l.17.06,0,0V61l0,0,.17.06.18.06a.19.19,0,0,1,0,.13.17.17,0,0,0,0,.12.55.55,0,0,0,.18.06.67.67,0,0,1,.18.07v.22l0,0,.33.1,0,0,0,1-.07,0a1.53,1.53,0,0,0-.29.11,1,1,0,0,0,0,.24,1.13,1.13,0,0,1,0,.26l-.25.1a1.15,1.15,0,0,0-.29.11,4.72,4.72,0,0,0-.53.18,5.08,5.08,0,0,1-.51.17h0Zm-.26-3a.67.67,0,0,1,0-.2.62.62,0,0,0,0-.19.66.66,0,0,1-.15,0,.2.2,0,0,0-.13,0,1.55,1.55,0,0,1,0,.22.4.4,0,0,0,0,.19l.12,0a.28.28,0,0,1,.12,0Zm0-.51a.46.46,0,0,1,0-.2.34.34,0,0,0,0-.2l-.13,0-.11,0h0a1.34,1.34,0,0,1,0,.2.55.55,0,0,0,0,.18l.13.05.13,0Zm0,3v-.36l0,0-.13,0-.11,0h0a1.34,1.34,0,0,1,0,.2.55.55,0,0,0,0,.18l.13,0,.13.05Zm.08-3.57.1,0v0a.54.54,0,0,0-.45,0l.12,0,.12,0Zm.07,3a.19.19,0,0,0,.11,0,.27.27,0,0,1-.12,0l-.12,0-.11,0-.1,0,.12,0,.11,0A.24.24,0,0,1,42.69,63.16Zm.2-1.64a1.09,1.09,0,0,1,0-.18,1.09,1.09,0,0,0,0-.18h0l-.09.05-.09,0h0l-.06,0v.08a.19.19,0,0,0,0,.08.43.43,0,0,0,.13,0l.13.05Zm0-1.53a.74.74,0,0,1,0-.21.32.32,0,0,0,0-.19l-.12,0-.12,0h0v.36a.12.12,0,0,0,.05,0,.49.49,0,0,1,.22.07Zm.08,4.07v-.33l0,0-.13,0-.12,0,0,0V64l0,0,.12,0,.12,0ZM43,59.47l.11,0a.46.46,0,0,0-.44,0l.11,0,.1,0ZM43.07,63l.11,0-.11,0a.17.17,0,0,1-.1,0,.77.77,0,0,0-.23.09.68.68,0,0,1,.21.06A.28.28,0,0,1,43.07,63Zm.2-1.29a1.21,1.21,0,0,1,0-.18v0l-.15,0-.13.07v.14a.33.33,0,0,0,.13.07l.14,0A.39.39,0,0,0,43.27,61.74Zm.11-2.41a.16.16,0,0,0,.11,0l-.12,0-.1,0L43,59.3l.11,0,.12,0Zm0,1.55.08,0,.08,0-.08,0-.06,0h0a0,0,0,0,1,0,0,.09.09,0,0,0,0,.05Zm0,2.55.08,0,.08,0-.08,0-.06,0h0a0,0,0,0,1,0,.05.07.07,0,0,0,0,0Zm.25-1.18v-.17a.86.86,0,0,0,0-.16h0l-.12.05-.12,0,0,0a.11.11,0,0,1,0,.08.08.08,0,0,0,0,.08.28.28,0,0,0,.12,0l.12,0Zm.1-3a.23.23,0,0,0,.1-.05l-.12,0-.1,0-.08,0s0,0-.07,0h0s0,0,0,0l.11,0,.11,0Zm.07,4.07.1,0,0,0-.23,0a.24.24,0,0,0-.21.07.2.2,0,0,1,.11,0l.11,0Zm-.09-2,.08,0h.07l0,0-.1,0h-.09a.13.13,0,0,1,0,.06s0,0,0,0Zm.32,1.38a1.09,1.09,0,0,1,0-.18.49.49,0,0,0,0-.17h0l-.09,0-.09,0h0l0,0v.08a.28.28,0,0,0,0,.09l.14,0,.12,0ZM44,60.08v-.32l0,0-.13.05-.12,0,0,0V60a.12.12,0,0,0,0,0,.46.46,0,0,1,.22.07Zm.06,3.07a.5.5,0,0,1,0-.21.34.34,0,0,0,0-.2l-.14-.05-.14,0V63l.05.05a.2.2,0,0,1,.11,0l.11,0Zm.06-4.08a.22.22,0,0,0,.11,0l-.12,0L44,59l-.12,0a.23.23,0,0,0-.1,0,1.11,1.11,0,0,1,.22.07A.21.21,0,0,1,44.13,59.07Zm0,2.56a.52.52,0,0,0,.15-.07.38.38,0,0,0-.14,0h0v.06s0,0,0,0Zm.34-2.17a.08.08,0,0,1,.06,0l.1,0-.08,0a.07.07,0,0,0-.06,0h0a.06.06,0,0,1,0,.06.06.06,0,0,0,0,0ZM44.53,62l.08,0,.08,0-.08,0-.06,0h0a0,0,0,0,1,0,.05.07.07,0,0,0,0,0Z"/>
    <path class="cls-5" d="M45.45,64v-.12a.34.34,0,0,0,0-.14l-.18-.05a.45.45,0,0,1-.18-.07c0-.6,0-1.19,0-1.79L45,60a.8.8,0,0,1,.32-.13h0l0,0v-.46l0,0a3.76,3.76,0,0,0,1-.36,1,1,0,0,1,1-.06.37.37,0,0,1,0,.11.41.41,0,0,0,0,.11l0,0,.18.07.18.06c0,.18,0,.36,0,.54a3.41,3.41,0,0,0,0,.55c0,.43,0,.86,0,1.28s0,.83,0,1.25l-.34.13,0,0v.46h0a0,0,0,0,1,0,0,7.41,7.41,0,0,0-.75.26c-.25.1-.5.18-.74.25h0Zm-.07-3.43a1.21,1.21,0,0,1,0-.19.61.61,0,0,0,0-.19.48.48,0,0,0-.14,0,.19.19,0,0,1-.12,0l0,0v.37a.26.26,0,0,0,.13.06l.15.05Zm0,.53a1.48,1.48,0,0,1,0-.21.46.46,0,0,0,0-.2l-.13,0-.11,0h0V61a.07.07,0,0,0,0,0,.65.65,0,0,1,.23.06Zm0,.49a.69.69,0,0,1,0-.2.55.55,0,0,0,0-.18l-.14,0-.12-.05,0,0v.36a.27.27,0,0,0,.13.07l.15,0Zm0,.5v-.34l0,0-.13,0-.11,0h0V62l0,0,.23.07Zm0,.53a1.48,1.48,0,0,1,0-.21.47.47,0,0,0,0-.2l-.16,0a.3.3,0,0,0-.12,0v.36l0,.05a.35.35,0,0,1,.11,0l.12,0Zm0,.51a1.48,1.48,0,0,1,0-.21.41.41,0,0,0,0-.19l-.13,0-.11,0h0V63s0,0,0,0a.84.84,0,0,1,.23.07Zm0,.52a1.48,1.48,0,0,1,0-.21.66.66,0,0,0,0-.2l-.14,0a.31.31,0,0,1-.12-.05l0,0v.35l0,0a.28.28,0,0,0,.13,0l.12,0Zm.08-3.58.11,0-.12,0a.35.35,0,0,1-.11,0l-.12,0-.09,0,.1,0,.12,0A.18.18,0,0,1,45.52,60.07Zm.24-.14a.41.41,0,0,1,0-.19.63.63,0,0,0,0-.19l-.13,0-.12,0,0,0v.37a.12.12,0,0,0,0,0l.11,0,.1,0ZM45.83,64a1,1,0,0,1,0-.17,1,1,0,0,0,0-.17.32.32,0,0,0-.16,0l-.13.07v.15a.3.3,0,0,0,.14.06l.14.05Zm.06-4.58a.21.21,0,0,0,.11,0,.39.39,0,0,0-.44,0,.56.56,0,0,1,.22.06A.21.21,0,0,1,45.89,59.42Zm.39-.13.11,0-.12,0-.11,0s0,0-.07,0a.25.25,0,0,1-.16.06l.12,0,.11,0Zm0,4.09.08,0a.13.13,0,0,0,.08,0v0a.16.16,0,0,1-.1,0h-.09v0a0,0,0,0,0,0,.05Zm0-.25.13-.06.13,0c0-.54,0-1.08,0-1.61s0-1.06,0-1.6h0a.21.21,0,0,1-.12,0l-.13,0c0,.54,0,1.08,0,1.61s0,1.07,0,1.61Zm.35-4a.24.24,0,0,0,.11-.06.21.21,0,0,1-.12,0,.23.23,0,0,0-.11,0s-.05,0-.07,0h-.07l0,0h0l.1,0,.12,0A.35.35,0,0,1,46.65,59.16Zm.08,4.06.11,0a.51.51,0,0,0-.44,0l.1,0,.12.05ZM46.9,60v-.31l0,0-.14.06-.13.06v.08a.11.11,0,0,0,0,.08.43.43,0,0,0,.13,0,.35.35,0,0,1,.13.05ZM47,62.57v-.34l0,0-.13-.05a.28.28,0,0,1-.12,0h0a.74.74,0,0,1,0,.21,1.1,1.1,0,0,0,0,.18l.13.05.13,0Zm0-2a1.21,1.21,0,0,1,0-.19.41.41,0,0,0,0-.19.39.39,0,0,0-.14,0,.19.19,0,0,1-.12,0l0,0v.37a.3.3,0,0,0,.14.06l.14,0Zm0,.52a1.41,1.41,0,0,1,0-.2.41.41,0,0,0,0-.19l-.14,0-.12-.05h0V61a.08.08,0,0,0,.05,0l.11,0,.11,0Zm0,.51a.74.74,0,0,1,0-.21.31.31,0,0,0,0-.19l-.15,0-.13,0v.36l0,0,.12,0,.12.05Zm0,.5a1.21,1.21,0,0,1,0-.19.41.41,0,0,0,0-.19l-.14,0-.12,0h0V62s0,0,0,0l.22.07Zm0,1a.74.74,0,0,1,0-.21.32.32,0,0,0,0-.19l-.14-.05-.14,0V63l0,0,.12,0,.12,0ZM47,59l.12-.05-.12,0-.12,0L46.8,59l-.11,0,.11,0,.11,0Zm.51.34-.08,0-.07,0h0s0,0,0,.06,0,0,0,.05Z"/>
    <path class="cls-5" d="M48.15,64.14,48,64.08l-.1-4.75.3-.1.31-.12a.61.61,0,0,1,.61.06l0,0v.71a.16.16,0,0,0,.07.07.53.53,0,0,1,.16,0l.16.06,0,0v.21l0,0a.27.27,0,0,1,.14,0l.15,0c0-.22,0-.43,0-.65s0-.43,0-.65v-.48l.23-.1.24-.06a.43.43,0,0,0,.17.06l.19.06v0l.1,4.72-.15.07a.44.44,0,0,1-.16.06.41.41,0,0,1-.16,0,.28.28,0,0,1-.15,0l-.11,0a.31.31,0,0,1-.1,0l0,0c0-.21,0-.42,0-.63a4.64,4.64,0,0,0,0-.64L49.68,62A.45.45,0,0,1,49.5,62a.11.11,0,0,1,0-.1v-.11a.14.14,0,0,0-.06-.07,1,1,0,0,1-.25-.07l0,0a.37.37,0,0,0,0,.11.28.28,0,0,1,0,.13l0,2v0l-.41.15a2.67,2.67,0,0,1-.4.13h0Zm.13-3.71v-.35L48.21,60h0l-.1,0L48,60l0,0v.2a.58.58,0,0,0,0,.19l.13,0,.13.05Zm0,1a.45.45,0,0,1,0-.2.62.62,0,0,0,0-.19L48.13,61,48,61l0,0v.2a.58.58,0,0,0,0,.19.29.29,0,0,0,.13.05.43.43,0,0,1,.13,0Zm0-1.56a.5.5,0,0,1,0-.21.35.35,0,0,0,0-.2l-.13,0-.12,0h0v.37l0,0,.12,0a.28.28,0,0,1,.13,0Zm0,1v-.38l-.05,0a.27.27,0,0,1-.12,0l-.11,0h0v.37l0,0,.12,0a.28.28,0,0,1,.13,0Zm0,1a.45.45,0,0,1,0-.2.39.39,0,0,0,0-.21l-.15,0a.2.2,0,0,0-.13,0v.37l0,0,.13,0a.28.28,0,0,1,.12,0Zm0,.52a.45.45,0,0,1,0-.2.62.62,0,0,0,0-.19l-.14-.05L48,62l0,0v.38l0,0,.25.08Zm0,.52a.46.46,0,0,1,0-.2.71.71,0,0,0,0-.2l-.14,0a.21.21,0,0,1-.12-.05l0,0V63a.21.21,0,0,0,.13.07.53.53,0,0,1,.15,0Zm0,.52a.41.41,0,0,1,0-.19.68.68,0,0,0,0-.2l-.14-.05-.12,0,0,0v.38s0,0,0,0a.78.78,0,0,1,.23.07Zm0,.53v-.37l-.05,0a.32.32,0,0,1-.14,0l-.12,0V64l0,0a.42.42,0,0,0,.12,0l.12,0Zm.06-4.71a.3.3,0,0,0,.11,0,.43.43,0,0,0-.45,0l.11,0,.11,0Zm.39-.13.12,0-.12,0-.12,0-.12,0-.11,0,.12,0,.12,0Zm.37.93a.2.2,0,0,1,.08,0,.06.06,0,0,0,.06,0l-.17,0a.13.13,0,0,1,0,.06.09.09,0,0,0,0,0Zm.31,1.41v-.34l0,0-.26.09,0,0v.13l0,0,.12,0,.12,0Zm.07-1,.09,0,.08,0-.14,0h0v.06s0,0,0,0ZM49.88,62v-.36l-.15,0-.14.07v.14a.28.28,0,0,0,.13.07l.14.05Zm.08-1a.13.13,0,0,1,.08,0l.08,0-.08,0-.06,0h0s0,0,0,0a.07.07,0,0,0,0,0Zm.32,1.94a.74.74,0,0,1,0-.21.35.35,0,0,0,0-.2l-.13,0-.11,0h0v.21a1.15,1.15,0,0,0,0,.19l.14.05.13,0Zm-.07-3.64a1.48,1.48,0,0,1,0-.21.5.5,0,0,0,0-.21l-.14,0-.13,0v.4l.13,0,.14.05Zm0,.51a1.48,1.48,0,0,1,0-.21.41.41,0,0,0,0-.19l-.14-.05a.17.17,0,0,0-.13,0v.39a.21.21,0,0,0,.13.05.34.34,0,0,1,.14,0Zm0,.53a1.48,1.48,0,0,1,0-.21.44.44,0,0,0,0-.2l-.14,0-.13,0v.39l.13,0,.14.05Zm0,.5a1.34,1.34,0,0,1,0-.2.43.43,0,0,0,0-.19l-.14,0-.13,0v.39a.31.31,0,0,0,.13.06l.14,0Zm0,1.57V62l0,0-.14.07-.13.06v.17a.28.28,0,0,0,.13,0,.34.34,0,0,1,.14,0Zm0,1V63l0,0-.13,0-.11,0h0v.4a.33.33,0,0,0,.12,0,.24.24,0,0,1,.14.05Zm.07-4.7.1,0a1.06,1.06,0,0,0-.23,0,.38.38,0,0,0-.22.07l.11,0,.11,0A.31.31,0,0,1,50.36,58.69Z"/>
  </g>
  <polygon class="cls-3" points="60.66 43.35 84.42 43.35 84.42 49.52 74.44 54.51 60.79 48.34 60.66 43.35"/>
</svg>
