<svg id="Layer_1" data-name="Layer 1" xmlns="http://www.w3.org/2000/svg" viewBox="0 0 127.66 273.5">
  <defs>
    <style>
      .cls-1 {
        fill: #333f44;
      }

      .cls-1, .cls-2, .cls-3, .cls-4, .cls-5, .cls-6, .cls-7 {
        stroke: #231f20;
        stroke-miterlimit: 10;
      }

      .cls-2 {
        fill: #be9d8e;
      }

      .cls-3, .cls-4, .cls-5, .cls-6, .cls-7 {
        fill: none;
        stroke-width: 0.75px;
      }

      .cls-4, .cls-7 {
        stroke-dasharray: 2.07 2.07;
      }

      .cls-5, .cls-6, .cls-7 {
        stroke-linecap: square;
      }

      .cls-6 {
        stroke-dasharray: 1.85 1.85;
      }

      .cls-8 {
        fill: #231f20;
      }
    </style>
  </defs>
  <title>utility</title>
  <path class="cls-1" d="M99,22.88l-36,1.91-36-1.91s-10.85,35-10,113.82S22.53,257,22.53,257l4.67.56.55-35.69,1.92,36s9.61,2.77,13.45,1.39,9.34-3.32,9.34-3.32L51.36,158s-1.1-.55-.27-5.53,4.66-17.71,5.49-26.56,6.31-33.2,6.31-33.2L63.06,87l.17,5.75s5.49,24.34,6.31,33.2,4.67,21.58,5.49,26.56-.27,5.53-.27,5.53l-1.1,97.94s5.49,1.93,9.33,3.32,13.46-1.39,13.46-1.39l1.92-36,.55,35.69,4.67-.56s4.66-41.49,5.49-120.34S99,22.88,99,22.88Z"/>
  <path class="cls-1" d="M28.07,14.31s46.22,5.77,68.94.44c0,0,1.93,3.26,2.51,10.22,0,0-57.2,4-73-.59,0,0-.09-1.16-.06-2.75,0-.29,0-.6,0-.91C26.61,18.58,27,16,28.07,14.31Z"/>
  <polygon class="cls-2" points="36.11 78.73 14.67 77.91 15.29 134.6 32.19 134.39 37.14 132.12 36.11 78.73"/>
  <polygon class="cls-2" points="14.67 77.91 12.2 99.97 26.01 100.79 36.94 95.02 36.11 78.73 14.67 77.91"/>
  <polyline class="cls-3" points="14.88 131.92 29.93 132.12 29.93 98.73"/>
  <g>
    <line class="cls-3" x1="32.81" y1="97.29" x2="32.8" y2="98.29"/>
    <line class="cls-4" x1="32.76" y1="100.35" x2="32.23" y2="132.36"/>
    <line class="cls-3" x1="32.21" y1="133.39" x2="32.19" y2="134.39"/>
  </g>
  <polygon class="cls-2" points="31.63 159.76 16.56 159.18 17 199.03 28.88 198.88 32.36 197.29 31.63 159.76"/>
  <polygon class="cls-2" points="16.56 159.18 14.82 174.68 24.53 175.26 32.21 171.2 31.63 159.76 16.56 159.18"/>
  <polyline class="cls-3" points="16.71 197.14 27.29 197.29 27.29 173.81"/>
  <g>
    <line class="cls-5" x1="29.31" y1="172.8" x2="29.3" y2="173.8"/>
    <line class="cls-6" x1="29.27" y1="175.65" x2="28.91" y2="196.95"/>
    <line class="cls-5" x1="28.9" y1="197.88" x2="28.88" y2="198.88"/>
  </g>
  <path class="cls-3" d="M48.18,157.19s-6.82,10.09-10.09,12.46a8.89,8.89,0,0,0-3.56,5.93s4.16-4.15,7.12-4.45,3-1.78,3-1.78"/>
  <path class="cls-3" d="M32.66,25.17S21.49,60.45,20.45,62.39"/>
  <polygon class="cls-2" points="90.01 78.73 111.45 77.91 110.83 134.6 93.92 134.39 88.98 132.12 90.01 78.73"/>
  <polygon class="cls-2" points="111.45 77.91 113.92 99.97 100.11 100.79 89.18 95.02 90.01 78.73 111.45 77.91"/>
  <polyline class="cls-3" points="111.24 131.92 96.19 132.12 96.19 98.73"/>
  <g>
    <line class="cls-5" x1="93.31" y1="97.29" x2="93.32" y2="98.29"/>
    <line class="cls-7" x1="93.36" y1="100.35" x2="93.89" y2="132.36"/>
    <line class="cls-5" x1="93.91" y1="133.39" x2="93.93" y2="134.39"/>
  </g>
  <polygon class="cls-2" points="94.49 159.76 109.56 159.18 109.12 199.03 97.24 198.88 93.76 197.29 94.49 159.76"/>
  <polygon class="cls-2" points="109.56 159.18 111.3 174.68 101.59 175.26 93.91 171.2 94.49 159.76 109.56 159.18"/>
  <polyline class="cls-3" points="109.41 197.14 98.83 197.29 98.83 173.81"/>
  <g>
    <line class="cls-5" x1="96.8" y1="172.8" x2="96.82" y2="173.8"/>
    <line class="cls-6" x1="96.85" y1="175.65" x2="97.21" y2="196.95"/>
    <line class="cls-5" x1="97.22" y1="197.88" x2="97.24" y2="198.88"/>
  </g>
  <path class="cls-3" d="M77.94,157.19S84.76,167.28,88,169.65a8.89,8.89,0,0,1,3.56,5.93s-4.16-4.15-7.12-4.45-3-1.78-3-1.78"/>
  <path class="cls-3" d="M93.46,25.17s11.17,35.28,12.21,37.22"/>
  <path class="cls-2" d="M40.43,14.92s-3.76,10.92-3,13.21l5.34,1s.4-13,2.57-13.69S40.43,14.92,40.43,14.92Z"/>
  <path class="cls-2" d="M85.36,15.81s3.76,9.94,3,12L83,28.72s-.4-11.87-2.57-12.46S85.36,15.81,85.36,15.81Z"/>
  <path class="cls-1" d="M57.3,16.92s-2.21,56.33,6,57.77l.79-57.61Z"/>
  <line class="cls-3" x1="63.31" y1="74.69" x2="63.06" y2="88.28"/>
  <ellipse class="cls-8" cx="60.8" cy="22.12" rx="1.35" ry="1.3"/>
</svg>
