<svg id="Layer_1" data-name="Layer 1" xmlns="http://www.w3.org/2000/svg" viewBox="0 0 82.6 116.54">
  <defs>
    <style>
      .cls-1, .cls-2 {
        fill: #fff;
        stroke: #010101;
        stroke-miterlimit: 10;
        stroke-width: 0.25px;
      }

      .cls-1 {
        stroke-linecap: square;
      }

      .cls-3 {
        fill: #231f20;
      }
    </style>
  </defs>
  <title>howto</title>
  <path class="cls-1" d="M23.27,11.87s-3.48,16.46-4.53,24.29-1.36,35.21-1.36,35.21a4,4,0,0,1,.32,3.93L19,110.54A23.09,23.09,0,0,0,36.1,111l1.11-35.4s-1.42-.94.62-3.14l3.45-29.84L41.45,5Z"/>
  <path class="cls-1" d="M59.33,11.87s3.48,16.46,4.53,24.29,1.36,35.21,1.36,35.21a4,4,0,0,0-.32,3.93l-1.26,35.24A23.09,23.09,0,0,1,46.5,111l-1.11-35.4s1.42-.94-.62-3.14L41.28,42.63,41.45,5Z"/>
  <polygon class="cls-1" points="21.34 38 21.25 51.7 37.38 51.61 37.57 38.19 21.34 38"/>
  <polygon class="cls-1" points="45.1 38 45.01 51.7 61.14 51.61 61.33 38.19 45.1 38"/>
  <g>
    <path class="cls-1" d="M28.08,54s-.87,14.73-1.31,18.23,0,12.11,0,14.15.14,15.61.14,15.61"/>
    <path class="cls-1" d="M33.33,74.38s-31.94,10.79.73,2.48l1.6-.73"/>
    <path class="cls-1" d="M18.81,102.64s16,.47,17.44.47"/>
  </g>
  <g>
    <path class="cls-1" d="M54.23,53.84s.88,14.73,1.31,18.23,0,12.1,0,14.15-.14,15.6-.14,15.6"/>
    <path class="cls-1" d="M49,74.26s31.94,10.79-.73,2.47L46.65,76"/>
    <path class="cls-1" d="M63.71,102.55c-16.19.44-16,.42-17.44.42"/>
  </g>
  <path class="cls-2" d="M24.38,4.89l-1.11,7A211.3,211.3,0,0,0,44.43,13.1h1.72A76.5,76.5,0,0,0,59.29,12L58,5.17"/>
  <path class="cls-1" d="M30.82,4.76S29.37,11,29.72,13l2.87,0s.26-7.41,1-8.07Z"/>
  <path class="cls-1" d="M52.23,5.13s1.46,6.27,1.1,8.21l-2.86,0s-.27-7.41-1-8.07Z"/>
  <path class="cls-1" d="M24.28,4.89s26,2.2,33.28.29C57.56,5.18,45.79,3.57,24.28,4.89Z"/>
  <path class="cls-1" d="M41.45,32.82s5.32,2.46,4.29-26.62"/>
  <line class="cls-2" x1="41.45" y1="12.95" x2="41.61" y2="6"/>
  <polygon class="cls-1" points="20.78 33.22 38.6 33.41 38.6 39.22 34.1 42.51 25.47 42.41 20.78 38.85 20.78 33.22"/>
  <polygon class="cls-1" points="44.54 33.22 62.36 33.41 62.36 39.22 57.86 42.51 49.23 42.41 44.54 38.85 44.54 33.22"/>
  <g>
    <path class="cls-3" d="M20.54,105.79l2.78.08,0,.15-2.77-.08Zm.58-1.64,2.43.07-.38,1.55-.88,0,.15-.61-.67,0-.15.61-.88,0ZM21,103.9l2.78.08,0,.15L21,104.05Zm.85.89h.67l.06-.27-.66,0Z"/>
    <path class="cls-3" d="M23.11,105.87l2.57.07,0,.15L23.08,106Zm.58-1.65.88,0-.29,1.2,1.34,0-.09.35-2.22-.06Zm-.12-.25,2.58.08,0,.15-2.57-.08Z"/>
    <path class="cls-3" d="M25.48,105.94l2.62.08,0,.15-2.62-.08Zm.57-1.65,2.28.07-.09.36-1.39,0-.06.24,1.34,0-.08.35-1.35,0-.06.25,1.39,0-.08.35-2.28-.06Zm-.11-.25,2.62.08,0,.15-2.63-.08Z"/>
    <path class="cls-3" d="M27.89,106l2.78.08,0,.15-2.77-.08Zm.58-1.64,2.43.07L30.52,106l-.88,0,.15-.6-.67,0-.15.6-.88,0Zm-.12-.25,2.78.08,0,.15-2.78-.09Zm.85.88.67,0,.06-.27-.66,0Z"/>
    <path class="cls-3" d="M30.46,106.09l2.57.07,0,.15-2.57-.07Zm.58-1.65.88,0-.29,1.2,1.34,0-.09.35L30.66,106Zm-.12-.25,2.58.08,0,.15-2.57-.08Z"/>
    <path class="cls-3" d="M32.83,106.16l1.22,0,0,.15-1.23,0Zm.57-1.65.88,0-.38,1.55-.88,0Zm-.11-.25,1.23,0,0,.15-1.23,0Z"/>
  </g>
  <g>
    <path class="cls-3" d="M48.17,106.22l2.77-.09,0,.15-2.78.09Zm.47-1.67,2.43-.08L50.79,106l-.88,0,.11-.62-.67,0-.11.62-.88,0Zm-.13-.25,2.78-.09,0,.15-2.78.09Zm.9.84.67,0,.05-.29-.67,0Z"/>
    <path class="cls-3" d="M50.74,106.14l2.57-.08,0,.15-2.57.08Zm.47-1.68.88,0-.22,1.22,1.34-.05-.06.36-2.22.08Zm-.13-.24,2.57-.08,0,.15-2.57.08Z"/>
    <path class="cls-3" d="M53.1,106.06l2.62-.08,0,.15-2.63.08Zm.47-1.67,2.28-.08-.07.36-1.39,0,0,.24,1.34,0-.06.36-1.35,0,0,.25,1.39,0-.06.35-2.28.08Zm-.13-.25,2.63-.08,0,.15-2.62.08Z"/>
    <path class="cls-3" d="M55.51,106l2.78-.08,0,.15-2.78.09Zm.48-1.67,2.43-.08-.28,1.57-.88,0,.1-.61-.66,0-.11.61-.88,0Zm-.13-.24,2.78-.09,0,.15-2.78.09Zm.9.83.66,0,.06-.28-.67,0Z"/>
    <path class="cls-3" d="M58.09,105.9l2.57-.08,0,.15-2.57.08Zm.47-1.67.88,0-.22,1.21,1.34,0-.06.36-2.22.07Zm-.13-.25L61,103.9l0,.15-2.57.08Z"/>
    <path class="cls-3" d="M60.45,105.83l1.23,0,0,.15-1.23,0Zm.47-1.68.88,0-.28,1.57-.88,0Zm-.13-.24,1.23,0,0,.15-1.23,0Z"/>
  </g>
</svg>
