<svg id="Layer_1" data-name="Layer 1" xmlns="http://www.w3.org/2000/svg" viewBox="0 0 82.6 116.54">
  <defs>
    <style>
      .cls-1 {
        fill: #c6aba2;
      }

      .cls-1, .cls-6 {
        stroke: #231f20;
      }

      .cls-1, .cls-2, .cls-3, .cls-6 {
        stroke-miterlimit: 10;
      }

      .cls-1, .cls-2, .cls-3 {
        stroke-width: 0.25px;
      }

      .cls-2 {
        fill: #7c4a3e;
      }

      .cls-2, .cls-3 {
        stroke: #010101;
      }

      .cls-3, .cls-6 {
        fill: none;
      }

      .cls-3 {
        stroke-linecap: square;
      }

      .cls-4 {
        fill: #bc8f96;
      }

      .cls-5 {
        fill: #010101;
      }

      .cls-6 {
        stroke-linecap: round;
        stroke-width: 0.5px;
      }

      .cls-7 {
        fill: #231f20;
      }
    </style>
  </defs>
  <title>howto</title>
  <path class="cls-1" d="M32.08,12.3s-2.19,10.39-2.85,15.33-.86,22.22-.86,22.22a2.53,2.53,0,0,1,.2,2.49l.79,22.24a14.62,14.62,0,0,0,10.83.3l.69-22.34s-.89-.6.4-2l2.08-18.87L43.56,8Z"/>
  <path class="cls-1" d="M54.85,12.3s2.2,10.39,2.86,15.33.85,22.22.85,22.22a2.53,2.53,0,0,0-.2,2.49l-.79,22.24a14.6,14.6,0,0,1-10.82.3l-.7-22.34s.89-.6-.4-2L43.57,31.68V8Z"/>
  <polygon class="cls-2" points="30.87 28.8 30.81 37.44 41 37.38 41.11 28.91 30.87 28.8"/>
  <polygon class="cls-2" points="45.87 28.8 45.81 37.44 55.99 37.38 56.11 28.91 45.87 28.8"/>
  <g>
    <path class="cls-3" d="M35.12,38.87s-.55,9.3-.83,11.51,0,7.64,0,8.93.1,9.85.1,9.85"/>
    <path class="cls-3" d="M38.44,51.76s-20.16,6.81.46,1.56l1-.46"/>
    <path class="cls-3" d="M29.14,69.62s10.22.27,11.14.27"/>
  </g>
  <g>
    <path class="cls-3" d="M52.06,38.87s.55,9.3.83,11.51,0,7.64,0,8.93-.09,9.85-.09,9.85"/>
    <path class="cls-3" d="M48.75,51.76s20.16,6.81-.46,1.56l-1-.46"/>
    <path class="cls-3" d="M58.05,69.62s-10.22.27-11.14.27"/>
  </g>
  <path class="cls-1" d="M32.79,7.9l-.71,4.4a133.72,133.72,0,0,0,13.36.77h1.09a48.86,48.86,0,0,0,8.29-.68L54,8.07"/>
  <path class="cls-1" d="M36.85,7.81s-.92,4-.69,5.18L38,13s.16-4.68.64-5.1Z"/>
  <path class="cls-1" d="M50.37,8.05s.91,3.95.69,5.18l-1.81,0s-.17-4.67-.64-5.09Z"/>
  <path class="cls-1" d="M32.56,7.89s16.26,1.44,21,.23C53.55,8.12,46.54,7.06,32.56,7.89Z"/>
  <path class="cls-1" d="M43.42,25.42s3.5,1.66,2.85-16.7"/>
  <line class="cls-1" x1="43.4" y1="12.96" x2="43.4" y2="8.44"/>
  <polygon class="cls-2" points="30.51 25.77 41.77 25.89 41.77 29.57 38.92 31.64 33.48 31.58 30.51 29.33 30.51 25.77"/>
  <polygon class="cls-2" points="45.51 25.77 56.76 25.89 56.76 29.57 53.92 31.64 48.47 31.58 45.51 29.33 45.51 25.77"/>
  <g>
    <path class="cls-4" d="M36.82,96.28V97H36v-7h.84v2.65a1.91,1.91,0,0,1,1.52-.71,2.6,2.6,0,0,1,0,5.16A1.88,1.88,0,0,1,36.82,96.28Zm3-1.83a2,2,0,0,0-.41-1.32,1.33,1.33,0,0,0-1.11-.51,1.35,1.35,0,0,0-1.11.51,2.38,2.38,0,0,0,0,2.64,1.37,1.37,0,0,0,1.11.5,1.35,1.35,0,0,0,1.11-.5A2.06,2.06,0,0,0,39.78,94.45Z"/>
    <path class="cls-4" d="M42.16,92H43v3.3c0,.69.31,1,.92,1A1.27,1.27,0,0,0,45,95.65,3,3,0,0,0,45.38,94V92h.84v5h-.84V96a2.06,2.06,0,0,1-1.69,1,1.41,1.41,0,0,1-1.53-1.6Z"/>
    <path class="cls-4" d="M52.08,92H53l-3,7h-.83l1-2.36L48,92h.93l1.68,3.66Z"/>
  </g>
  <polygon class="cls-5" points="52.95 96.3 52.42 107.42 61.71 103.18 52.95 96.3"/>
  <line class="cls-6" x1="52.42" y1="87.81" x2="52.42" y2="84.01"/>
  <line class="cls-6" x1="54.73" y1="88.94" x2="56.63" y2="85.65"/>
  <line class="cls-6" x1="56.44" y1="90.35" x2="60.03" y2="89.08"/>
  <rect class="cls-5" x="57.37" y="104.35" width="0.84" height="4.8" transform="translate(-45.63 43.2) rotate(-30)"/>
  <g>
    <path class="cls-7" d="M30.34,71.94l1.74.06,0,.09-1.74,0Zm.36-1,1.52,0-.24,1h-.55l.1-.38-.42,0-.1.38h-.54Zm-.07-.16,1.74,0,0,.09-1.73-.05Zm.53.55.42,0,0-.18H31.2Z"/>
    <path class="cls-7" d="M32,72l1.6.05,0,.09-1.6,0Zm.36-1h.55l-.18.75.84,0-.06.23-1.39,0Zm-.07-.16,1.6,0,0,.09-1.61,0Z"/>
    <path class="cls-7" d="M33.45,72l1.63,0,0,.1-1.64-.05Zm.36-1,1.42,0-.06.22-.87,0,0,.15.85,0-.06.22-.84,0,0,.15.88,0L35,72l-1.42,0Zm-.08-.16,1.64.05,0,.09-1.64,0Z"/>
    <path class="cls-7" d="M35,72.08l1.73,0,0,.1-1.74-.06Zm.36-1,1.52,0-.24,1-.55,0,.09-.38h-.42l-.09.38-.55,0Zm-.08-.15L37,71,37,71,35.23,71Zm.53.55h.42l0-.17h-.41Z"/>
    <path class="cls-7" d="M36.58,72.13l1.61.05,0,.09-1.61,0Zm.36-1,.55,0-.18.75.84,0,0,.22-1.39,0ZM36.87,71l1.61,0,0,.1-1.61,0Z"/>
    <path class="cls-7" d="M38.07,72.17l.77,0,0,.09-.77,0Zm.36-1H39l-.23,1H38.2ZM38.36,71l.77,0,0,.1-.77,0Z"/>
  </g>
  <g>
    <path class="cls-7" d="M47.72,72.22l1.74-.06,0,.09-1.73.06Zm.3-1,1.52,0-.18,1-.55,0,.07-.39-.42,0-.06.38-.55,0ZM47.94,71,49.68,71l0,.09-1.74.06Zm.56.53.42,0,0-.17h-.42Z"/>
    <path class="cls-7" d="M49.34,72.16l1.61,0,0,.1-1.6.05Zm.3-1,.55,0-.14.76.84,0,0,.22-1.39,0ZM49.56,71l1.61,0,0,.1-1.61,0Z"/>
    <path class="cls-7" d="M50.83,72.12l1.64-.06,0,.1-1.64,0Zm.3-1.05,1.42,0,0,.23-.87,0,0,.16.84,0,0,.22-.84,0,0,.16.87,0,0,.22-1.42,0ZM51,70.91l1.64,0V71L51,71Z"/>
    <path class="cls-7" d="M52.35,72.07,54.09,72l0,.09-1.74.06Zm.29-1,1.52,0L54,72l-.55,0,.07-.39-.42,0L53,72l-.55,0Zm-.08-.15,1.74-.06,0,.09L52.55,71Zm.57.52.41,0,0-.17h-.42Z"/>
    <path class="cls-7" d="M54,72l1.6-.05v.1l-1.61,0Zm.29-1,.55,0-.13.76.84,0,0,.22-1.39,0Zm-.08-.16,1.61,0,0,.1-1.6,0Z"/>
    <path class="cls-7" d="M55.46,72l.76,0V72l-.77,0Zm.29-1,.55,0-.17,1-.55,0Zm-.08-.15.77,0,0,.1-.77,0Z"/>
  </g>
</svg>
