<svg id="Layer_1" data-name="Layer 1" xmlns="http://www.w3.org/2000/svg" viewBox="0 0 82.6 116.54">
  <defs>
    <style>
      .cls-1, .cls-6 {
        fill: #c6aba2;
      }

      .cls-1, .cls-12 {
        stroke: #231f20;
      }

      .cls-1, .cls-12, .cls-2, .cls-3, .cls-4 {
        stroke-miterlimit: 10;
      }

      .cls-1, .cls-2, .cls-3, .cls-4 {
        stroke-width: 0.25px;
      }

      .cls-10, .cls-2 {
        fill: #7c4a3e;
      }

      .cls-2, .cls-3, .cls-4 {
        stroke: #010101;
      }

      .cls-12, .cls-3 {
        fill: none;
      }

      .cls-3, .cls-4 {
        stroke-linecap: square;
      }

      .cls-4 {
        fill: #c4b7b9;
      }

      .cls-5 {
        fill: #623722;
      }

      .cls-7 {
        fill: #ad8b82;
      }

      .cls-8 {
        fill: #8c6961;
      }

      .cls-9 {
        fill: #915951;
      }

      .cls-11 {
        fill: #010101;
      }

      .cls-12 {
        stroke-linecap: round;
        stroke-width: 0.5px;
      }

      .cls-13 {
        fill: #231f20;
      }
    </style>
  </defs>
  <title>howto</title>
  <path class="cls-1" d="M29.66,18.16s-2.19,10.39-2.85,15.33S26,55.71,26,55.71a2.53,2.53,0,0,1,.2,2.49l.79,22.24a14.62,14.62,0,0,0,10.83.3l.69-22.34s-.89-.6.4-2l2.08-18.87.2-23.73Z"/>
  <path class="cls-1" d="M52.43,18.16s2.2,10.39,2.85,15.33.86,22.22.86,22.22a2.53,2.53,0,0,0-.2,2.49l-.79,22.24a14.6,14.6,0,0,1-10.82.3l-.7-22.34s.89-.6-.4-2L41.15,37.54V13.81Z"/>
  <polygon class="cls-2" points="28.45 34.66 28.39 43.3 38.58 43.24 38.69 34.77 28.45 34.66"/>
  <polygon class="cls-2" points="43.45 34.66 43.39 43.3 53.57 43.24 53.69 34.77 43.45 34.66"/>
  <g>
    <path class="cls-3" d="M32.7,44.73s-.55,9.3-.83,11.51,0,7.64,0,8.93S32,75,32,75"/>
    <path class="cls-3" d="M36,57.62s-20.16,6.81.46,1.56l1-.46"/>
    <path class="cls-3" d="M26.72,75.48s10.22.27,11.14.27"/>
  </g>
  <g>
    <path class="cls-3" d="M49.64,44.73s.55,9.3.83,11.51,0,7.64,0,8.93S50.38,75,50.38,75"/>
    <path class="cls-3" d="M46.33,57.62s20.16,6.81-.46,1.56l-1-.46"/>
    <path class="cls-3" d="M55.63,75.48s-10.22.27-11.14.27"/>
  </g>
  <path class="cls-1" d="M30.37,13.76l-.71,4.4A133.72,133.72,0,0,0,43,18.93h1.09a48.86,48.86,0,0,0,8.29-.68l-.79-4.32"/>
  <path class="cls-1" d="M34.43,13.67s-.92,4-.69,5.18l1.81,0s.16-4.68.64-5.1Z"/>
  <path class="cls-1" d="M48,13.91s.91,3.95.69,5.18l-1.81,0s-.17-4.67-.64-5.09Z"/>
  <path class="cls-4" d="M30.14,13.75s16.26,1.44,21,.23C51.13,14,44.12,12.92,30.14,13.75Z"/>
  <path class="cls-1" d="M41,31.28s3.5,1.66,2.85-16.7"/>
  <line class="cls-1" x1="40.98" y1="18.82" x2="40.98" y2="14.3"/>
  <polygon class="cls-2" points="28.09 31.64 39.35 31.75 39.35 35.42 36.5 37.5 31.05 37.44 28.09 35.19 28.09 31.64"/>
  <polygon class="cls-2" points="43.09 31.64 54.34 31.75 54.34 35.42 51.5 37.5 46.05 37.44 43.09 35.19 43.09 31.64"/>
  <circle class="cls-5" cx="14.98" cy="97.98" r="4.76"/>
  <circle class="cls-6" cx="66.19" cy="97.98" r="4.76"/>
  <circle class="cls-7" cx="55.95" cy="97.98" r="4.76"/>
  <circle class="cls-8" cx="45.71" cy="97.98" r="4.76"/>
  <circle class="cls-9" cx="35.47" cy="97.98" r="4.76"/>
  <circle class="cls-10" cx="25.22" cy="97.98" r="4.76"/>
  <g>
    <polygon class="cls-11" points="66.35 100 65.82 111.13 75.11 106.88 66.35 100"/>
    <rect class="cls-11" x="70.77" y="108.05" width="0.84" height="4.8" transform="translate(-45.69 50.39) rotate(-30)"/>
  </g>
  <line class="cls-12" x1="49.83" y1="11.64" x2="49.83" y2="7.84"/>
  <line class="cls-12" x1="52.14" y1="12.77" x2="54.04" y2="9.48"/>
  <line class="cls-12" x1="53.85" y1="14.18" x2="57.44" y2="12.91"/>
  <line class="cls-12" x1="68.28" y1="91.82" x2="68.28" y2="88.02"/>
  <line class="cls-12" x1="70.59" y1="92.95" x2="72.49" y2="89.66"/>
  <line class="cls-12" x1="72.31" y1="94.37" x2="75.89" y2="93.09"/>
  <g>
    <path class="cls-13" d="M27.62,77.63l1.76.05,0,.09-1.76,0Zm.36-1,1.54,0-.24,1h-.56l.1-.39h-.43l-.09.38h-.56Zm-.07-.16,1.76.06,0,.09-1.77,0Zm.53.57h.43l0-.18h-.42Z"/>
    <path class="cls-13" d="M29.26,77.67l1.63,0,0,.1-1.63,0Zm.36-1,.56,0-.18.76.85,0-.06.23-1.41,0Zm-.07-.16,1.63,0,0,.1-1.63-.05Z"/>
    <path class="cls-13" d="M30.77,77.72l1.66,0,0,.09-1.66,0Zm.36-1,1.44,0,0,.23-.88,0,0,.15.85,0-.05.22-.86,0,0,.15.88,0,0,.22-1.45,0Zm-.07-.16,1.66,0,0,.09-1.66,0Z"/>
    <path class="cls-13" d="M32.31,77.77l1.76,0,0,.09-1.76,0Zm.37-1,1.54,0-.24,1h-.56l.09-.39h-.42l-.09.38h-.56Zm-.08-.16,1.77.06,0,.09-1.76,0Zm.54.57h.42l0-.18h-.43Z"/>
    <path class="cls-13" d="M34,77.81l1.63,0,0,.1-1.63,0Zm.37-1,.56,0-.19.76.85,0,0,.23-1.41,0Zm-.07-.16,1.63,0,0,.1-1.64-.05Z"/>
    <path class="cls-13" d="M35.46,77.86l.78,0,0,.1-.78,0Zm.37-1h.56l-.24,1-.56,0Zm-.07-.16.78,0,0,.1-.78,0Z"/>
  </g>
  <g>
    <path class="cls-13" d="M45.27,77.9,47,77.84l0,.1L45.25,78Zm.3-1.06,1.54,0-.18,1-.56,0,.07-.39-.42,0-.07.39h-.56Zm-.09-.16,1.77-.05,0,.09-1.76.06Zm.57.53h.43l0-.18h-.42Z"/>
    <path class="cls-13" d="M46.91,77.85l1.63-.06,0,.1-1.63,0Zm.3-1.07h.56l-.14.77.85,0,0,.23-1.41,0Zm-.08-.15,1.63,0,0,.09-1.63.06Z"/>
    <path class="cls-13" d="M48.42,77.8l1.66-.06v.1l-1.67,0Zm.3-1.06,1.44,0,0,.23-.88,0,0,.15.85,0,0,.23-.85,0,0,.16.88,0,0,.23-1.44,0Zm-.08-.16,1.66,0,0,.09-1.66.06Z"/>
    <path class="cls-13" d="M50,77.75l1.76-.06v.1l-1.76,0Zm.3-1.06,1.54,0-.18,1-.55,0,.07-.39h-.43l-.07.4h-.56Zm-.08-.16,1.76-.06,0,.1-1.76.06Zm.57.53h.42l0-.18h-.42Z"/>
    <path class="cls-13" d="M51.6,77.7l1.63-.06v.1l-1.63.05Zm.31-1.07h.55l-.13.76.85,0,0,.22-1.41,0Zm-.09-.15,1.63,0v.09l-1.63.06Z"/>
    <path class="cls-13" d="M53.11,77.65l.78,0v.1l-.78,0Zm.3-1.07H54l-.18,1-.55,0Zm-.08-.15.78,0v.1l-.78,0Z"/>
  </g>
</svg>
