<svg id="Layer_1" data-name="Layer 1" xmlns="http://www.w3.org/2000/svg" viewBox="0 0 311.12 75.09">
  <defs>
    <style>
      .cls-1 {
        stroke: #fff;
        stroke-width: 2px;
      }
    </style>
  </defs>
  <title>logo</title>
  <path class="cls-1" d="M71.69,5.28a.18.18,0,0,1,.2.2.34.34,0,0,1,.1.2v14.8c0,.14,0,.2-.1.2a.3.3,0,0,1-.1.2l-8.6,8.6h8.3a.34.34,0,0,1,.2.1.18.18,0,0,1,.2.2.34.34,0,0,1,.1.2v31.3a.3.3,0,0,1-.1.2l-.1.1-11.1,11.2-.1.1H4.79a.44.44,0,0,1-.5-.5V57.58a.29.29,0,0,1,.1-.2l.1-.1,8.2-8.3H4.79a.44.44,0,0,1-.5-.5V16.78l.1-.1c0-.13,0-.2.1-.2l11.1-11.1a.09.09,0,0,1,.1-.1.29.29,0,0,0,.2-.1h55.6c.06,0,.1,0,.1.05S71.62,5.28,71.69,5.28Zm-18.3,25.9h6.5V17.38H5.29v30.7H53a.36.36,0,0,1,.4.4V65c0,.34-.14.5-.4.5H12.19a.26.26,0,0,1-.2-.1c-.14,0-.2-.06-.2-.2a.26.26,0,0,1-.1-.2v-6.9H5.29v13.8h54.6V41.58H12c-.14-.13-.2-.23-.2-.3a.26.26,0,0,1-.1-.2V24.18c0-.26.16-.4.5-.4H53a.36.36,0,0,1,.4.4Zm-29.6-1.7h28.7v-4.8H23.79v4.8Zm0,19.5v4.4h28.7V49Z"/>
  <path class="cls-1" d="M96.89,5.68v55.6a.41.41,0,0,1-.1.3L85.63,72.68a.28.28,0,0,1-.2.1c0,.07-.07.1-.2.1H77.79c-.27,0-.4-.16-.4-.5V16.58l.1-.1L88.65,5.38c.13-.13.23-.2.3-.2h7.54l.2.1.2.2Zm-18.6,66.2h6.5V17.28h-6.5Z"/>
  <path class="cls-1" d="M170.39,5.48v55.8a.6.6,0,0,1-.1.4l-11.13,11.1c-.06,0-.1,0-.1,0s0,0-.1,0h-7.81a.09.09,0,0,0-.1-.1l-28.86-31.6v20.1a.57.57,0,0,1-.2.4l-11.1,11.1-.2.1h-7.5a.44.44,0,0,1-.5-.5V16.68c0-.06,0-.1,0-.1s.05,0,.05-.1l11.1-11.1a.6.6,0,0,1,.4-.1h7.6v.1h.1l28.9,31.5V16.68a.29.29,0,0,1,.1-.2l11.16-11.1c.06,0,.1,0,.1,0s0,0,.1,0h7.74a.18.18,0,0,1,.2.2ZM103.59,72h6.5V27.68a.09.09,0,0,1,.1-.1v-.1h.1a.09.09,0,0,1,.1-.1h.4v.1h.1L151.49,72h6.8V17.28h-6.5v44.3l-.1.1v.1h-.1a.09.09,0,0,0-.1.1h-.4a.09.09,0,0,0-.1-.1l-40.6-44.5h-6.8Z"/>
  <path class="cls-1" d="M234.49,5.28c.06,0,.16.07.3.2v8a.09.09,0,0,0-.1.1l-11.2,11.1a.09.09,0,0,1-.1.1.29.29,0,0,1-.2.1h-8.4v36.6l-.1.1-11.16,11.2a.32.32,0,0,0-.2.1h-7.64c-.27,0-.4-.16-.4-.5V24.88h-19.5a.44.44,0,0,1-.5-.5v-7.6l.1-.1c0-.13,0-.2.1-.2l11.1-11.1a.09.09,0,0,1,.1-.1c.06,0,.1,0,.1,0s0-.05.1-.05h47.4c.06,0,.1,0,.1.05S234.42,5.28,234.49,5.28Zm-58.2,18.6h19.4a.44.44,0,0,1,.5.5v47.5h6.5V24.38a.44.44,0,0,1,.5-.5h19.4v-6.6h-46.3Z"/>
  <path class="cls-1" d="M307,5.48l.1.2v55.6c0,.07-.07.17-.2.3l-11.1,11.2-.1.1h-7.6a.44.44,0,0,1-.5-.5V50.68h-28.7v10.6a.41.41,0,0,1-.1.3l-11.2,11.2-.1.1h-7.6a.44.44,0,0,1-.5-.5V16.78l.1-.1c0-.13,0-.2.1-.2l11.1-11.1c.13-.13.23-.2.3-.2h55.6c.06,0,.1,0,.1.05s0,0,.1,0,.1,0,.1,0,0,0,.1,0ZM288.49,72H295V17.38h-54.6V72h6.4V50.28a.44.44,0,0,1,.5-.5h40.8c.26,0,.4.17.4.5Zm-.4-48.3a.36.36,0,0,1,.4.4v18.7a.35.35,0,0,1-.4.4h-41c-.14,0-.2-.06-.2-.2a.28.28,0,0,1-.1-.2V24.08c0-.26.16-.4.5-.4Zm-.46,7.18-.09-6.4-28.7.44.1,6.4"/>
</svg>
