<svg id="Layer_1" data-name="Layer 1" xmlns="http://www.w3.org/2000/svg" viewBox="0 0 252.51 63.27">
  <defs>
    <style>
      .cls-1 {
        fill: #231f20;
        stroke: #231f20;
        stroke-width: 0.75px;
      }
    </style>
  </defs>
  <title>Logo</title>
  <g>
    <path class="cls-1" d="M59.18,4.66a.14.14,0,0,1,.16.16.24.24,0,0,1,.08.16V16.82c0,.11,0,.16-.08.16a.24.24,0,0,1-.08.16L52.38,24H59a.24.24,0,0,1,.16.08.14.14,0,0,1,.16.16.24.24,0,0,1,.08.16v25a.24.24,0,0,1-.08.16l-.08.08-8.88,9-.08.08H5.66a.35.35,0,0,1-.4-.4V46.5a.24.24,0,0,1,.08-.16l.08-.08L12,39.62H5.66a.35.35,0,0,1-.4-.4V13.86l.08-.08c0-.11,0-.16.08-.16L14.3,4.74a.07.07,0,0,1,.08-.08.24.24,0,0,0,.16-.08H59s.08,0,.08,0S59.13,4.66,59.18,4.66ZM44.54,25.38h5.2v-11H6.06V38.9H44.22a.29.29,0,0,1,.32.32v13.2c0,.27-.11.4-.32.4H11.58a.24.24,0,0,1-.16-.08.14.14,0,0,1-.16-.16.24.24,0,0,1-.08-.16V46.9H6.06v11H49.74V33.7H11.42c-.11-.11-.16-.19-.16-.24a.24.24,0,0,1-.08-.16V19.78c0-.21.13-.32.4-.32H44.22a.29.29,0,0,1,.32.32Zm-38-11.92L50,13.54l8.16-8.15H14.7ZM13.1,39.62,6.54,46.1h4.88l6.48-6.48ZM12,32.42l8.08-8.16V20.18H12V32.42Zm7,7.2-7,7v4.88l8.08-8.16V39.62Zm32.56-14.8L50.38,26l-.08.08H44.22c-.27,0-.4-.11-.4-.32v-1H20.62L12.54,32.9H50l8.16-8.08H51.58ZM43.82,52V43.94H20.62L12.54,52Zm-23-28h23V20.18h-23V24Zm0,15.6v3.52h23V39.62ZM58.62,6,50.54,14v10.8l8.08-8.16V6Zm0,19.35-8.08,8.16v24l8.08-8.16v-24Z"/>
    <path class="cls-1" d="M79.34,5V49.46a.33.33,0,0,1-.08.24l-8.93,8.88a.23.23,0,0,1-.16.08c0,.05,0,.08-.16.08h-6c-.21,0-.32-.13-.32-.4V13.7l.08-.08,8.93-8.88c.1-.11.18-.16.24-.16h6l.16.08.16.16Zm-14.88,53h5.2V14.26h-5.2ZM65,13.46h4.82l8.21-8.08H73.14ZM78.61,49.3V5.86L70.38,14V57.46Z"/>
    <path class="cls-1" d="M138.14,4.82V49.46a.48.48,0,0,1-.08.32l-8.9,8.88s-.08,0-.08,0,0,0-.08,0h-6.25a.07.07,0,0,0-.08-.08L99.58,33.38V49.46a.45.45,0,0,1-.16.32l-8.88,8.88-.16.08h-6a.35.35,0,0,1-.4-.4V13.78s0-.08,0-.08,0,0,0-.08l8.88-8.88a.48.48,0,0,1,.32-.08h6.08v.08h.08l23.12,25.2V13.78a.21.21,0,0,1,.08-.16l8.92-8.88c.06,0,.08,0,.08,0s0,0,.09,0h6.19a.14.14,0,0,1,.16.16ZM84.7,58h5.2V22.58A.07.07,0,0,1,90,22.5v-.08h.08c0-.05,0-.08.08-.08h.32v.08h.08L123,58h5.44V14.26h-5.2V49.7l-.08.08v.08h-.08a.07.07,0,0,0-.08.08h-.32a.07.07,0,0,0-.08-.08L90.14,14.26H84.7Zm.56-44.48h4.88l8.08-8.16h-4.8Zm13.52,19L90.62,23.7V57.46l8.16-8.16V32.58Zm23.76-1.52L99.18,5.54l-8.4,8.4,31.76,34.64V31.06ZM136.85,5.38h-4.91l-8.12,8.16h4.82Zm.49,38.16V5.94l-8.16,8.16V57.46l8.16-8.16Z"/>
    <path class="cls-1" d="M189.42,4.66c.05,0,.13,0,.24.16v6.4c-.06,0-.08,0-.08.08l-9,8.88a.07.07,0,0,1-.08.08.27.27,0,0,1-.16.08h-6.72V49.62l-.08.08-8.93,9a.24.24,0,0,0-.16.08h-6.11c-.21,0-.32-.13-.32-.4v-38h-15.6a.35.35,0,0,1-.4-.4V13.86l.08-.08c0-.11,0-.16.08-.16l8.88-8.88s0-.08.08-.08.08,0,.08,0,0,0,.08,0h37.92c.05,0,.08,0,.08,0S189.37,4.66,189.42,4.66ZM142.86,19.54h15.52a.35.35,0,0,1,.4.4v38H164v-38a.35.35,0,0,1,.4-.4H179.9V14.26h-37ZM167.34,5.38H151.5l-8.16,8.24h36.8l8.16-8.24h-21Zm5.52,15H164.7V57.46l8.16-8.16v-29Zm16-14.4L180.7,14v5l8.16-8.17Z"/>
    <path class="cls-1" d="M247.42,4.82l.08.16V49.46s-.06.13-.16.24l-8.88,9-.08.08H232.3a.35.35,0,0,1-.4-.4V41h-23v8.48a.33.33,0,0,1-.08.24l-9,9-.08.08h-6.08a.35.35,0,0,1-.4-.4V13.86l.08-.08c0-.11,0-.16.08-.16l8.88-8.88c.1-.11.18-.16.24-.16H247.1c.05,0,.08,0,.08,0s0,0,.08,0,.08,0,.08,0,0,0,.08,0ZM232.62,58h5.2V14.34H194.14V58h5.12V40.66a.35.35,0,0,1,.4-.4H232.3c.21,0,.32.13.32.4Zm-38-44.41,43.44-.15,8.16-8.07H202.78Zm37.68,5.77a.29.29,0,0,1,.32.32v15a.29.29,0,0,1-.32.32H199.5a.14.14,0,0,1-.16-.16.21.21,0,0,1-.08-.16v-15c0-.21.13-.32.4-.32Zm-32.24.8V33.69l8.16-8.08V20.18ZM208.22,41h-8.16V57.46l8.16-8.16Zm-7.6-6.72H231.9V26.1H208.7ZM231.9,20.18h-23V25.3h23Zm14.8,23.36V6L238.62,14V57.46l8.08-8.16Z"/>
  </g>
</svg>
