<?xml version="1.0" encoding="utf-8"?>
<!-- Generator: Adobe Illustrator 23.0.0, SVG Export Plug-In . SVG Version: 6.00 Build 0)  -->
<svg version="1.1" id="Layer_1" xmlns="http://www.w3.org/2000/svg" xmlns:xlink="http://www.w3.org/1999/xlink" x="0px" y="0px"
	 viewBox="0 0 419.5 297.6" style="enable-background:new 0 0 419.5 297.6;" xml:space="preserve">
<style type="text/css">
	.st0{stroke:#000000;stroke-width:0.75;}
</style>
<g>
	<path class="st0" d="M140.3,108.4c0.1,0,0.2,0.1,0.2,0.2c0.1,0.1,0.1,0.1,0.1,0.2v5.9v5.9c0,0.1,0,0.2-0.1,0.2c0,0.1,0,0.1-0.1,0.2
		l-6.9,6.9h0.7h5.9c0.1,0,0.1,0,0.2,0.1c0.1,0,0.2,0.1,0.2,0.2c0.1,0.1,0.1,0.1,0.1,0.2V143v4.3v1.6v4.3c0,0.1,0,0.1-0.1,0.2
		l-0.1,0.1l-8.9,9l-0.1,0.1h-0.2H86.8c-0.3,0-0.4-0.1-0.4-0.4v-11.8c0-0.1,0-0.1,0.1-0.2l0.1-0.1l6.6-6.6h-6.3
		c-0.3,0-0.4-0.1-0.4-0.4v-23.7v-1.7l0.1-0.1c0-0.1,0-0.2,0.1-0.2l8.9-8.9c0-0.1,0-0.1,0.1-0.1c0.1,0,0.1,0,0.2-0.1h44.5
		C140.2,108.4,140.2,108.4,140.3,108.4C140.2,108.4,140.2,108.4,140.3,108.4z M125.6,129.2h5.2v-5.6v-5.5H87.2v1.3v23.3h38.2
		c0.2,0,0.3,0.1,0.3,0.3v4.3v1.6v1.4v5.9c0,0.3-0.1,0.4-0.3,0.4H92.7c-0.1,0-0.1,0-0.2-0.1c-0.1,0-0.2-0.1-0.2-0.2
		c-0.1-0.1-0.1-0.1-0.1-0.2v-5.5h-5.1v11h43.7v-5.5v-5.9v-1.4v-1.6v-9.8H92.7h-0.2c-0.1-0.1-0.2-0.2-0.2-0.2
		c-0.1-0.1-0.1-0.1-0.1-0.2v-11.8v-1.7c0-0.2,0.1-0.3,0.4-0.3h32.6c0.2,0,0.3,0.1,0.3,0.3V129.2z M87.6,117.2l43.4,0.1l8.2-8.2H95.8
		L87.6,117.2z M94.2,143.4l-6.6,6.5h4.9l6.5-6.5H94.2z M93.1,136.2l8.1-8.2v-2.8V124h-8.1v1.3V136.2z M100.1,143.4l-7,7v4.9l8.1-8.2
		v-3.8H100.1z M132.7,128.6l-1.2,1.2l-0.1,0.1h-0.2h-5.9c-0.3,0-0.4-0.1-0.4-0.3v-1h-23.2l-8.1,8.1h37.4l8.2-8.1h-5H132.7z
		 M124.9,155.8v-5.5v-1.4v-1.2h-23.2l-8.1,8.1H124.9z M102,127.8h23V124h-23v1.3V127.8z M102,143.4v3.5h23v-3.5H102z M139.7,109.7
		l-8.1,8.1v5.8v5l8.1-8.2v-5.8V109.7z M139.7,129.1l-8.1,8.2v10.1v1.6v1.4v5.9v5l8.1-8.2v-4.2v-1.6V143V129.1z"/>
	<path class="st0" d="M160.4,108.8v44.5c0,0.1,0,0.2-0.1,0.2l-8.9,8.9c-0.1,0.1-0.1,0.1-0.2,0.1c0,0.1-0.1,0.1-0.2,0.1h-6
		c-0.2,0-0.3-0.1-0.3-0.4v-44.5v-0.2l0.1-0.1l8.9-8.9c0.1-0.1,0.2-0.2,0.2-0.2h6l0.2,0.1l0.2,0.2V108.8z M145.6,161.7h5.2V118h-5.2
		V161.7z M146.1,117.2h4.8l8.2-8.1h-4.9L146.1,117.2z M159.7,153.1v-43.4l-8.2,8.2v43.4L159.7,153.1z"/>
	<path class="st0" d="M219.2,108.6v0.2v6v32.6v5.9c0,0.2,0,0.3-0.1,0.3l-8.9,8.9c-0.1,0-0.1,0-0.1,0c0,0,0,0-0.1,0h-0.2H204h-0.2
		c0-0.1,0-0.1-0.1-0.1l-23.1-25.3v4.2v11.8c0,0.1-0.1,0.2-0.2,0.3l-8.9,8.9l-0.2,0.1h-0.1h-5.9c-0.3,0-0.4-0.1-0.4-0.4v-44.4v-0.2
		c0-0.1,0-0.1,0-0.1c0,0,0,0,0-0.1l8.9-8.9c0.1-0.1,0.2-0.1,0.3-0.1h5.9h0.1h0.1v0.1h0.1l23.1,25.2v-16v-0.2c0-0.1,0-0.1,0.1-0.2
		l8.9-8.9c0.1,0,0.1,0,0.1,0c0,0,0,0,0.1,0h0.1h6h0.1C219.1,108.4,219.2,108.5,219.2,108.6L219.2,108.6z M165.8,161.8h5.2v-20.4
		v-5.9v-9v-0.1c0-0.1,0-0.1,0.1-0.1v-0.1h0.1c0-0.1,0-0.1,0.1-0.1h0.1h0.1h0.1h0.1v0.1h0.1l32.5,35.6h5.4V118h-5.2v17.4v5.9v11.9
		v0.2l-0.1,0.1v0.1h-0.1c-0.1,0-0.1,0-0.1,0.1H204h-0.2c0-0.1,0-0.1-0.1-0.1L171.2,118h-5.4V161.8z M166.4,117.3h4.9l8.1-8.2h-4.8
		L166.4,117.3z M179.9,136.4l-8.2-8.9v8v5.9v19.8l8.2-8.2v-11.7V136.4z M203.6,134.8l-23.4-25.5l-8.4,8.4l31.8,34.6v-11v-5.9V134.8z
		 M218,109.2H213l-8.1,8.2h4.8L218,109.2z M218.4,147.3v-32.6v-5l-8.2,8.2v43.4l8.2-8.2V147.3z"/>
	<path class="st0" d="M270.5,108.4c0.1,0,0.1,0.1,0.2,0.2v0.2v6.1v0.2c-0.1,0-0.1,0-0.1,0.1l-9,8.9c0,0.1,0,0.1-0.1,0.1
		c-0.1,0.1-0.1,0.1-0.2,0.1h-6.7v23.2v5.9v0.2l-0.1,0.1l-8.9,9c-0.1,0-0.1,0-0.2,0.1h-0.1h-6c-0.2,0-0.3-0.1-0.3-0.4v-8.8v-11.9
		v-5.9v-11.4h-15.6c-0.3,0-0.4-0.1-0.4-0.4v-6.1l0.1-0.1c0-0.1,0-0.2,0.1-0.2l8.9-8.9c0-0.1,0-0.1,0.1-0.1c0.1,0,0.1,0,0.1,0
		c0,0,0,0,0.1,0h16h6h15.9C270.4,108.4,270.4,108.4,270.5,108.4C270.4,108.4,270.5,108.4,270.5,108.4z M224,123.3h15.5
		c0.3,0,0.4,0.1,0.4,0.4v11.8v5.9v11.9v8.4h5.2v-38c0-0.3,0.1-0.4,0.4-0.4H261V118h-15.5h-6H224V123.3z M248.4,109.2h-15.8l-8.2,8.2
		h15h6h15.8l8.2-8.2h-15H248.4z M254,124.1h-8.2v37.1l8.2-8.2v-5.8V124.1z M270,109.7l-8.2,8.1v5l8.2-8.2V109.7z"/>
	<path class="st0" d="M328.5,108.6l0.1,0.2v5.9v32.6v5.9c0,0.1-0.1,0.1-0.2,0.2l-8.9,9l-0.1,0.1h-0.2h-5.9c-0.3,0-0.4-0.1-0.4-0.4
		v-17.4h-2.6H290v8.5c0,0.1,0,0.2-0.1,0.2l-9,9l-0.1,0.1h-0.2h-5.9c-0.3,0-0.4-0.1-0.4-0.4v-44.5l0.1-0.1c0-0.1,0-0.2,0.1-0.2
		l8.9-8.9c0.1-0.1,0.2-0.2,0.2-0.2h44.5c0.1,0,0.1,0,0.1,0c0,0,0,0,0.1,0c0.1,0,0.1,0,0.1,0C328.4,108.5,328.5,108.5,328.5,108.6
		L328.5,108.6z M313.7,161.8h5.2v-43.7h-43.7v43.7h5.1v-17.4c0-0.3,0.1-0.4,0.4-0.4h29.7h3c0.2,0,0.3,0.1,0.3,0.4V161.8z
		 M275.7,117.4l43.4-0.2l8.2-8.1h-43.4L275.7,117.4z M313.4,123.2c0.2,0,0.3,0.1,0.3,0.3v15c0,0.2-0.1,0.3-0.3,0.3h-32.6h-0.2
		c-0.1,0-0.2-0.1-0.2-0.2c-0.1-0.1-0.1-0.1-0.1-0.2v-15c0-0.2,0.1-0.3,0.4-0.3H313.4z M281.2,124v13.5l8.2-8.1V124H281.2z
		 M289.3,144.8h-8.2v16.5l8.2-8.2V144.8z M281.7,138H313v-8.2h-23.2L281.7,138z M313,124h-23v5.1h23V124z M327.8,147.3v-32.6v-5
		l-8.1,8.1v43.4l8.1-8.2V147.3z"/>
</g>
</svg>
